<?xml version="1.0" encoding="UTF-8"?>
<svg id="_レイヤー_2" data-name="レイヤー 2" xmlns="http://www.w3.org/2000/svg" xmlns:xlink="http://www.w3.org/1999/xlink" viewBox="0 0 618.46 618.45">
  <defs>
    <style>
      .cls-1 {
        fill: none;
      }

      .cls-2 {
        fill: #9dd3db;
      }

      .cls-3 {
        fill: url(#_名称未設定グラデーション_6);
      }

      .cls-4 {
        clip-path: url(#clippath-1);
      }

      .cls-5 {
        fill: #fff;
      }

      .cls-6 {
        opacity: .1;
      }

      .cls-7 {
        fill: #fed6ce;
      }

      .cls-8 {
        clip-path: url(#clippath);
      }
    </style>
    <clipPath id="clippath">
      <rect class="cls-1" width="618.46" height="618.45"/>
    </clipPath>
    <clipPath id="clippath-1">
      <path class="cls-1" d="M618.46,309.23c0,170.78-138.45,309.23-309.23,309.23S0,480.01,0,309.23,138.45,0,309.23,0s309.23,138.45,309.23,309.23"/>
    </clipPath>
    <linearGradient id="_名称未設定グラデーション_6" data-name="名称未設定グラデーション 6" x1="-292.1" y1="8335.53" x2="-291.1" y2="8335.53" gradientTransform="translate(180648.56 5155470.76) scale(618.46 -618.46)" gradientUnits="userSpaceOnUse">
      <stop offset="0" stop-color="#a8b6ff"/>
      <stop offset=".48" stop-color="#70c0ff"/>
      <stop offset="1" stop-color="#47e5c5"/>
    </linearGradient>
  </defs>
  <g id="_レイヤー_1-2" data-name="レイヤー 1">
    <g>
      <g class="cls-6">
        <g class="cls-8">
          <g class="cls-4">
            <rect class="cls-3" x="0" y="0" width="618.46" height="618.46"/>
          </g>
        </g>
      </g>
      <rect class="cls-5" x="165.97" y="138.54" width="221.95" height="341.48"/>
      <path d="M387.92,480.44c-.23,0-.41-.18-.41-.41V138.54c0-.23.18-.41.41-.41s.41.19.41.41v341.48c0,.23-.18.41-.41.41"/>
      <path d="M165.97,480.44c-.23,0-.41-.18-.41-.41V138.54c0-.23.18-.41.41-.41s.41.19.41.41v341.48c0,.23-.18.41-.41.41"/>
      <rect class="cls-5" x="179.5" y="199.43" width="194.9" height="233.96"/>
      <path d="M374.4,433.8h-194.9c-.23,0-.41-.19-.41-.41v-233.96c0-.23.18-.41.41-.41h194.9c.23,0,.41.18.41.41v233.96c0,.23-.18.41-.41.41M179.91,432.97h194.07v-233.14h-194.07v233.14Z"/>
      <path class="cls-5" d="M217.05,169.65c0,10.39-8.43,18.82-18.82,18.82s-18.82-8.43-18.82-18.82,8.43-18.82,18.82-18.82,18.82,8.43,18.82,18.82"/>
      <path d="M198.23,188.88c-10.6,0-19.23-8.63-19.23-19.23s8.63-19.23,19.23-19.23,19.23,8.63,19.23,19.23-8.63,19.23-19.23,19.23M198.23,151.25c-10.15,0-18.41,8.26-18.41,18.41s8.26,18.41,18.41,18.41,18.41-8.26,18.41-18.41-8.26-18.41-18.41-18.41"/>
      <path class="cls-5" d="M294.39,175.86h-55.53c-3.43,0-6.2-2.78-6.2-6.2s2.78-6.2,6.2-6.2h55.53c3.43,0,6.2,2.78,6.2,6.2s-2.78,6.2-6.2,6.2"/>
      <path d="M294.39,176.27h-55.53c-3.65,0-6.62-2.97-6.62-6.62s2.97-6.61,6.62-6.61h55.53c3.65,0,6.61,2.97,6.61,6.61s-2.97,6.62-6.61,6.62M238.86,163.86c-3.19,0-5.79,2.6-5.79,5.79s2.6,5.79,5.79,5.79h55.53c3.19,0,5.79-2.6,5.79-5.79s-2.6-5.79-5.79-5.79h-55.53Z"/>
      <path class="cls-5" d="M370.7,169.65c0,1.02.83,1.85,1.85,1.85s1.85-.83,1.85-1.85-.83-1.85-1.85-1.85-1.85.83-1.85,1.85"/>
      <path d="M372.55,171.91c-1.25,0-2.26-1.01-2.26-2.26s1.02-2.26,2.26-2.26,2.26,1.02,2.26,2.26-1.02,2.26-2.26,2.26M372.55,168.21c-.79,0-1.44.65-1.44,1.44s.65,1.44,1.44,1.44,1.44-.65,1.44-1.44-.65-1.44-1.44-1.44"/>
      <path class="cls-5" d="M362.71,169.65c0,1.02.83,1.85,1.85,1.85s1.85-.83,1.85-1.85-.83-1.85-1.85-1.85-1.85.83-1.85,1.85"/>
      <path d="M364.56,171.91c-1.25,0-2.26-1.01-2.26-2.26s1.02-2.26,2.26-2.26,2.26,1.02,2.26,2.26-1.02,2.26-2.26,2.26M364.56,168.21c-.79,0-1.44.65-1.44,1.44s.65,1.44,1.44,1.44,1.44-.65,1.44-1.44-.65-1.44-1.44-1.44"/>
      <path class="cls-5" d="M354.73,169.65c0,1.02.83,1.85,1.85,1.85s1.85-.83,1.85-1.85-.83-1.85-1.85-1.85-1.85.83-1.85,1.85"/>
      <path d="M356.58,171.91c-1.25,0-2.26-1.01-2.26-2.26s1.02-2.26,2.26-2.26,2.26,1.02,2.26,2.26-1.02,2.26-2.26,2.26M356.58,168.21c-.79,0-1.44.65-1.44,1.44s.65,1.44,1.44,1.44,1.44-.65,1.44-1.44-.65-1.44-1.44-1.44"/>
      <path class="cls-5" d="M199.06,447.34c-2.03-2.03-5.33-2.03-7.36,0l-1.7,1.7-1.7-1.7c-2.03-2.03-5.33-2.03-7.36,0-2.03,2.03-2.03,5.33,0,7.36l9.06,9.06,9.06-9.06c2.03-2.03,2.03-5.33,0-7.36"/>
      <path d="M190,464.17c-.11,0-.21-.04-.29-.12l-9.06-9.06c-2.19-2.19-2.19-5.75,0-7.94,1.06-1.06,2.47-1.64,3.97-1.64s2.91.58,3.97,1.64l1.41,1.41,1.41-1.41c1.06-1.06,2.47-1.64,3.97-1.64s2.91.58,3.97,1.64c2.19,2.19,2.19,5.75,0,7.94l-9.06,9.06c-.08.08-.18.12-.29.12M184.62,446.23c-1.28,0-2.48.5-3.39,1.4-1.87,1.87-1.87,4.91,0,6.77l8.77,8.77,8.77-8.77c1.87-1.87,1.87-4.91,0-6.77-.9-.91-2.11-1.4-3.39-1.4s-2.48.5-3.39,1.4l-1.71,1.7c-.16.16-.42.16-.58,0l-1.7-1.7c-.9-.91-2.11-1.4-3.39-1.4"/>
      <path class="cls-5" d="M228.85,460.75c1.31-1.55,2.09-3.47,2.09-5.54,0-5.19-4.86-9.4-10.86-9.4s-10.86,4.21-10.86,9.4,4.86,9.4,10.86,9.4c2.43,0,4.67-.69,6.48-1.86l3.46,1.77-1.17-3.77Z"/>
      <path d="M220.08,465.01c-6.22,0-11.28-4.4-11.28-9.81s5.06-9.81,11.28-9.81,11.27,4.4,11.27,9.81c0,2.03-.71,3.97-2.04,5.63l1.11,3.56c.05.16,0,.33-.13.44-.13.11-.3.13-.45.05l-3.25-1.66c-1.91,1.18-4.15,1.8-6.51,1.8M220.08,446.23c-5.76,0-10.45,4.03-10.45,8.98s4.69,8.98,10.45,8.98c2.28,0,4.44-.62,6.26-1.79.12-.08.28-.09.41-.02l2.59,1.32-.88-2.83c-.04-.13-.01-.28.08-.39,1.3-1.54,1.99-3.37,1.99-5.27,0-4.95-4.69-8.98-10.45-8.98"/>
      <polygon class="cls-5" points="245.21 454.51 239.39 446.66 261.58 446.66 245.21 454.51"/>
      <path d="M245.21,454.92c-.13,0-.25-.06-.33-.17l-5.81-7.85c-.09-.12-.11-.29-.04-.43s.21-.23.37-.23h22.18c.19,0,.36.13.4.32.04.19-.05.38-.22.46l-16.37,7.85c-.06.03-.12.04-.18.04M240.21,447.07l5.12,6.92,14.43-6.92h-19.55Z"/>
      <polygon class="cls-5" points="245.19 454.47 246.24 464.6 261.58 446.66 245.19 454.47"/>
      <path d="M246.24,465.01s-.08,0-.12-.02c-.16-.05-.27-.19-.29-.35l-1.04-10.13c-.02-.17.08-.34.23-.41l16.38-7.81c.18-.08.39-.03.5.12.12.15.11.37-.01.52l-15.34,17.94c-.08.09-.19.14-.31.14M245.63,454.72l.91,8.88,13.46-15.74-14.37,6.85Z"/>
      <path class="cls-5" d="M245.67,322.36s-26.16,25.1-28.21,55.85c-1.4,21,5.18,54.77,5.18,54.77h58.52l-1.08-27.16,13.53,27.16h63.73l-42.86-104.98-68.8-5.64Z"/>
      <path d="M293.6,433.8c-.15,0-.3-.08-.37-.23l-12.67-25.44,1,25.24c0,.23-.17.42-.39.43-.23,0-.42-.17-.43-.4l-1.08-27.16c0-.19.12-.37.31-.42.19-.05.38.04.47.22l13.53,27.16c.1.2.02.45-.18.55-.06.03-.12.04-.18.04"/>
      <path d="M222.63,433.8c-.19,0-.37-.14-.4-.33-.07-.34-6.57-34.06-5.19-54.88,2.04-30.55,28.08-55.86,28.34-56.11.09-.08.2-.12.32-.11l68.8,5.64c.15.01.29.11.35.25l42.86,104.98c.09.21-.01.45-.23.54-.21.09-.45-.02-.54-.23l-42.77-104.75-68.36-5.6c-2.01,1.98-26.02,26.34-27.96,55.45-1.38,20.71,5.11,54.33,5.17,54.67.04.22-.1.44-.33.48-.03,0-.05,0-.08,0"/>
      <path d="M280.29,402.07c-.23,0-.41-.18-.41-.41v-13.61c0-.14.07-.27.19-.35l8.74-5.58c.19-.12.45-.07.57.13.12.19.07.45-.13.57l-8.55,5.46v13.39c0,.23-.18.41-.41.41"/>
      <path d="M320.33,243.45s-5.87-7.76-3.91-17.54c1.96-9.78,2.35-25.63-12.4-24.11,0,0-9.35-11.08-25.3-4.34-15.95,6.73-18.99,19.98-17.69,30.96,1.3,10.97-9.78,16.01-11.73,22.83-1.96,6.82-3.48,18.99,6.08,27.46,9.56,8.47,39.1,14.22,56.7,3.04,17.59-11.18,13.69-30.53,8.26-38.29"/>
      <path class="cls-5" d="M255.87,333.92c-.5-.72-1.12-1.36-1.83-1.89.34-1.07.13-1.9-.69-2.74-1.34-1.36-3.48-2-5.38-2.2-3.85-.41-9.17.37-12.32.9-4.76.79-7.61,1.62-10.86-.8-2.82-2.09-15.96-23.14-15.96-23.14-2.11,1.38,33.54-10.33,33.54-10.33,0,0-1.83-34.05-12.49-31.49-22.58,5.44-59.69,13.39-58.06,33.46,1.2,14.71,39.43,73.14,63.18,55.9,3.51-2.55,7.76-4.42,12.09-4.2,2.24.12,4.51.86,6.69.34,2.18-.52,3.61-2.58,2.71-4.99,1.39-2.76,1.15-6.28-.62-8.82"/>
      <path d="M225.39,355.16c-3.11,0-6.43-.81-9.95-2.43-12.6-5.79-23.93-19.97-29.57-27.91-8.04-11.33-13.99-23.29-14.46-29.09-1.59-19.56,32.71-27.76,55.4-33.18,1.01-.24,2.01-.48,2.97-.71,1.53-.37,2.97-.06,4.28.92,7.26,5.41,8.66,29.9,8.71,30.94,0,.19-.11.35-.28.41-.08.03-8.44,2.77-16.72,5.42-4.86,1.55-8.75,2.77-11.55,3.61-2.46.74-3.85,1.14-4.65,1.32,2.2,3.5,13,20.58,15.46,22.4,2.78,2.06,5.18,1.65,9.16.96.45-.08.91-.16,1.39-.24,2.02-.33,8.17-1.35,12.43-.9,1.39.15,3.98.65,5.63,2.32.86.87,1.14,1.79.87,2.87.66.53,1.23,1.14,1.69,1.81,1.8,2.6,2.09,6.23.72,9.08.38,1.13.3,2.28-.21,3.25-.56,1.05-1.59,1.82-2.85,2.11-1.53.37-3.1.14-4.61-.08-.72-.1-1.47-.21-2.2-.25-4.74-.25-9.05,2.1-11.83,4.12-2.97,2.16-6.27,3.24-9.85,3.24M231,262.5c-.34,0-.68.04-1.04.13-.97.23-1.96.47-2.97.71-22.42,5.36-56.31,13.46-54.77,32.32.86,10.56,22.32,46.56,43.56,56.32,7.3,3.36,13.69,3.11,18.97-.73,2.88-2.09,7.37-4.54,12.35-4.28.76.04,1.53.15,2.27.26,1.5.22,2.92.42,4.3.09,1.02-.24,1.86-.86,2.31-1.7.43-.82.47-1.76.11-2.74-.04-.11-.03-.23.02-.33,1.32-2.62,1.08-5.99-.59-8.4-.46-.67-1.05-1.27-1.74-1.8-.14-.1-.2-.29-.14-.45.29-.92.12-1.6-.6-2.32-1.47-1.49-3.85-1.94-5.13-2.08-4.16-.44-10.22.56-12.21.89-.48.08-.94.16-1.38.24-4.05.7-6.73,1.17-9.79-1.11-2.7-2-14.2-20.28-15.87-22.95-.19-.03-.24-.12-.3-.24-.04-.08-.14-.37.23-.62.09-.06.2-.08.31-.06.06.01.11.04.16.07,2.6-.49,20.65-6.28,32.86-10.3-.19-2.92-1.84-25.15-8.36-30.01-.82-.61-1.66-.91-2.56-.91"/>
      <path d="M256.17,343.16s-.09,0-.14-.02c-3.4-1.21-7.8-2.43-11.78-1.04-.22.08-.45-.04-.52-.25-.08-.21.04-.45.25-.52,4.21-1.47,8.8-.21,12.33,1.05.21.08.33.31.25.53-.06.17-.22.27-.39.27"/>
      <path d="M256.78,337.91s-.09,0-.13-.02c-3.82-1.3-7.8-1.96-11.83-1.97-.23,0-.41-.19-.41-.41,0-.23.18-.41.41-.41h0c4.12,0,8.19.69,12.1,2.01.21.07.33.31.26.52-.06.17-.22.28-.39.28"/>
      <path d="M254.15,332.77s-.09,0-.13-.02c-2.92-1.01-6.1-1.47-9.19-1.33-.22.01-.42-.17-.43-.39-.01-.23.17-.42.39-.43,3.19-.15,6.48.33,9.5,1.37.22.07.33.31.26.52-.06.17-.22.28-.39.28"/>
      <path class="cls-5" d="M319.12,292.35s56.45,14.64,61.08-5.36c5.31-22.94-36.67-41.33-36.67-41.33l-16.85,12.28-7.56,34.4Z"/>
      <path d="M356.11,297.96c-16.73,0-35.94-4.91-37.09-5.21-.21-.06-.35-.27-.3-.49l7.56-34.4c.02-.1.08-.19.16-.24l16.85-12.28c.12-.09.27-.1.41-.04.1.05,10.65,4.7,20.41,12.11,13,9.87,18.71,20.14,16.5,29.69-.68,2.94-2.49,5.32-5.39,7.08-4.65,2.82-11.63,3.8-19.11,3.8M319.61,292.05c4.19,1.04,41.21,9.87,55.18,1.41,2.7-1.63,4.38-3.84,5.01-6.56,4.98-21.51-32.99-39.29-36.22-40.76l-16.53,12.05-7.44,33.86Z"/>
      <path class="cls-2" d="M244.36,323.17l-.1-25.65-11.26,2.65-19.21-35.83s24.68-8.04,44.61-8.04h84.73l-9.45,40.12-10.64-.64-7.65,33.42-71.03-6.03Z"/>
      <path d="M277.2,306.34c-7.3,0-13.23-5.94-13.23-13.23,0-.23.18-.41.41-.41s.41.19.41.41c0,6.84,5.57,12.41,12.41,12.41,4.13,0,7.98-2.04,10.29-5.47.13-.19.38-.24.57-.11.19.13.24.38.11.57-2.47,3.65-6.57,5.83-10.97,5.83"/>
      <path class="cls-2" d="M329.66,293.11c0,7.08-5.74,12.82-12.82,12.82s-12.82-5.74-12.82-12.82,5.74-12.82,12.82-12.82,12.82,5.74,12.82,12.82"/>
      <path d="M316.84,306.34c-3.54,0-6.86-1.38-9.36-3.88-.16-.16-.16-.42,0-.58.16-.16.42-.16.58,0,2.34,2.34,5.46,3.63,8.78,3.63,1.27,0,2.52-.19,3.72-.57.22-.07.45.05.52.27.07.22-.05.45-.27.52-1.28.4-2.61.6-3.97.6"/>
      <path d="M329.4,296.11s-.06,0-.08,0c-.22-.04-.37-.26-.32-.49.17-.82.25-1.66.25-2.5,0-5.12-3.07-9.65-7.83-11.54-.21-.08-.32-.32-.23-.53.08-.21.32-.32.53-.23,5.07,2.01,8.35,6.84,8.35,12.3,0,.9-.09,1.79-.27,2.67-.04.19-.21.33-.4.33"/>
      <path class="cls-5" d="M300.12,238.83l-.05,17.09,3.19,2.95s2.3,28.16-3.22,28.12c-3.83-.03-21.32-15.63-23.37-30.7l5.31-.38,1.58-22.87,16.56,5.78Z"/>
      <path class="cls-5" d="M375.98,269.76c-9.69-14.22-30.78-24.13-41.69-28.15-15.57-5.74-32.98-3.67-43.59,7.89-1.5,1.64-1.6,4.21-.07,5.82.74.77,1.69,1.2,2.85.59,0,0,2.82,3.72,6.58,0,0,0,.91,4.97,6.69,2.03,0,0,3.1,2.94,8.67-.57,0,0,17.93,5.33,33.64,26.28l26.91-13.9Z"/>
      <path d="M349.07,284.07c-.12,0-.25-.06-.33-.16-2.98-3.97-6.25-7.66-9.74-10.97-.16-.16-.17-.42-.02-.58.16-.17.42-.17.58-.01,3.52,3.34,6.82,7.06,9.83,11.07.14.18.1.44-.08.58-.07.06-.16.08-.25.08"/>
      <path d="M375.98,270.17c-.13,0-.26-.06-.34-.18-10.99-16.13-36.49-26.15-41.49-27.99-16.34-6.03-33.28-2.97-43.14,7.78-1.4,1.53-1.43,3.84-.07,5.26.75.79,1.52.95,2.36.51.18-.09.4-.04.52.12.01.01,1.07,1.37,2.67,1.48,1.09.07,2.2-.44,3.3-1.53.11-.11.27-.15.41-.1.14.05.25.17.28.32.02.1.49,2.47,2.81,2.61.23.01.4.21.39.44-.01.23-.2.4-.44.39-1.94-.12-2.96-1.52-3.38-2.61-1.12.95-2.28,1.39-3.44,1.3-1.52-.11-2.6-1.08-3.04-1.55-1.07.43-2.12.15-3.04-.81-1.66-1.73-1.63-4.54.06-6.39,10.09-11,27.38-14.14,44.03-8,5.04,1.86,30.76,11.96,41.89,28.3.13.19.08.44-.11.57-.07.05-.15.07-.23.07"/>
      <path d="M315.43,257.79c-.12,0-.23-.05-.31-.14-.15-.17-.13-.43.04-.58,2.41-2.11,5.72-5.85,7.28-9.09.1-.21.34-.29.55-.19.2.1.29.35.19.55-1.61,3.35-5.01,7.2-7.48,9.36-.08.07-.18.1-.27.1"/>
      <path d="M306.76,258.36s-.09,0-.13-.02c-.22-.07-.34-.3-.27-.52,1.11-3.42,4.95-6.57,7.97-8.61.19-.13.44-.08.57.11.13.19.08.44-.11.57-4.18,2.82-6.83,5.65-7.65,8.18-.06.17-.22.28-.39.28"/>
      <path d="M300.07,256.33c-.19,0-.37-.14-.4-.33-.5-2.58,4.87-6.54,8.11-8.67.19-.12.45-.07.57.12.12.19.07.45-.12.57-5.07,3.33-8.04,6.33-7.75,7.82.04.22-.1.44-.33.48-.03,0-.05,0-.08,0"/>
      <path d="M293.25,256.33c-.19,0-.37-.14-.4-.33-.52-2.69,5.72-8.01,8.41-9.78.19-.12.45-.07.57.12s.07.44-.12.57c-3.06,2.01-8.44,6.93-8.05,8.94.04.22-.1.44-.33.48-.03,0-.05,0-.08,0"/>
      <path class="cls-5" d="M309.67,233.79c-.17,2.53-.52,5.24-2.19,7.15-2,2.29-5.41,2.83-8.41,2.36-4.85-.76-9.29-3.84-11.69-8.13-2.99,1-6.61-.49-8.02-3.31-1.41-2.82-.45-6.61,2.15-8.41,2.59-1.8,6.48-1.37,8.62.94-.25-2.98-.39-6.31,1.57-8.56,1.99-2.28,5.39-2.57,8.41-2.43,2.25.1,4.77.19,6.95.81,2.27.64,2.01,1.95,2.26,4.23.56,5.1.68,10.24.34,15.36"/>
      <path d="M301.08,243.86c-.67,0-1.36-.05-2.07-.16-4.84-.76-9.33-3.83-11.82-8.05-3.12.86-6.74-.71-8.19-3.62-1.51-3.01-.48-7.01,2.28-8.93,2.47-1.71,6.01-1.54,8.37.28-.19-2.88-.07-5.75,1.75-7.83,2.24-2.56,6.06-2.7,8.73-2.57l.37.02c2.14.1,4.57.21,6.67.81,2.22.63,2.33,1.91,2.48,3.67.02.28.05.58.08.9.56,5.11.68,10.31.34,15.43-.18,2.68-.58,5.43-2.29,7.39-1.5,1.72-3.92,2.66-6.72,2.66M287.38,234.75c.15,0,.28.08.36.21,2.33,4.15,6.69,7.19,11.39,7.92,3.36.53,6.37-.3,8.04-2.22,1.63-1.86,1.93-4.54,2.08-6.9.33-5.08.22-10.22-.34-15.29-.04-.33-.06-.64-.09-.93-.14-1.7-.21-2.48-1.88-2.95-2.02-.57-4.39-.68-6.49-.77l-.37-.02c-2.51-.12-6.07,0-8.08,2.29-1.83,2.09-1.73,5.23-1.47,8.26.02.18-.08.34-.24.41-.16.07-.35.03-.47-.1-2.02-2.18-5.65-2.57-8.09-.88-2.44,1.69-3.34,5.23-2.01,7.88,1.33,2.65,4.7,4.05,7.52,3.1.04-.01.09-.02.13-.02"/>
      <path d="M287.93,229.47c-.17,0-.33-.11-.39-.28-.4-1.18-1-1.89-1.78-2.1-1.54-.42-3.36,1.11-3.38,1.12-.17.15-.43.13-.58-.05-.15-.17-.13-.43.05-.58.09-.08,2.18-1.83,4.13-1.29,1.06.29,1.84,1.18,2.34,2.63.07.22-.04.45-.26.52-.04.02-.09.02-.13.02"/>
      <path class="cls-5" d="M350.37,254.05c-2.2-5.15-5.53-9.13-9.8-12.04,4.27-2.91,7.6-7.53,9.8-12.68,2.2,5.15,5.67,9.45,9.94,12.36-4.27,2.91-7.74,7.21-9.94,12.36"/>
      <path d="M350.37,254.46c-.17,0-.31-.1-.38-.25-2.11-4.95-5.36-8.94-9.66-11.86-.11-.08-.18-.2-.18-.34s.07-.26.18-.34c3.98-2.71,7.32-7.03,9.66-12.5.07-.15.21-.25.38-.25s.31.1.38.25c2.17,5.09,5.56,9.3,9.8,12.18.11.08.18.2.18.34s-.07.26-.18.34c-4.24,2.88-7.63,7.1-9.8,12.18-.07.15-.21.25-.38.25M341.28,242.01c3.94,2.81,6.99,6.51,9.08,11.03,2.15-4.66,5.32-8.56,9.22-11.35-3.9-2.79-7.07-6.69-9.22-11.34-2.28,4.99-5.4,9-9.08,11.66"/>
      <path class="cls-5" d="M359.25,266.54c-1.54-3.6-3.86-6.37-6.84-8.4,2.98-2.03,5.31-5.25,6.84-8.85,1.54,3.6,3.96,6.6,6.94,8.63-2.98,2.03-5.4,5.03-6.94,8.63"/>
      <path d="M359.25,266.95c-.17,0-.31-.1-.38-.25-1.46-3.43-3.72-6.2-6.7-8.22-.11-.08-.18-.2-.18-.34s.07-.26.18-.34c2.76-1.88,5.07-4.88,6.7-8.67.07-.15.21-.25.38-.25s.31.1.38.25c1.51,3.53,3.86,6.45,6.79,8.45.11.08.18.2.18.34s-.07.26-.18.34c-2.94,2-5.29,4.92-6.79,8.45-.06.15-.21.25-.38.25M353.13,258.14c2.63,1.91,4.69,4.39,6.13,7.4,1.48-3.11,3.61-5.72,6.23-7.63-2.61-1.9-4.74-4.52-6.22-7.62-1.56,3.33-3.66,6.02-6.13,7.84"/>
      <path class="cls-5" d="M218.2,272.66c-2.2-5.15-5.53-9.13-9.8-12.04,4.27-2.91,7.6-7.53,9.8-12.68,2.2,5.15,5.67,9.45,9.94,12.36-4.27,2.91-7.74,7.21-9.94,12.36"/>
      <path d="M218.2,273.07c-.17,0-.31-.1-.38-.25-2.11-4.95-5.36-8.94-9.66-11.86-.11-.08-.18-.2-.18-.34s.07-.26.18-.34c3.98-2.71,7.32-7.03,9.66-12.5.07-.15.21-.25.38-.25s.31.1.38.25c2.17,5.09,5.56,9.3,9.8,12.18.11.08.18.21.18.34s-.07.26-.18.34c-4.24,2.88-7.63,7.1-9.8,12.18-.07.15-.21.25-.38.25M209.11,260.62c3.94,2.81,6.99,6.51,9.08,11.03,2.15-4.66,5.32-8.56,9.23-11.35-3.9-2.79-7.07-6.69-9.22-11.34-2.28,4.99-5.4,9-9.08,11.66"/>
      <path class="cls-5" d="M228.07,214.07c-2.2-5.15-5.53-9.13-9.8-12.04,4.27-2.91,7.6-7.53,9.8-12.68,2.2,5.15,5.67,9.45,9.94,12.36-4.27,2.91-7.74,7.21-9.94,12.36"/>
      <path d="M228.07,214.49c-.17,0-.31-.1-.38-.25-2.11-4.95-5.36-8.94-9.66-11.86-.11-.08-.18-.21-.18-.34s.07-.26.18-.34c3.98-2.71,7.32-7.03,9.66-12.5.07-.15.21-.25.38-.25s.31.1.38.25c2.17,5.09,5.56,9.3,9.8,12.18.11.08.18.2.18.34s-.07.26-.18.34c-4.24,2.88-7.62,7.1-9.8,12.18-.07.15-.21.25-.38.25M218.99,202.03c3.94,2.81,6.99,6.51,9.08,11.03,2.15-4.66,5.32-8.56,9.22-11.35-3.9-2.79-7.07-6.69-9.22-11.34-2.28,4.99-5.4,9-9.08,11.66"/>
      <path class="cls-5" d="M242.8,224.91c-1.82-4.25-4.56-7.53-8.08-9.92,3.52-2.4,6.27-6.21,8.08-10.46,1.81,4.25,4.68,7.79,8.2,10.19-3.52,2.4-6.38,5.94-8.2,10.19"/>
      <path d="M242.8,225.33c-.17,0-.31-.1-.38-.25-1.74-4.06-4.41-7.34-7.94-9.75-.11-.08-.18-.2-.18-.34s.07-.26.18-.34c3.27-2.23,6.01-5.78,7.94-10.28.06-.15.21-.25.38-.25s.31.1.38.25c1.79,4.18,4.57,7.64,8.05,10.01.11.08.18.21.18.34s-.07.26-.18.34c-3.48,2.37-6.27,5.83-8.05,10.01-.07.15-.21.25-.38.25M235.44,214.99c3.18,2.28,5.65,5.28,7.36,8.92,1.76-3.76,4.33-6.91,7.48-9.18-3.15-2.27-5.72-5.43-7.48-9.18-1.86,4.03-4.39,7.27-7.37,9.44"/>
      <path d="M399.9,264.78l-24.47-50.75,16.96-6.02,24.03,48.71c2.68,5.44-.54,11.94-6.5,13.09-4.1.79-8.21-1.27-10.02-5.03"/>
      <path class="cls-5" d="M395.81,219.52h-24.46c-4.46,0-8.07-3.61-8.07-8.07v-21.52c0-4.46,3.61-8.07,8.07-8.07h24.46v37.67Z"/>
      <path d="M395.81,219.93h-24.46c-4.68,0-8.48-3.81-8.48-8.48v-21.52c0-4.68,3.81-8.48,8.48-8.48h24.46c.23,0,.41.19.41.41v37.67c0,.23-.18.41-.41.41M371.35,182.27c-4.22,0-7.66,3.44-7.66,7.66v21.52c0,4.22,3.44,7.66,7.66,7.66h24.05v-36.84h-24.05Z"/>
      <path class="cls-5" d="M524.05,154.39s-3.07-17.28-16.1-15.89c-9.52,1.02-70.09,21.86-102.1,33.04-11.84,4.14-19.77,15.31-19.77,27.85,0,15.07,11.36,27.72,26.35,29.33l96.77,10.4s10.26-1.28,15.16-17.02c4.9-15.74-.3-67.72-.3-67.72"/>
      <path d="M509.19,239.54s-.03,0-.04,0l-96.77-10.4c-15.23-1.64-26.72-14.42-26.72-29.74,0-12.7,8.06-24.05,20.05-28.24,34.11-11.92,92.76-32.05,102.19-33.06,13.26-1.42,16.52,16.05,16.55,16.22,0,0,0,.02,0,.03.21,2.13,5.15,52.25.29,67.89-4.92,15.81-15.07,17.25-15.5,17.3-.02,0-.03,0-.05,0M509.39,138.84c-.45,0-.92.03-1.4.08-9.36,1-67.93,21.12-102.01,33.02-11.66,4.07-19.49,15.11-19.49,27.46,0,14.9,11.17,27.33,25.98,28.92l96.71,10.39c.72-.12,10.18-1.97,14.78-16.72,4.78-15.38-.2-66.37-.32-67.54-.1-.55-3.07-15.61-14.25-15.61"/>
      <path class="cls-5" d="M537.02,188.87c0,27.81-12.02,50.35-26.85,50.35s-26.85-22.54-26.85-50.35,12.02-50.35,26.85-50.35,26.85,22.54,26.85,50.35"/>
      <path d="M510.17,239.63c-15.03,0-27.27-22.77-27.27-50.76s12.23-50.76,27.27-50.76,27.27,22.77,27.27,50.76-12.23,50.76-27.27,50.76M510.17,138.93c-14.58,0-26.44,22.4-26.44,49.93s11.86,49.93,26.44,49.93,26.44-22.4,26.44-49.93-11.86-49.93-26.44-49.93"/>
      <path d="M492.68,209.69c-.22,0-.4-.17-.41-.39-.01-.23.16-.42.39-.44,7.09-.44,13.79-5.1,16.69-11.58,2.89-6.48,1.88-14.58-2.52-20.15-3.45-4.37-8.93-7.14-14.66-7.42-.23-.01-.4-.2-.39-.43.01-.23.2-.4.43-.39,5.97.29,11.67,3.17,15.27,7.73,4.59,5.81,5.64,14.25,2.62,21-3.02,6.75-10,11.6-17.39,12.06,0,0-.02,0-.03,0"/>
      <path d="M518.34,228.02c-.08,0-.15-.02-.22-.06-.19-.12-.25-.38-.13-.57,5.65-8.94,9.36-19.14,10.74-29.51,1.85-13.99-.51-28.69-6.66-41.39-.87-1.8-1.79-3.44-2.73-4.87-.12-.19-.07-.44.12-.57.19-.12.45-.07.57.12.97,1.48,1.88,3.1,2.79,4.96,6.22,12.84,8.61,27.71,6.74,41.86-1.39,10.49-5.14,20.8-10.86,29.84-.08.12-.21.19-.35.19"/>
      <path class="cls-5" d="M441.95,319.59h-65.7c-7.75,0-14.09-6.34-14.09-14.09v-13.41c0-7.75,6.34-14.09,14.09-14.09h65.7c7.75,0,14.09,6.34,14.09,14.09v13.41c0,7.75-6.34,14.09-14.09,14.09"/>
      <path d="M441.95,320h-65.7c-8,0-14.5-6.5-14.5-14.5v-13.41c0-8,6.5-14.5,14.5-14.5h65.7c8,0,14.5,6.5,14.5,14.5v13.41c0,8-6.5,14.5-14.5,14.5M376.25,278.42c-7.54,0-13.68,6.14-13.68,13.68v13.41c0,7.54,6.14,13.68,13.68,13.68h65.7c7.54,0,13.68-6.14,13.68-13.68v-13.41c0-7.54-6.14-13.68-13.68-13.68h-65.7Z"/>
      <path d="M443.84,289.6h-68.62c-.23,0-.41-.18-.41-.41s.18-.41.41-.41h68.62c.23,0,.41.19.41.41s-.18.41-.41.41"/>
      <path d="M432.13,299.06h-49.11c-.23,0-.41-.18-.41-.41s.18-.41.41-.41h49.11c.23,0,.41.19.41.41s-.18.41-.41.41"/>
      <path d="M416.53,308.52h-41.31c-.23,0-.41-.18-.41-.41s.18-.41.41-.41h41.31c.23,0,.41.18.41.41s-.18.41-.41.41"/>
      <path class="cls-5" d="M473.16,412.79h-96.91c-7.75,0-14.09-6.34-14.09-14.09v-13.41c0-7.75,6.34-14.09,14.09-14.09h96.91c7.75,0,14.09,6.34,14.09,14.09v13.41c0,7.75-6.34,14.09-14.09,14.09"/>
      <path d="M473.16,413.2h-96.91c-8,0-14.5-6.5-14.5-14.5v-13.41c0-8,6.5-14.5,14.5-14.5h96.91c8,0,14.5,6.5,14.5,14.5v13.41c0,8-6.5,14.5-14.5,14.5M376.25,371.62c-7.54,0-13.68,6.14-13.68,13.68v13.41c0,7.54,6.14,13.68,13.68,13.68h96.91c7.54,0,13.68-6.13,13.68-13.68v-13.41c0-7.54-6.14-13.68-13.68-13.68h-96.91Z"/>
      <path d="M475.05,382.8h-99.83c-.23,0-.41-.18-.41-.41s.18-.41.41-.41h99.83c.23,0,.41.19.41.41s-.18.41-.41.41"/>
      <path d="M432.13,392.26h-49.11c-.23,0-.41-.18-.41-.41s.18-.41.41-.41h49.11c.23,0,.41.18.41.41s-.18.41-.41.41"/>
      <path d="M416.53,401.72h-41.31c-.23,0-.41-.18-.41-.41s.18-.41.41-.41h41.31c.23,0,.41.19.41.41s-.18.41-.41.41"/>
      <path class="cls-2" d="M522.71,366.6h-81.3c-8,0-14.5-6.5-14.5-14.5v-13.41c0-8,6.5-14.5,14.5-14.5h81.3c7.99,0,14.5,6.5,14.5,14.5v13.41c0,8-6.51,14.5-14.5,14.5M441.4,325.02c-7.54,0-13.68,6.14-13.68,13.68v13.41c0,7.54,6.14,13.68,13.68,13.68h81.3c7.54,0,13.68-6.13,13.68-13.68v-13.41c0-7.54-6.14-13.68-13.68-13.68h-81.3Z"/>
      <path class="cls-2" d="M524.59,336.2h-84.23c-.23,0-.41-.18-.41-.41s.18-.41.41-.41h84.23c.23,0,.41.19.41.41s-.18.41-.41.41"/>
      <path class="cls-2" d="M512.89,345.66h-64.72c-.23,0-.41-.18-.41-.41s.18-.41.41-.41h64.72c.23,0,.41.18.41.41s-.18.41-.41.41"/>
      <path class="cls-2" d="M497.28,355.12h-56.92c-.23,0-.41-.18-.41-.41s.18-.41.41-.41h56.92c.23,0,.41.18.41.41s-.18.41-.41.41"/>
      <path class="cls-2" d="M522.71,459.7h-56.59c-8,0-14.5-6.5-14.5-14.5v-13.41c0-8,6.5-14.5,14.5-14.5h56.59c7.99,0,14.5,6.5,14.5,14.5v13.41c0,8-6.51,14.5-14.5,14.5M466.12,418.11c-7.54,0-13.68,6.14-13.68,13.68v13.41c0,7.54,6.14,13.68,13.68,13.68h56.59c7.54,0,13.68-6.13,13.68-13.68v-13.41c0-7.54-6.14-13.68-13.68-13.68h-56.59Z"/>
      <path class="cls-2" d="M524.59,429.3h-59.51c-.23,0-.41-.18-.41-.41s.19-.41.41-.41h59.51c.23,0,.41.19.41.41s-.18.41-.41.41"/>
      <path class="cls-2" d="M512.89,438.75h-40c-.23,0-.41-.18-.41-.41s.18-.41.41-.41h40c.23,0,.41.18.41.41s-.18.41-.41.41"/>
      <path class="cls-2" d="M497.28,448.21h-32.2c-.23,0-.41-.18-.41-.41s.18-.41.41-.41h32.2c.23,0,.41.19.41.41s-.18.41-.41.41"/>
      <path class="cls-7" d="M137.87,193.16c-2.66-2.66-6.98-2.66-9.64,0l-2.23,2.23-2.23-2.23c-2.66-2.66-6.98-2.66-9.64,0-2.66,2.66-2.66,6.98,0,9.64l11.88,11.88,11.88-11.88c2.66-2.66,2.66-6.98,0-9.64"/>
      <path class="cls-7" d="M126,215.1c-.11,0-.21-.04-.29-.12l-11.88-11.88c-2.82-2.82-2.82-7.41,0-10.23,1.37-1.37,3.18-2.12,5.11-2.12s3.75.75,5.11,2.12l1.94,1.94,1.94-1.94c1.37-1.37,3.18-2.12,5.11-2.12s3.75.75,5.11,2.12c2.82,2.82,2.82,7.41,0,10.23l-11.88,11.88c-.08.08-.18.12-.29.12M118.94,191.58c-1.71,0-3.32.67-4.53,1.88-2.5,2.5-2.5,6.56,0,9.06l11.59,11.59,11.58-11.59c2.5-2.5,2.5-6.56,0-9.06-1.21-1.21-2.82-1.88-4.53-1.88s-3.32.67-4.53,1.88l-2.23,2.23c-.16.16-.42.16-.58,0l-2.23-2.23c-1.21-1.21-2.82-1.88-4.53-1.88"/>
      <path class="cls-7" d="M107.18,166.85c-2.66-2.66-6.98-2.66-9.64,0l-2.23,2.23-2.23-2.23c-2.66-2.66-6.98-2.66-9.64,0-2.66,2.66-2.66,6.98,0,9.64l11.88,11.88,11.88-11.88c2.66-2.66,2.66-6.98,0-9.64"/>
      <path class="cls-7" d="M95.3,188.78c-.11,0-.21-.04-.29-.12l-11.88-11.88c-2.82-2.82-2.82-7.41,0-10.23,1.37-1.37,3.18-2.12,5.11-2.12s3.75.75,5.11,2.12l1.94,1.94,1.94-1.94c1.37-1.37,3.18-2.12,5.11-2.12s3.75.75,5.11,2.12c2.82,2.82,2.82,7.41,0,10.23l-11.88,11.88c-.08.08-.18.12-.29.12M88.25,165.27c-1.71,0-3.32.67-4.53,1.88-2.5,2.5-2.5,6.56,0,9.06l11.59,11.59,11.58-11.59c2.5-2.5,2.5-6.56,0-9.06-1.21-1.21-2.82-1.88-4.53-1.88s-3.32.67-4.53,1.88l-2.23,2.23c-.16.16-.42.16-.58,0l-2.23-2.23c-1.21-1.21-2.82-1.88-4.53-1.88"/>
      <path class="cls-7" d="M146.65,140.54c-2.66-2.66-6.98-2.66-9.64,0l-2.23,2.23-2.23-2.23c-2.66-2.66-6.98-2.66-9.64,0s-2.66,6.98,0,9.64l11.88,11.88,11.88-11.88c2.66-2.66,2.66-6.98,0-9.64"/>
      <path class="cls-7" d="M134.77,162.47c-.11,0-.21-.04-.29-.12l-11.88-11.88c-2.82-2.82-2.82-7.41,0-10.23,1.37-1.37,3.18-2.12,5.11-2.12s3.75.75,5.11,2.12l1.94,1.94,1.94-1.94c1.37-1.37,3.18-2.12,5.11-2.12s3.75.75,5.11,2.12c2.82,2.82,2.82,7.41,0,10.23l-11.88,11.88c-.08.08-.18.12-.29.12M127.71,138.95c-1.71,0-3.32.67-4.53,1.88-2.5,2.5-2.5,6.56,0,9.06l11.59,11.58,11.58-11.58c2.5-2.5,2.5-6.56,0-9.06-1.21-1.21-2.82-1.88-4.53-1.88s-3.32.67-4.53,1.88l-2.23,2.23c-.16.16-.42.16-.58,0l-2.23-2.23c-1.21-1.21-2.82-1.88-4.53-1.88"/>
      <path class="cls-7" d="M118.9,241.48c-2.66-2.66-6.98-2.66-9.64,0l-2.23,2.23-2.23-2.23c-2.66-2.66-6.98-2.66-9.64,0-2.66,2.66-2.66,6.98,0,9.64l11.88,11.88,11.88-11.88c2.66-2.66,2.66-6.98,0-9.64"/>
      <path class="cls-7" d="M107.03,263.41c-.11,0-.21-.04-.29-.12l-11.88-11.88c-2.82-2.82-2.82-7.41,0-10.23,1.37-1.37,3.18-2.12,5.11-2.12s3.75.75,5.11,2.12l1.94,1.94,1.94-1.94c1.37-1.37,3.18-2.12,5.11-2.12s3.75.75,5.11,2.12c2.82,2.82,2.82,7.41,0,10.23l-11.88,11.88c-.08.08-.18.12-.29.12M99.97,239.89c-1.71,0-3.32.67-4.53,1.88-1.21,1.21-1.88,2.82-1.88,4.53s.67,3.32,1.88,4.53l11.59,11.59,11.58-11.59c1.21-1.21,1.88-2.82,1.88-4.53s-.67-3.32-1.88-4.53c-1.21-1.21-2.82-1.88-4.53-1.88s-3.32.67-4.53,1.88l-2.23,2.23c-.08.08-.18.12-.29.12s-.21-.04-.29-.12l-2.23-2.23c-1.21-1.21-2.82-1.88-4.53-1.88"/>
      <path class="cls-7" d="M151.33,226.32c-2.66-2.66-6.98-2.66-9.64,0l-2.23,2.23-2.23-2.23c-2.66-2.66-6.98-2.66-9.64,0-2.66,2.66-2.66,6.98,0,9.64l11.88,11.88,11.88-11.88c2.66-2.66,2.66-6.98,0-9.64"/>
      <path class="cls-7" d="M139.46,248.25c-.11,0-.21-.04-.29-.12l-11.88-11.88c-2.82-2.82-2.82-7.41,0-10.23,1.37-1.37,3.18-2.12,5.11-2.12s3.75.75,5.11,2.12l1.94,1.94,1.94-1.94c1.37-1.37,3.18-2.12,5.11-2.12s3.75.75,5.11,2.12c2.82,2.82,2.82,7.41,0,10.23l-11.88,11.88c-.08.08-.18.12-.29.12M132.4,224.73c-1.71,0-3.32.67-4.53,1.88-2.5,2.5-2.5,6.56,0,9.06l11.59,11.59,11.58-11.59c2.5-2.5,2.5-6.56,0-9.06-1.21-1.21-2.82-1.88-4.53-1.88s-3.32.67-4.53,1.88l-2.23,2.23c-.16.16-.42.16-.58,0l-2.23-2.23c-1.21-1.21-2.82-1.88-4.53-1.88"/>
    </g>
  </g>
</svg>