<?xml version="1.0" encoding="UTF-8"?>
<svg id="_レイヤー_2" data-name="レイヤー 2" xmlns="http://www.w3.org/2000/svg" xmlns:xlink="http://www.w3.org/1999/xlink" viewBox="0 0 618.45 618.46">
  <defs>
    <style>
      .cls-1 {
        fill: none;
      }

      .cls-2 {
        fill: #f4eae2;
      }

      .cls-3 {
        fill: #9dd3db;
      }

      .cls-4 {
        fill: #3d3d3d;
      }

      .cls-5 {
        fill: url(#_名称未設定グラデーション_9);
      }

      .cls-6 {
        clip-path: url(#clippath-1);
      }

      .cls-7 {
        fill: #fff;
      }

      .cls-8 {
        opacity: .1;
      }

      .cls-9 {
        fill: #fed6ce;
      }

      .cls-10 {
        clip-path: url(#clippath);
      }
    </style>
    <clipPath id="clippath">
      <rect class="cls-1" width="618.45" height="618.46"/>
    </clipPath>
    <clipPath id="clippath-1">
      <path class="cls-1" d="M618.45,309.23c0,170.78-138.45,309.23-309.23,309.23S0,480.01,0,309.23,138.44,0,309.23,0s309.23,138.45,309.23,309.23"/>
    </clipPath>
    <linearGradient id="_名称未設定グラデーション_9" data-name="名称未設定グラデーション 9" x1="-1009.45" y1="7490.65" x2="-1008.45" y2="7490.65" gradientTransform="translate(624300.53 4632949.33) scale(618.46 -618.46)" gradientUnits="userSpaceOnUse">
      <stop offset="0" stop-color="#a8b6ff"/>
      <stop offset=".48" stop-color="#70c0ff"/>
      <stop offset="1" stop-color="#47e5c5"/>
    </linearGradient>
  </defs>
  <g id="_レイヤー_1-2" data-name="レイヤー 1">
    <g>
      <g class="cls-8">
        <g class="cls-10">
          <g class="cls-6">
            <rect class="cls-5" x="0" y="0" width="618.46" height="618.46"/>
          </g>
        </g>
      </g>
      <path class="cls-4" d="M292.75,195.48c-.1,0-.2-.03-.29-.09l-26.87-17.75c-.25-.16-.31-.49-.15-.74s.49-.31.74-.15l26.87,17.75c.25.16.31.49.15.74-.1.15-.27.24-.44.24"/>
      <path class="cls-4" d="M289,204.18c-.06,0-.12,0-.18-.03l-86.18-29.84c-.28-.1-.43-.4-.33-.68.1-.28.4-.43.68-.33l86.18,29.84c.28.1.43.4.33.68-.08.22-.28.36-.5.36"/>
      <path class="cls-4" d="M285.34,209.93s-.05,0-.08,0l-63.17-9.58c-.29-.04-.49-.32-.45-.61.04-.29.32-.49.61-.45l63.17,9.58c.29.04.49.32.45.61-.04.26-.27.45-.53.45"/>
      <path class="cls-4" d="M353.55,185.03c-.32-1.55-.64-3.16-.09-4.68.48-1.31,1.61-2.51,1.67-3.87.06-1.48-1.21-2.85-2.87-3.7-1.65-.84-3.65-1.24-5.61-1.54-4.61-.72-9.34-1.04-14.06-.96-3.72.06-7.63.44-10.57,2.11-2.92,1.66-4.4,4.31-5.56,6.88-3.39,7.57-5,15.5-6.59,23.38-.26,1.3-.51,2.67.17,3.88.97,1.71,3.5,2.6,5.87,3.22,10.03,2.63,20.89,3.12,31.52,2.64,2.59-.12,5.28-.31,7.48-1.32,5.13-2.35,2.45-7.72,1.71-11.22-1.03-4.93-2.05-9.87-3.08-14.8"/>
      <path class="cls-7" d="M424.12,233.96c6.95,6.94,18.6,5.32,23.45-3.22,4.97-8.76,10.74-20.31,14.47-32.21,0,0,10.23-.62,9.99-5.96,0,0,5.18-1.39,3.2-8.9,0,0,.06-8.93-2.71-9.36-2.78-.43-3.9,1.19-2.88,5.48,0,0-4.15,1.92-8.24.19-1.27-.54-2.95-7.35-2.67-8.24.49-1.51,2.84-4.44,1.94-7.71-1.04-3.77-5.12-2.21-7.28,1.71-1.26,2.29-19.92,30.75-24.73,41.58,0,0-11.83,19.38-4.54,26.65"/>
      <path class="cls-4" d="M434.56,238.65c-4,0-7.81-1.56-10.69-4.44-.69-.69-1.36-1.37-2.02-2.04-.14-.14-.14-.37,0-.5.14-.14.36-.14.5,0,.66.67,1.33,1.35,2.02,2.03,3.22,3.22,7.67,4.71,12.19,4.1,4.54-.62,8.44-3.26,10.71-7.24,6.48-11.41,11.34-22.22,14.44-32.14.04-.14.17-.24.32-.25.1,0,9.88-.66,9.66-5.59,0-.17.1-.32.26-.36.2-.05,4.81-1.4,2.95-8.46,0-.03-.01-.06-.01-.09.02-3.33-.61-8.73-2.41-9.01-1.06-.17-1.83,0-2.27.48-.68.74-.75,2.27-.2,4.56.04.16-.04.33-.2.4-.18.08-4.34,1.97-8.53.2-1.5-.64-3.29-7.42-2.97-8.39.12-.37.36-.83.63-1.37.9-1.76,2.25-4.41,1.18-7.07-.3-.75-.79-1.16-1.47-1.22-1.48-.13-3.56,1.42-4.94,3.68-.11.19-.4.65-.84,1.35-15.1,24.25-21.56,35.81-24.32,41.24-.09.17-.3.25-.48.16-.17-.09-.24-.3-.16-.48,2.76-5.44,9.23-17.02,24.35-41.3.43-.69.72-1.16.83-1.34,1.54-2.51,3.84-4.17,5.6-4.02.66.06,1.56.39,2.07,1.66,1.18,2.96-.26,5.79-1.21,7.66-.26.51-.48.95-.59,1.27-.24.75,1.54,7.08,2.57,7.52,3.31,1.4,6.73.29,7.69-.08-.53-2.41-.39-4.02.44-4.91.62-.67,1.59-.91,2.91-.7,2.95.46,3.02,8.52,3.01,9.67,1.76,6.72-2.12,8.76-3.19,9.19-.07,4.98-8.48,5.92-10.08,6.05-3.12,9.91-7.97,20.69-14.42,32.05-2.37,4.18-6.47,6.95-11.23,7.6-.7.09-1.4.14-2.09.14"/>
      <path class="cls-4" d="M472,192.39c-.17,0-.32-.13-.35-.3-.32-2.14-1.11-4.25-2.27-6.08-.42-.66-1.07-1.56-1.98-1.74-1.2-.24-2.36.91-2.64,2.09-.32,1.33.08,2.76.44,4.02.03.1.01.2-.04.29s-.14.14-.24.16l-6.23,1.11c-.2.04-.38-.09-.41-.29-.04-.19.09-.38.29-.41l5.84-1.04c-.33-1.21-.67-2.64-.34-4,.37-1.53,1.85-2.95,3.47-2.62,1.18.24,1.96,1.29,2.45,2.06,1.21,1.92,2.03,4.11,2.37,6.35.03.19-.1.38-.3.4-.02,0-.04,0-.05,0"/>
      <path class="cls-4" d="M454.83,188.33c-.07,0-.13-.02-.19-.06-.17-.1-.21-.33-.11-.49,1.68-2.64,1.82-6.26.34-9.02-.09-.17-.03-.39.15-.48.17-.09.39-.03.48.15,1.62,3.02,1.48,6.85-.37,9.74-.07.11-.18.16-.3.16"/>
      <path class="cls-3" d="M237.13,259.36s10.42,25.88,34.28,25.19c23.86-.69,35.79-17.86,35.79-17.86,0,0-7.06,21.64.73,27.42,7.8,5.78,64.02,11.37,67.93-6.36,2.79-12.68.48-21.08,1.92-31.16,0,0,38.94,4.75,58.45-10.12,12.36-9.42,21.34-32.08,21.34-32.08,0,0-7.98-17.01-24.09-17.63l-8.78,12.32c-4.89,6.86-12.72,11.01-21.14,11.21l-94.55,2.27c-9.79.23-18.91,5.13-24.4,13.24-6.03,8.91-15.74,18.95-28.38,17.54l-19.09,6.02Z"/>
      <path class="cls-4" d="M377.45,255.35c-.2,0-.35-.16-.36-.35-.04-4.67.94-9.39,2.84-13.66.08-.18.29-.26.47-.18.18.08.26.29.18.47-1.86,4.18-2.82,8.8-2.78,13.37,0,.2-.16.36-.35.36h0Z"/>
      <path class="cls-4" d="M331.62,267.04c-1.42,0-2.85-.2-4.22-.61-3.59-1.08-6.71-3.56-8.57-6.81-.1-.17-.04-.39.13-.48.17-.1.39-.04.48.13,1.77,3.09,4.74,5.46,8.15,6.48,3.42,1.03,7.2.69,10.38-.92.18-.09.39-.02.48.16.09.17.02.39-.16.48-2.07,1.04-4.38,1.58-6.68,1.58"/>
      <path class="cls-4" d="M361.46,263.88c-.17,0-.32-.12-.35-.3-.03-.19.1-.38.3-.41,5.04-.79,9.37-5.18,10.08-10.23.45-3.18-.51-6.54-2.62-9.22-.12-.15-.1-.38.06-.5.15-.12.38-.09.5.06,2.23,2.83,3.24,6.38,2.76,9.76-.75,5.34-5.34,10-10.68,10.83-.02,0-.04,0-.05,0"/>
      <path class="cls-4" d="M307.5,264.56s-.03,0-.04,0c-.19-.02-.33-.2-.31-.4.28-2.3.57-4.68.06-6.96-.43-1.93-1.71-4.28-4-5.08-.19-.06-.28-.27-.22-.45.06-.19.27-.29.45-.22,2.15.75,3.86,2.89,4.46,5.6.53,2.4.24,4.84-.05,7.2-.02.18-.18.31-.35.31"/>
      <path class="cls-7" d="M270.08,266.69h-38.15c-.5,0-.96-.28-1.18-.73l-25.8-51.78c-.44-.88.2-1.91,1.18-1.91h38.15c.5,0,.96.28,1.18.73l25.8,51.78c.44.88-.2,1.91-1.18,1.91"/>
      <path class="cls-4" d="M231.93,267.05c-.64,0-1.22-.36-1.5-.93l-25.8-51.78c-.26-.52-.23-1.13.08-1.63.31-.5.84-.79,1.43-.79h38.15c.64,0,1.22.36,1.5.93l19.65,39.45c.09.18.02.39-.16.48-.18.09-.39.02-.48-.16l-19.65-39.44c-.17-.33-.5-.54-.86-.54h-38.15c-.34,0-.64.17-.82.46-.18.29-.19.64-.04.94l25.8,51.78c.16.33.5.54.86.54l9.26-.03h0c.2,0,.35.16.36.35,0,.2-.16.36-.35.36l-9.26.03Z"/>
      <path class="cls-7" d="M228.42,236.73c-.85-.35-1.7.46-2.21,1.22-1.4,2.07-2.39,4.4-2.93,6.83.42-4.54.84-9.08,1.26-13.62.14-1.46-.07-3.41-1.51-3.69-1.11-.22-2.05.82-2.63,1.8-1.19,2-1.99,4.22-2.35,6.52.54-3.14,1.08-6.27,1.61-9.41.12-.73.24-1.51-.09-2.17-.7-1.41-3-1.15-3.96.1-.15.19-.27.39-.37.6.05-.21.1-.43.14-.64.28-1.53-.18-3.52-1.7-3.87-.94-.22-1.94.33-2.5,1.12-.56.79-.78,1.77-.93,2.73-.65,4.15-.3,8.45.97,12.46,2.34,9.4,8.86,17.92,16.7,23.61-1.96-6.98,1.15-14.22,1.35-21.47.02-.8-.11-1.79-.86-2.1"/>
      <path class="cls-4" d="M227.93,260.65c-.07,0-.15-.02-.21-.07-8.46-6.15-14.59-14.83-16.84-23.81-1.29-4.06-1.63-8.42-.98-12.6.16-.99.38-2.03.99-2.88.59-.83,1.71-1.53,2.87-1.26,1.44.34,2.11,1.96,2.05,3.56.63-.5,1.49-.77,2.31-.69.81.08,1.44.48,1.76,1.14.39.79.23,1.71.12,2.39l-.71,4.13c.24-.51.5-1,.79-1.48.88-1.47,1.94-2.17,3.01-1.96,1.34.26,2.01,1.79,1.8,4.08l-.95,10.26c.53-1.3,1.19-2.55,1.97-3.7.81-1.19,1.8-1.7,2.64-1.35.52.21,1.12.81,1.08,2.44-.07,2.69-.55,5.4-1.01,8.01-.81,4.63-1.58,9.01-.35,13.35.04.15-.02.3-.14.39-.06.04-.13.06-.2.06M213.26,220.68c-.72,0-1.41.5-1.79,1.02-.52.73-.72,1.67-.87,2.58-.64,4.07-.31,8.32.96,12.29,2.14,8.56,7.86,16.83,15.78,22.85-.91-4.2-.15-8.51.58-12.69.45-2.59.92-5.28,1-7.91.02-.67-.08-1.53-.64-1.76-.6-.25-1.31.4-1.78,1.09-1.36,2.01-2.35,4.33-2.87,6.71-.04.18-.22.3-.4.28-.19-.03-.32-.2-.3-.39l1.26-13.62c.07-.71.17-3.04-1.23-3.31-1.04-.2-1.93,1.07-2.26,1.63-1.08,1.81-1.84,3.85-2.23,5.93l-.08.46c-.03.19-.21.32-.41.29-.19-.03-.32-.21-.29-.41.03-.16.05-.31.08-.47l1.54-8.94c.13-.75.21-1.41-.05-1.95-.29-.58-.87-.72-1.2-.75-.81-.08-1.69.29-2.16.9-.12.16-.23.34-.33.54-.08.16-.27.23-.44.17-.17-.06-.26-.24-.22-.42.05-.21.1-.41.14-.62.23-1.25-.06-3.14-1.43-3.46-.12-.03-.23-.04-.35-.04"/>
      <path class="cls-4" d="M213.35,237.04c-.18,0-.33-.13-.35-.31-.45-3.8.1-7.67,1.6-11.19.08-.18.29-.26.46-.19.18.08.27.29.19.47-1.44,3.41-1.98,7.15-1.54,10.83.02.2-.12.37-.31.4-.01,0-.03,0-.04,0"/>
      <path class="cls-4" d="M218.2,243.58c-.17,0-.32-.12-.35-.29-.41-2.19-.48-4.43-.2-6.64.02-.2.2-.34.4-.31.19.02.33.2.31.4-.27,2.14-.2,4.3.2,6.42.04.19-.09.38-.28.42-.02,0-.04,0-.07,0"/>
      <path class="cls-7" d="M331.89,199.35l-2.76,19.95c-.15,1.06-.97,1.9-2.03,2.07l-6.17.99s16.6,14.61,33.21-.65l-6.38-.73c-1.3-.15-2.28-1.26-2.25-2.57l.28-16.43s-1.44-10.88-13.89-2.63"/>
      <path class="cls-7" d="M354.14,221.71l-6.38-.73c-1.3-.15-2.27-1.26-2.25-2.57l.28-16.43s-1.44-10.88-13.89-2.63l-2.76,19.95c-.15,1.06-.97,1.9-2.03,2.07l-6.16.99,33.21-.65Z"/>
      <path class="cls-4" d="M320.93,222.72c-.17,0-.32-.12-.35-.3-.03-.19.1-.38.3-.41l6.16-.99c.91-.15,1.6-.86,1.73-1.77l2.76-19.95c.01-.1.07-.19.16-.25,4.45-2.95,8.05-3.83,10.69-2.63,3.18,1.45,3.73,5.35,3.75,5.51,0,.02,0,.04,0,.05l-.28,16.43c-.02,1.13.81,2.08,1.94,2.21l6.38.73c.2.02.34.2.31.39-.02.19-.2.34-.39.31l-6.38-.73c-1.49-.17-2.59-1.43-2.57-2.93l.28-16.4c-.05-.32-.64-3.71-3.34-4.94-2.38-1.08-5.7-.24-9.87,2.49l-2.74,19.79c-.17,1.22-1.1,2.18-2.32,2.37l-6.17.99s-.04,0-.06,0"/>
      <path class="cls-7" d="M327.55,194.16c-1.15.9-1.67,2.47-1.41,3.9.25,1.43,1.22,2.69,2.47,3.44,1.25.75,2.75,1,4.2.87.8-.07,1.63-.26,2.38.02.58.22,1.03.68,1.5,1.08,2.22,1.92,5.34,2.78,8.22,2.18,2.87-.6,5.42-2.68,6.48-5.42.88-2.26.76-4.78.37-7.17-.74-4.58-2.4-8.96-4.31-13.19-3.32.77-6.81.83-10.15.15.89,2.62.8,5.56-.25,8.12-.8,1.95-2.15,3.67-3.85,4.92-.34.25-.88.75-1.3.84-.53.11-.86-.24-1.4-.37-1.01-.25-2.14,0-2.95.63"/>
      <path class="cls-4" d="M343.08,206.19c-2.38,0-4.79-.87-6.62-2.46-.08-.07-.16-.14-.24-.21-.38-.34-.73-.65-1.15-.81-.53-.19-1.13-.12-1.76-.05-.16.02-.31.04-.47.05-1.61.15-3.18-.18-4.42-.92-1.39-.83-2.38-2.21-2.64-3.68-.28-1.6.34-3.3,1.55-4.25.9-.7,2.14-.97,3.26-.69.23.06.42.14.59.22.28.13.44.2.65.15.25-.05.63-.35.91-.58.09-.07.18-.14.26-.2,1.67-1.23,2.95-2.88,3.73-4.77,1.01-2.47,1.1-5.34.24-7.87-.04-.12-.01-.25.07-.35.08-.1.21-.14.34-.11,3.28.66,6.74.61,9.99-.15.16-.04.33.05.41.2,1.59,3.52,3.52,8.21,4.34,13.28.31,1.93.61,4.79-.39,7.36-1.09,2.8-3.73,5.01-6.74,5.64-.62.13-1.26.19-1.9.19M334.26,201.88c.35,0,.7.04,1.05.17.55.2.97.58,1.38.94.08.07.15.14.23.2,2.16,1.87,5.19,2.67,7.91,2.1,2.78-.58,5.22-2.62,6.22-5.2.94-2.41.65-5.14.35-6.99-.79-4.86-2.62-9.39-4.17-12.84-3.08.68-6.32.75-9.43.2.72,2.54.57,5.35-.44,7.79-.82,2.01-2.2,3.76-3.96,5.07-.07.05-.15.12-.24.18-.35.28-.79.63-1.2.72-.45.1-.79-.06-1.1-.2-.15-.07-.3-.14-.47-.18-.9-.22-1.92,0-2.65.56-1.01.78-1.52,2.22-1.28,3.56.22,1.27,1.08,2.47,2.3,3.19,1.11.67,2.53.96,3.99.82.15-.01.3-.03.45-.05.34-.04.69-.08,1.04-.08"/>
      <path class="cls-4" d="M332.73,200.34c-.12,0-.24-.06-.3-.17-.53-.88-1.54-1.47-2.57-1.51-.2,0-.35-.17-.34-.37,0-.2.18-.36.37-.34,1.28.04,2.49.75,3.16,1.85.1.17.05.39-.12.49-.06.04-.12.05-.18.05"/>
      <path class="cls-7" d="M368.54,374.2l-1.82-79.49c-1.48-4.24-5.53-7.05-10.02-6.95l-37.55.78c-4.35.09-8.17,2.88-9.6,6.98-1.02,2.93-22.57,62.38-29.44,78.68,14.72,0,72.19-.04,88.44,0"/>
      <path class="cls-4" d="M280.1,374.98s-.08,0-.12-.02c-.18-.07-.28-.27-.21-.46.28-.76,28.43-76.21,29.44-79.1.06-.19.27-.28.45-.22.18.06.28.27.22.45-1.01,2.9-29.16,78.36-29.45,79.12-.05.14-.19.23-.33.23"/>
      <path class="cls-4" d="M368.54,374.98c-.19,0-.35-.15-.36-.35l-1.82-79.92c0-.2.15-.36.35-.36h0c.19,0,.35.15.36.35l1.82,79.92c0,.2-.15.36-.35.36h0Z"/>
      <path class="cls-4" d="M394.29,375.25h-129.99c-.2,0-.36-.16-.36-.35s.16-.36.36-.36h129.99c.2,0,.36.16.36.36s-.16.35-.36.35"/>
      <path class="cls-7" d="M543.13,408.13s11.98,29.48-20.79,32.58l-18.49-38.17,31.85-5.26,7.44,10.85Z"/>
      <path class="cls-4" d="M535.36,398.05l7.14,10.41c.39,1.01,4.77,12.86-.6,21.72-3.34,5.51-9.78,8.79-19.13,9.77l-17.86-36.87,30.46-5.03ZM535.69,397.28l-31.85,5.26,18.5,38.17c32.77-3.11,20.79-32.58,20.79-32.58l-7.44-10.85Z"/>
      <polygon class="cls-4" points="363.02 404.13 417.79 404.13 382.67 326.76 327.9 326.76 363.02 404.13"/>
      <path class="cls-9" d="M536.31,456.63l-108.78-.09-16.64-39.98-38.84-17.06s2.34-49.44,23.44-59.61c21.1-10.17,75.94-7.28,98.6.63,22.66,7.9,46.96,58.19,49.04,67.61h-27.84l21.02,48.5Z"/>
      <path class="cls-4" d="M518.28,415.45c-.14,0-.28-.09-.33-.23l-10.54-28.1c-.81-2.15-.93-4.45-.37-6.68l.43-1.7c.05-.19.24-.31.43-.26.19.05.3.24.26.43l-.43,1.7c-.53,2.08-.41,4.24.34,6.25l10.54,28.1c.07.18-.02.39-.21.46-.04.02-.08.02-.12.02"/>
      <path class="cls-4" d="M419.95,417.24s-.07,0-.11-.02c-.19-.06-.29-.26-.23-.45l7.66-23.75c.24-.75.57-1.77,1.37-2.37.48-.36,1.17-.48,1.75-.32.47.13.81.43.97.85.07.18-.02.39-.2.46-.18.07-.39-.02-.46-.2-.1-.26-.33-.37-.51-.42-.37-.1-.83-.02-1.13.2-.57.43-.85,1.17-1.12,2.02l-7.66,23.75c-.05.15-.19.25-.34.25"/>
      <path class="cls-7" d="M416.29,418.99l-44.25-19.5-34.31-51.25,2.98-4.29c1.36-1.96-.04-4.64-2.42-4.64h-1.66s-9.61,4.14-6.69,16.26c2.93,12.12,5.85,15.69,5.85,15.69,0,0-3.55,69.44,27.38,82.35,37.37,15.59,53.11-34.62,53.11-34.62"/>
      <path class="cls-4" d="M377.1,456.97c-4.52,0-9.21-1.01-14.05-3.02-7.14-2.98-13.03-9.2-17.51-18.48-3.57-7.4-6.26-16.75-7.99-27.8-2.81-17.93-2.17-34.63-2.1-36.28-.52-.7-3.17-4.66-5.84-15.72-2.96-12.27,6.79-16.63,6.89-16.67.04-.02.09-.03.14-.03h1.66c1.26,0,2.35.66,2.93,1.78.58,1.11.5,2.39-.22,3.42l-2.85,4.09,34.18,51.05c.11.16.07.38-.1.49-.16.11-.38.07-.49-.1l-34.31-51.25c-.08-.12-.08-.28,0-.4l2.98-4.29c.56-.81.63-1.81.17-2.69-.46-.87-1.32-1.4-2.3-1.4h-1.58c-.89.41-9.14,4.53-6.42,15.83,2.86,11.86,5.75,15.51,5.78,15.54.06.07.08.16.08.24,0,.17-.85,17.55,2.09,36.27,1.73,10.98,4.39,20.26,7.93,27.6,4.4,9.12,10.17,15.23,17.15,18.13,9.28,3.87,18.02,3.96,25.98.25,18.27-8.51,26.57-34.39,26.65-34.65.06-.19.26-.29.44-.23.19.06.29.26.23.45-.08.26-8.47,26.43-27.03,35.08-3.99,1.86-8.17,2.79-12.51,2.79"/>
      <path class="cls-4" d="M367.36,413.21s-.08,0-.12-.02c-.19-.07-.28-.27-.22-.45l4.69-13.36c.06-.19.27-.28.45-.22.18.06.28.27.22.45l-4.69,13.36c-.05.15-.19.24-.33.24"/>
      <path class="cls-4" d="M445.5,298.01s-10.14-23.04-20.14-18.36c-10.68,4.99-2.44,10.74-2.44,10.74,0,0-3.89,4.52,4.7,6.06,1.84.33,8.08,5.35,9.89,5.56,6.62.75,8-3.99,8-3.99"/>
      <path class="cls-4" d="M414.78,318.59c.12-1.39.42-3.15.85-5.12,3.52,1.96,8.86,4.17,12.03,1.78,5.04-3.79,7.92-17.06,7.92-17.06l-11.35-9.69,21.88,9.47s12.73,22.69-7.25,28.92c-19.98,6.24-24.78.13-24.08-8.3"/>
      <path class="cls-7" d="M427.66,315.25c-3.17,2.38-8.51.18-12.03-1.78,2.17-10,7.52-25.45,7.52-25.45l1.08.47,9.56,8.16c1.12.96,1.59,2.47,1.2,3.89-1.08,3.99-3.62,11.92-7.33,14.71"/>
      <path class="cls-4" d="M423.57,288.98l.28.12,9.48,8.09c.91.77,1.29,2.01.98,3.16-.92,3.4-3.46,11.61-7.07,14.33-.79.59-1.81.9-3.04.9-2.56,0-5.55-1.29-7.76-2.48,1.93-8.61,6.08-21.01,7.13-24.12M423.14,288.02s-5.35,15.45-7.52,25.45c2.43,1.35,5.72,2.82,8.57,2.82,1.28,0,2.48-.3,3.46-1.04,3.71-2.79,6.25-10.72,7.33-14.71.39-1.42-.09-2.93-1.2-3.89l-9.56-8.16-1.08-.47Z"/>
      <path class="cls-4" d="M444.64,276.14c1.69,1.29,5.11,5.76,6.78,6.2,15.91,4.21,6.71,16.78,8.38,18.35,7.34,6.97-2.07,12.13-4.24,13.3,1.63.84,1.86,3.26.87,4.8-.99,1.54-2.79,2.35-4.55,2.88-2.71.81-5.56,1.12-8.38,1.01-1.74-.07-3.58-.33-4.94-1.42-1.68-1.33-2.29-3.59-2.63-5.71-.74-4.56-.73-9.23.03-13.79.33-1.99-11.32-16.21-11.82-18.16-1.56-6.14,6.91-17.83,20.51-7.46"/>
      <path class="cls-7" d="M457.74,337.69c-3.49,1.63-10.51,3.29-20.87-1.78-.87-.43-1.51-1.22-1.74-2.16-.82-3.25-2.79-10.96-3.53-13.28-.95-2.95,2.45-11.79,4.52-14.19s8.41-1.99,9.55,1.76c1.14,3.75-.53,7.4-6.89,6.74l.19,2.22c.16,1.9,1.68,3.39,3.58,3.52,3.83.27,9.84.54,11.59-.17l5.22,13.31c.61,1.56-.1,3.31-1.61,4.02"/>
      <path class="cls-4" d="M459.36,334.03c-.14,0-.28-.09-.33-.23l-5.09-13c-2.06.58-7.27.37-11.41.08-2.09-.15-3.73-1.76-3.91-3.85l-.19-2.22c0-.1.03-.21.1-.28.08-.07.18-.11.29-.1,2.8.29,4.85-.26,5.95-1.59.94-1.14,1.14-2.81.57-4.69-.43-1.41-1.75-2.45-3.61-2.84-2.1-.44-4.34.07-5.33,1.21-2.09,2.42-5.35,11.06-4.45,13.85.66,2.06,2.29,8.4,3.2,11.99.05.19-.07.38-.26.43-.19.05-.38-.07-.43-.26-.91-3.58-2.54-9.9-3.19-11.94-1.03-3.21,2.58-12.21,4.59-14.53,1.17-1.35,3.65-1.95,6.02-1.44,2.13.45,3.64,1.67,4.14,3.33.65,2.12.4,4.02-.7,5.35-.84,1.02-2.58,2.15-6.14,1.88l.16,1.8c.15,1.73,1.52,3.08,3.25,3.2,6.1.43,10.16.37,11.43-.15.09-.04.19-.04.27,0,.09.04.16.11.19.2l5.21,13.31c.07.18-.02.39-.2.46-.04.02-.09.02-.13.02"/>
      <path class="cls-4" d="M436.37,313.4s-.09,0-.13-.02c-.18-.07-.27-.28-.2-.46.57-1.47,1.89-2.59,3.42-2.93.19-.04.38.08.42.27.04.19-.08.38-.27.42-1.29.29-2.43,1.27-2.91,2.5-.06.14-.19.23-.33.23"/>
      <path class="cls-4" d="M161.39,219.02c-.2,0-.36-.16-.36-.35v-24.32l-32.22-12.62v26.33c0,.2-.16.35-.36.35s-.36-.16-.36-.35v-26.85c0-.12.06-.23.16-.29.1-.07.22-.08.33-.04l32.93,12.9c.14.05.23.18.23.33v24.56c0,.2-.16.35-.35.35"/>
      <path class="cls-4" d="M134.66,194.66c-12.14-4.51-25.64,1.67-30.15,13.81-4.51,12.14,1.67,25.64,13.81,30.15l41.56,15.45,16.35-43.96-41.55-15.45Z"/>
      <path class="cls-7" d="M190.02,240.26c-4.51,12.14-18.02,18.32-30.15,13.81-12.14-4.51-18.32-18.01-13.81-30.15,4.51-12.14,18.01-18.32,30.15-13.81,12.14,4.52,18.32,18.02,13.81,30.15"/>
      <path class="cls-4" d="M168.02,255.9c-2.75,0-5.55-.48-8.27-1.49-12.3-4.58-18.59-18.31-14.02-30.61,2.22-5.96,6.62-10.7,12.4-13.35,5.78-2.65,12.25-2.88,18.21-.67,12.3,4.58,18.59,18.31,14.02,30.61-3.56,9.58-12.67,15.51-22.34,15.51M168.03,208.98c-3.27,0-6.54.71-9.6,2.11-5.61,2.57-9.88,7.17-12.03,12.95-4.44,11.94,1.66,25.26,13.6,29.7,2.64.98,5.36,1.45,8.03,1.45,9.38,0,18.22-5.75,21.67-15.05,2.15-5.78,1.92-12.06-.65-17.66s-7.17-9.88-12.95-12.03c-2.62-.98-5.35-1.46-8.06-1.46"/>
      <path class="cls-4" d="M147.14,188.72c-.2,0-.36-.16-.36-.35v-26.52c0-.2.16-.35.36-.35s.35.16.35.35v26.52c0,.2-.16.35-.35.35"/>
      <path class="cls-9" d="M103.03,456.58l32.57-115.71s34.05-4.77,61.43,3.68l13.62,112.04h-107.61Z"/>
      <path class="cls-7" d="M197.02,344.54c-19.03,36.61-16.4,64.18-8.93,66.35,7.47,2.17,14.6-10.08,14.6-10.08,2.35,1.84,5.9,4.01,10.17,6.02,11.9-13.54,15.57-34.43,16.67-44.13-14.45-11.08-32.51-18.17-32.51-18.17"/>
      <path class="cls-4" d="M212.86,407.19c-.05,0-.1-.01-.15-.03-3.09-1.46-5.97-3.07-8.33-4.67-.16-.11-.2-.33-.09-.49.11-.16.33-.21.49-.09,2.26,1.54,5.02,3.09,7.98,4.5,11.8-13.6,15.38-34.8,16.38-43.53-14.22-10.85-32.08-17.92-32.26-17.99-.18-.07-.27-.28-.2-.46.07-.18.28-.27.46-.2.18.07,18.27,7.23,32.6,18.21.1.08.15.2.14.32-1.22,10.83-5.03,30.98-16.76,44.33-.07.08-.17.12-.27.12"/>
      <path class="cls-7" d="M256.91,343.73s6.46-15.27,8.07-21.75c1.61-6.48-10.66-14.54-16.58-14.85-5.92-.31-6.09,6.79-6.09,6.79-6.1-.55-3.85,7-3.85,7-3.33-.86-2.87,4.64-2.87,4.64-3.02.06-1.66,5.24-1.66,5.24-6.21,13.63,1.04,36.46,1.04,36.46-1.72-1.58-3.55-3.09-5.44-4.54-1.1,9.7-4.77,30.59-16.67,44.13,14.06,6.63,36.01,11.6,49.23-1.99,17.23-17.72-5.18-61.12-5.18-61.12"/>
      <path class="cls-4" d="M239.74,413.82c-.65,0-1.3-.01-1.96-.04-10.52-.44-20.22-4.34-25.07-6.62-.1-.05-.17-.14-.2-.25-.02-.11,0-.22.08-.31,12.04-13.69,15.61-35.29,16.58-43.94.02-.13.1-.24.21-.29.12-.05.25-.03.35.04,1.62,1.24,3.13,2.49,4.53,3.72-1.37-4.91-6.01-23.58-.72-35.39-.15-.62-.71-3.36.33-4.75.33-.43.77-.7,1.33-.78-.03-.9.02-3.27,1.23-4.28.43-.36.94-.52,1.54-.47-.27-1.19-.71-4.02.66-5.69.73-.89,1.85-1.32,3.34-1.25.08-.99.48-3.7,2.31-5.39,1.08-1,2.47-1.46,4.13-1.38,4.06.21,11.54,4.2,15.11,9.01,1.64,2.22,2.26,4.39,1.79,6.28-1.52,6.09-7.34,20.04-8.02,21.65.68,1.35,5.8,11.71,9,23.84,4.55,17.22,3.18,30.2-3.96,37.54-5.64,5.79-13.23,8.72-22.6,8.72M213.44,406.72c8.06,3.73,33.25,13.46,48.39-2.11,8.79-9.03,6.91-25.04,3.79-36.87-3.4-12.88-8.97-23.73-9.02-23.84-.05-.09-.05-.2-.01-.3.06-.15,6.46-15.32,8.05-21.7.42-1.68-.16-3.64-1.67-5.69-3.45-4.66-10.67-8.52-14.58-8.72-1.46-.08-2.67.32-3.61,1.19-1.99,1.84-2.1,5.23-2.1,5.26,0,.1-.05.19-.12.26-.07.06-.17.1-.27.09-1.42-.13-2.45.2-3.09.97-1.49,1.81-.4,5.54-.39,5.58.04.12,0,.26-.08.35-.09.09-.22.13-.35.1-.62-.16-1.1-.08-1.47.23-.99.83-1.03,3.19-.96,4.03,0,.1-.03.19-.09.27-.07.07-.16.12-.26.12-.51,0-.88.18-1.14.53-.79,1.05-.4,3.43-.18,4.26.02.08.01.16-.02.24-6.08,13.35.98,35.97,1.05,36.2.05.15-.01.32-.15.41-.14.09-.31.07-.43-.04-1.49-1.37-3.14-2.76-4.92-4.14-1.29,10.86-5.11,30.25-16.37,43.34"/>
      <path class="cls-4" d="M240.13,334.56c-.15,0-.29-.1-.34-.25-.06-.19.05-.39.23-.44,2.86-.9,5.12-3.54,6.91-8.09.25-.63.49-1.28.73-1.93,1.09-2.94,2.22-5.98,4.45-8.22,1.22-1.22,3.25-2.31,4.95-1.37,1.8,1,1.85,3.48,1.73,5.26l-.77,11.77c-.01.2-.18.34-.38.33-.2-.01-.34-.18-.33-.38l.77-11.77c.1-1.59.08-3.79-1.37-4.59-1.27-.71-2.98.12-4.1,1.25-2.13,2.13-3.22,5.1-4.29,7.97-.24.65-.48,1.3-.73,1.94-1.88,4.76-4.28,7.54-7.36,8.5-.04.01-.07.02-.11.02"/>
      <path class="cls-4" d="M239.32,334.71c-.65,0-1.3-.15-1.94-.45-2.39-1.13-3.98-4.08-4.14-5.27-.03-.2.11-.37.31-.4.2-.02.37.11.4.31.14,1.11,1.67,3.74,3.74,4.72,1.26.6,2.52.51,3.76-.27.17-.1.39-.05.49.11.1.17.05.39-.11.49-.81.5-1.65.76-2.5.76"/>
      <path class="cls-4" d="M241.85,331.38c-.97,0-1.95-.23-2.83-.71-2.03-1.1-3.49-3.39-3.81-5.97-.02-.19.11-.37.31-.4.19-.02.37.11.4.31.3,2.36,1.61,4.44,3.44,5.43,1.98,1.07,4.61.71,5.99-.83.13-.15.36-.16.5-.03.15.13.16.36.03.5-.99,1.11-2.49,1.69-4.03,1.69"/>
      <path class="cls-4" d="M244.64,326.88c-1.37,0-2.75-.57-3.72-1.4-1.47-1.27-2.45-3.19-3-5.86-.04-.19.09-.38.28-.42.19-.04.38.08.42.28.51,2.48,1.44,4.32,2.77,5.46,1.43,1.23,3.87,1.75,5.48.5.16-.12.38-.09.5.06.12.16.09.38-.06.5-.8.62-1.73.88-2.66.88"/>
      <path class="cls-4" d="M247.59,321.33c-1.58,0-3.14-.93-4.05-2.09-1.14-1.45-1.3-2.92-1.5-4.62-.03-.21-.05-.43-.08-.65-.02-.19.12-.37.31-.4.2-.03.37.11.4.31.03.22.05.45.08.66.19,1.66.34,2.97,1.35,4.27,1.04,1.34,3.07,2.33,4.77,1.54.18-.08.39,0,.47.17.08.18,0,.39-.17.47-.51.24-1.05.35-1.59.35"/>
      <path class="cls-4" d="M251.49,316.9c-.14,0-.28-.09-.33-.23l-2.48-6.33c-.07-.18.02-.39.2-.46.18-.07.39.02.46.2l2.47,6.33c.07.18-.02.39-.2.46-.04.02-.09.02-.13.02"/>
      <path class="cls-4" d="M245.33,377.23c-.09,0-.17-.03-.24-.09l-10.36-9.63c-.14-.13-.15-.36-.02-.5.13-.14.36-.15.5-.02l10.36,9.63c.14.13.15.36.02.5-.07.08-.16.11-.26.11"/>
      <path class="cls-4" d="M288.26,295.06c-8.07,0-16.11-1.84-23.58-5.49-26.84-13.1-38.09-45.74-25.06-72.75,6.33-13.12,17.36-22.96,31.06-27.71,13.63-4.73,28.28-3.84,41.25,2.49.18.09.25.3.16.48-.09.18-.3.25-.48.16-12.8-6.25-27.25-7.12-40.7-2.46-13.52,4.69-24.41,14.4-30.65,27.35-12.85,26.66-1.76,58.86,24.73,71.8,12.8,6.25,27.25,7.12,40.7,2.46,13.52-4.69,24.41-14.4,30.65-27.34,8.77-18.19,6.73-39.54-5.33-55.73-.12-.16-.08-.38.07-.5.16-.12.38-.08.5.07,12.22,16.4,14.29,38.03,5.4,56.46-6.33,13.12-17.36,22.96-31.06,27.71-5.77,2-11.73,3-17.67,3"/>
      <path class="cls-2" d="M331.3,208.46c-.11,0-.22-.05-.29-.14-5.13-6.88-11.66-12.29-19.4-16.07-.18-.09-.25-.3-.16-.48.09-.18.3-.25.47-.16,7.85,3.83,14.46,9.31,19.66,16.29.12.16.08.38-.07.5-.06.05-.14.07-.21.07"/>
      <path class="cls-4" d="M256.9,314.58c-2.19-.66-3.08-.31-5.48,1.93l-2.07-4.97,11.62-24.09,7.66,3.74-11.74,23.39Z"/>
      <path class="cls-7" d="M192.98,323.78l-7.59,17.09,4.56,1.81s-8.99,16.86-30.01,14.75c-21.02-2.11,8.62-37.88,8.62-37.88,0,0,19.18-4.26,24.41,4.23"/>
      <path class="cls-4" d="M159.94,357.79s-.02,0-.04,0c-3.78-.38-6.22-1.86-7.27-4.42-4.11-10.02,14.84-33.07,15.66-34.05.05-.06.12-.1.2-.12.79-.18,19.49-4.22,24.79,4.39.06.1.07.22.02.33l-7.44,16.75,3.47,1.38c.18.07.27.28.2.46-.07.18-.28.27-.46.2l-3.81-1.51c-.09-.04-.16-.11-.2-.2-.04-.09-.04-.19,0-.28l7.51-16.92c-4.96-7.64-22.21-4.27-23.81-3.94-1.35,1.65-19.29,23.91-15.47,33.23.94,2.29,3.19,3.63,6.68,3.98.2.02.34.19.32.39-.02.18-.17.32-.35.32"/>
      <path class="cls-4" d="M197.65,288.71c1.68-2.51,3.73-5.18,3.4-8.19-.54-4.88-6.62-6.77-11.5-6.72-17.45.17-26.3-.1-37.14,13.65-10.46,13.28-12.8,33.53-38.74,36.79-22.61,2.84-7.57,59.92,46.36,41.74,17.62-5.94,14.23-11,24.11-47.76,1.36-5.07,5.9-6.87,6.7-11.98.97-6.25,3.3-12.28,6.81-17.52"/>
      <path class="cls-7" d="M195.24,292.78s-10.56,3.87-9.58,9.17c.98,5.3,1.02,7.97-1.45,10.23,0,0-9.21-2.89-10.22,3.53-1.01,6.42,5.82,8.87,10.9,7,0,0,5.44,5.75,13.93,1.53,8.49-4.23,3.76-18.16-3.59-31.46"/>
      <path class="cls-4" d="M192.72,326.13c-4.35,0-7.21-2.36-7.92-3.01-3.15,1.08-6.73.59-9-1.27-1.27-1.04-2.68-2.96-2.17-6.19.25-1.58.99-2.77,2.21-3.52,2.81-1.75,7.25-.64,8.26-.35,2.19-2.11,2.15-4.65,1.2-9.77-1.03-5.53,9.36-9.4,9.8-9.57.16-.06.35,0,.43.16,6.81,12.32,9.39,21.4,7.65,26.99-.7,2.25-2.12,3.92-4.21,4.96-2.32,1.15-4.42,1.58-6.26,1.58M184.89,322.35c.1,0,.19.04.26.11.22.23,5.37,5.51,13.52,1.46,1.91-.95,3.21-2.48,3.85-4.53,1.64-5.27-.93-14.32-7.44-26.16-1.65.66-9.89,4.19-9.06,8.66,1,5.4,1.01,8.2-1.56,10.56-.09.09-.23.12-.35.08-.05-.02-5.04-1.55-7.88.22-1.03.64-1.67,1.66-1.88,3.03-.46,2.9.79,4.61,1.92,5.53,2.09,1.71,5.59,2.15,8.51,1.07.04-.02.08-.02.12-.02"/>
      <path class="cls-4" d="M184.14,318.57c-.08,0-.16-.03-.23-.08-1.49-1.22-3.69-1.54-5.46-.81-.18.07-.39-.01-.46-.19-.07-.18.01-.39.19-.46,2.01-.83,4.5-.47,6.19.91.15.12.17.35.05.5-.07.09-.17.13-.28.13"/>
    </g>
  </g>
</svg>