<?xml version="1.0" encoding="UTF-8"?>
<svg id="_レイヤー_2" data-name="レイヤー 2" xmlns="http://www.w3.org/2000/svg" xmlns:xlink="http://www.w3.org/1999/xlink" viewBox="0 0 618.46 618.46">
  <defs>
    <style>
      .cls-1 {
        fill: none;
      }

      .cls-2 {
        fill: #f4eae2;
      }

      .cls-3 {
        fill: #9dd3db;
      }

      .cls-4 {
        fill: #3d3d3d;
      }

      .cls-5 {
        fill: url(#_名称未設定グラデーション_8);
      }

      .cls-6 {
        clip-path: url(#clippath-1);
      }

      .cls-7 {
        fill: #fff;
      }

      .cls-8 {
        opacity: .1;
      }

      .cls-9 {
        fill: #fed6ce;
      }

      .cls-10 {
        clip-path: url(#clippath);
      }
    </style>
    <clipPath id="clippath">
      <rect class="cls-1" width="618.46" height="618.46"/>
    </clipPath>
    <clipPath id="clippath-1">
      <path class="cls-1" d="M618.46,309.23c0,170.78-138.45,309.23-309.23,309.23S0,480.01,0,309.23,138.45,0,309.23,0s309.23,138.45,309.23,309.23"/>
    </clipPath>
    <linearGradient id="_名称未設定グラデーション_8" data-name="名称未設定グラデーション 8" x1="-292.1" y1="7490.65" x2="-291.1" y2="7490.65" gradientTransform="translate(180648.56 4632949.33) scale(618.46 -618.46)" gradientUnits="userSpaceOnUse">
      <stop offset="0" stop-color="#a8b6ff"/>
      <stop offset=".48" stop-color="#70c0ff"/>
      <stop offset="1" stop-color="#47e5c5"/>
    </linearGradient>
  </defs>
  <g id="_レイヤー_1-2" data-name="レイヤー 1">
    <g>
      <g class="cls-8">
        <g class="cls-10">
          <g class="cls-6">
            <rect class="cls-5" x="0" y="0" width="618.46" height="618.46"/>
          </g>
        </g>
      </g>
      <rect class="cls-7" x="318.86" y="180.21" width="121.26" height="126.24" transform="translate(-61.06 147.72) rotate(-20.42)"/>
      <path class="cls-4" d="M344.71,324c-.15,0-.29-.09-.34-.24l-44.07-118.3c-.03-.09-.03-.19.01-.28.04-.09.11-.16.2-.19l113.64-42.32c.19-.07.4.03.47.22l44.07,118.3c.03.09.03.19-.01.28-.04.09-.11.16-.21.19l-113.64,42.31s-.08.02-.13.02M301.11,205.55l43.82,117.61,112.96-42.06-43.82-117.61-112.95,42.06Z"/>
      <rect class="cls-9" x="327.08" y="191.35" width="96.81" height="82.47" transform="translate(-57.56 145.65) rotate(-20.42)"/>
      <path class="cls-7" d="M371.92,262.23l-4.01,17.2,38.91-14.36-9.24-5.44c-3.65-2.15-6.15-5.79-6.85-9.97l-3.02-18.03-17.07,3.87,1.27,26.72Z"/>
      <rect class="cls-4" x="366.56" y="271.71" width="41.6" height=".73" transform="translate(-71.16 154.48) rotate(-20.7)"/>
      <polygon class="cls-4" points="368.27 279.15 367.55 278.98 371.55 261.83 370.26 234.86 388.01 230.83 389.49 239.69 388.77 239.81 387.42 231.72 371.02 235.44 372.28 261.9 372.27 261.95 368.27 279.15"/>
      <path class="cls-7" d="M389.4,241.35c2.43-.2,4.65-.71,6.49-1.52,8.33-3.71-2.48-25.05-2.83-25.98-1.11-2.99-2.83-5.31-4.96-6.97l1.3,34.47Z"/>
      <path class="cls-7" d="M388.1,206.88c-4.4-3.42-10.54-3.97-16.73-1.67-9.18,3.42-13.85,13.63-10.43,22.8,3.52,9.45,17.94,14.21,28.46,13.33l-1.3-34.47Z"/>
      <path class="cls-4" d="M386.84,241.82c-10.65,0-23.04-5.11-26.23-13.67-1.69-4.53-1.51-9.45.5-13.84,2.01-4.4,5.61-7.75,10.15-9.43,6.39-2.38,12.61-1.75,17.08,1.72.16.12.19.35.07.51-.12.16-.35.19-.51.06-4.26-3.31-10.23-3.9-16.38-1.61-4.35,1.62-7.8,4.83-9.73,9.05-1.93,4.22-2.1,8.93-.48,13.28,3.34,8.95,17.21,13.99,28.08,13.09.2-.02.38.13.4.33.02.2-.13.38-.34.4-.85.07-1.72.11-2.6.11"/>
      <path class="cls-4" d="M387.29,203.33c1.66.38,3.31,10.09-11.8,22.02-10.24,8.09,9.19,23.68,3.36,36.17-4.03,8.64-11.75,11.92-16.65,9.35-10.1-5.3,1.83-16.7-2.86-31.51-5.02-15.87-4.48-26.78,8.78-34.94,9.88-6.08,19.17-1.09,19.17-1.09"/>
      <path class="cls-2" d="M341.13,279.02l28.75-19.39-28.75,19.39Z"/>
      <polygon class="cls-7" points="369.88 259.63 440.5 364.27 339.97 432.08 269.35 327.43 341.13 279.02 369.88 259.63"/>
      <path class="cls-4" d="M339.97,432.44c-.12,0-.23-.06-.3-.16l-70.62-104.65c-.05-.08-.07-.18-.05-.27.02-.1.07-.18.15-.23l71.78-48.41c.17-.11.4-.07.51.1.11.17.07.4-.1.51l-71.48,48.21,70.21,104.04,99.92-67.39-70.42-104.34c-.11-.17-.07-.4.1-.51.17-.11.4-.07.51.1l70.62,104.65c.05.08.07.18.06.28-.02.1-.07.18-.16.23l-100.53,67.8c-.06.04-.14.06-.2.06"/>
      <rect class="cls-9" x="300.11" y="295.11" width="96.8" height="82.48" transform="translate(-128.5 252.38) rotate(-34)"/>
      <path class="cls-4" d="M380.1,348.77l-24.98-37.02c-5.74-8.5-17.28-10.74-25.78-5.01-8.5,5.73-10.74,17.27-5.01,25.77l24.98,37.02,30.79-20.77Z"/>
      <path class="cls-7" d="M409.46,344.98c-6.8-4.95-15.97-5.99-23.77-2.34l-7.59,3.4c-3.84,1.8-8.41.71-11.02-2.63l-8.95-10.76-15.22,10.26,6.59,12.25c2.12,3.67,1.42,8.32-1.69,11.2l-6.39,6.13c-6.31,5.86-8.78,14.75-6.73,22.91l74.76-50.42Z"/>
      <path class="cls-7" d="M355.38,317.14c-.5.29-.71.99-.64,1.9-5.06-5.38-9.58-1.42-20.27-4.77,1.07,11.77-6.32,14.13-3.01,20.9-.96-.57-1.83-.72-2.36-.31-.99.76-.39,3.21,1.34,5.46,1.73,2.25,4.22,3.27,5.21,2.51.52-.4.62-1.23.04-2.1,5.51,5.06,14,7.8,19.42,4.14,5.32-3.59,6.03-12.24,3.57-19.18.53.71,1.14.8,1.63.51,1.08-.63,1.07-3.32-.37-5.77-1.44-2.45-3.48-3.92-4.56-3.28"/>
      <path class="cls-4" d="M349.24,346.9c-4.39,0-9.19-2.11-12.78-5.04,0,.51-.19.96-.58,1.25-1.23.95-3.96-.28-5.73-2.57-1.6-2.09-2.29-4.35-1.66-5.51.1-.18.32-.24.5-.15.18.1.24.32.15.5-.41.75.01,2.66,1.6,4.71,1.7,2.21,3.98,2.99,4.7,2.44.4-.31.38-.97-.04-1.61-.1-.15-.07-.36.07-.48.14-.12.35-.12.49,0,5.14,4.73,13.54,7.77,18.97,4.11,5.29-3.57,5.71-12.33,3.43-18.75-.06-.17.01-.36.17-.45.16-.08.36-.04.47.1.21.28.64.71,1.15.42.4-.23.62-.95.58-1.87-.05-1.07-.44-2.31-1.08-3.4-1.02-1.73-2.4-3.03-3.43-3.23-.2-.04-.33-.23-.29-.43.04-.2.23-.33.43-.29,1.25.24,2.79,1.64,3.92,3.57.71,1.2,1.13,2.53,1.18,3.73.06,1.23-.29,2.15-.94,2.54-.31.18-.7.26-1.11.14,2.01,6.68,1.29,14.9-4.07,18.51-1.8,1.21-3.89,1.74-6.08,1.74"/>
      <path class="cls-2" d="M356.25,321.12s1.66,2.2,2.11,3.62l-2.11-3.62Z"/>
      <path class="cls-4" d="M358.36,325.1c-.16,0-.3-.1-.35-.26-.43-1.34-2.04-3.48-2.05-3.51-.12-.16-.09-.39.07-.51.16-.12.39-.09.51.07.07.09,1.7,2.26,2.17,3.73.06.19-.05.4-.24.46-.04.01-.08.02-.11.02"/>
      <path class="cls-2" d="M332.59,336.88s1.42,2.36,2.56,3.31l-2.56-3.31Z"/>
      <path class="cls-4" d="M335.15,340.55c-.08,0-.17-.03-.23-.08-1.18-.98-2.59-3.3-2.65-3.4-.1-.17-.05-.4.13-.5.17-.1.4-.05.5.13.01.02,1.4,2.32,2.48,3.22.16.13.18.36.05.52-.07.09-.18.13-.28.13"/>
      <polygon class="cls-7" points="330.65 250.87 243.96 297.78 216.47 247 311.32 195.68 319.09 210.02 330.65 250.87"/>
      <path class="cls-4" d="M243.96,298.15c-.13,0-.26-.07-.32-.19l-27.49-50.78c-.05-.09-.06-.19-.03-.28.03-.09.09-.17.18-.22l94.85-51.33c.18-.1.4-.03.5.15l7.77,14.34c.1.18.03.4-.15.5-.18.1-.4.03-.5-.15l-7.59-14.02-94.21,50.98,27.14,50.13,86.36-46.73c.18-.1.4-.03.5.15.1.18.03.4-.15.5l-86.68,46.91c-.06.03-.11.04-.17.04"/>
      <polygon class="cls-7" points="319.09 210.02 338.81 246.45 330.65 250.87 319.09 210.02"/>
      <rect class="cls-7" x="193.3" y="195.72" width="107.84" height="12.89" transform="translate(-67.89 254.07) rotate(-48.63)"/>
      <path class="cls-4" d="M216.42,247.25c-.09,0-.17-.03-.24-.09l-9.67-8.51c-.07-.06-.12-.15-.12-.25,0-.1.03-.19.09-.27l71.28-80.93c.14-.15.37-.17.52-.03l9.67,8.51c.07.06.12.16.12.25,0,.1-.03.19-.09.27l-71.28,80.92c-.07.08-.17.12-.27.12M207.27,238.33l9.12,8.03,70.79-80.38-9.12-8.03-70.79,80.38Z"/>
      <path class="cls-2" d="M215.08,228.9l18.39-1.14-18.39,1.14Z"/>
      <path class="cls-4" d="M215.08,229.27c-.19,0-.35-.15-.37-.34-.01-.2.14-.38.34-.39l18.39-1.14c.2,0,.38.14.39.34.01.2-.14.38-.34.39l-18.39,1.14h-.02"/>
      <path class="cls-2" d="M222.84,220.09l18.39-1.14-18.39,1.14Z"/>
      <path class="cls-4" d="M222.84,220.46c-.19,0-.35-.15-.37-.34-.01-.2.14-.38.34-.39l18.39-1.14c.2-.01.38.14.39.34.01.2-.14.38-.34.39l-18.39,1.14s-.01,0-.02,0"/>
      <path class="cls-2" d="M230.6,211.29l18.39-1.14-18.39,1.14Z"/>
      <path class="cls-4" d="M230.6,211.65c-.19,0-.35-.15-.37-.34-.01-.2.14-.38.34-.39l18.39-1.14c.2,0,.38.14.39.34.01.2-.14.38-.34.39l-18.39,1.14h-.02"/>
      <path class="cls-2" d="M238.36,202.48l18.39-1.14-18.39,1.14Z"/>
      <path class="cls-4" d="M238.36,202.84c-.19,0-.35-.15-.37-.34-.01-.2.14-.38.34-.39l18.39-1.14c.21-.01.38.14.39.34.01.2-.14.38-.34.39l-18.39,1.14h-.02"/>
      <path class="cls-2" d="M246.12,193.67l18.39-1.14-18.39,1.14Z"/>
      <path class="cls-4" d="M246.12,194.03c-.19,0-.35-.15-.37-.34-.01-.2.14-.38.34-.39l18.39-1.14c.21,0,.38.14.39.34.01.2-.14.38-.34.39l-18.39,1.14s-.01,0-.02,0"/>
      <path class="cls-2" d="M253.87,184.86l18.39-1.14-18.39,1.14Z"/>
      <path class="cls-4" d="M253.87,185.23c-.19,0-.35-.15-.37-.34-.01-.2.14-.38.34-.39l18.39-1.14c.21,0,.38.14.39.34.01.2-.14.38-.34.39l-18.39,1.14h-.02"/>
      <path class="cls-2" d="M261.63,176.05l18.39-1.14-18.39,1.14Z"/>
      <path class="cls-4" d="M261.63,176.42c-.19,0-.35-.15-.37-.34-.01-.2.14-.38.34-.39l18.39-1.14c.2,0,.38.14.39.34.01.2-.14.38-.34.39l-18.39,1.14s-.01,0-.02,0"/>
      <path class="cls-2" d="M269.39,167.24l18.39-1.14-18.39,1.14Z"/>
      <path class="cls-4" d="M269.39,167.61c-.19,0-.35-.15-.37-.34-.01-.2.14-.38.34-.39l18.39-1.14c.2,0,.38.14.39.34.01.2-.14.38-.34.39l-18.39,1.14h-.02"/>
      <rect class="cls-7" x="212.98" y="220.45" width="107.85" height="12.88" transform="translate(-75.82 154.36) rotate(-28.42)"/>
      <path class="cls-4" d="M222.54,258.58c-.13,0-.26-.07-.32-.19l-6.13-11.33c-.05-.09-.06-.19-.03-.28.03-.09.09-.17.18-.22l94.85-51.33c.18-.1.4-.03.5.15l6.14,11.33c.05.09.06.19.03.28-.03.09-.09.17-.18.22l-94.85,51.33c-.05.03-.11.04-.17.04M216.9,247.03l5.79,10.69,94.21-50.98-5.78-10.69-94.21,50.98Z"/>
      <path class="cls-2" d="M311.18,195.6l-5.23,17.66,5.23-17.66Z"/>
      <path class="cls-4" d="M305.95,213.63s-.07,0-.1-.01c-.19-.06-.31-.26-.25-.46l5.22-17.66c.06-.19.26-.3.46-.25.19.06.3.26.25.46l-5.23,17.66c-.05.16-.19.26-.35.26"/>
      <path class="cls-2" d="M300.85,201.19l-5.23,17.66,5.23-17.66Z"/>
      <path class="cls-4" d="M295.63,219.22s-.07,0-.1-.01c-.19-.06-.31-.26-.25-.46l5.22-17.66c.06-.19.26-.31.46-.25.19.06.3.26.25.46l-5.23,17.66c-.05.16-.19.26-.35.26"/>
      <path class="cls-2" d="M290.53,206.78l-5.23,17.66,5.23-17.66Z"/>
      <path class="cls-4" d="M285.31,224.8s-.07,0-.1-.01c-.19-.06-.31-.26-.25-.46l5.22-17.66c.06-.19.26-.3.46-.25.19.06.3.26.25.46l-5.23,17.66c-.05.16-.19.26-.35.26"/>
      <path class="cls-2" d="M280.21,212.36l-5.23,17.66,5.23-17.66Z"/>
      <path class="cls-4" d="M274.98,230.39s-.07,0-.1-.01c-.19-.06-.31-.26-.25-.46l5.22-17.66c.06-.19.26-.3.46-.25.19.06.3.26.25.46l-5.23,17.66c-.05.16-.19.26-.35.26"/>
      <path class="cls-2" d="M269.88,217.95l-5.23,17.66,5.23-17.66Z"/>
      <path class="cls-4" d="M264.66,235.98s-.07,0-.1-.01c-.19-.06-.31-.26-.25-.46l5.22-17.66c.06-.19.26-.31.46-.25.19.06.3.26.25.46l-5.23,17.66c-.05.16-.19.26-.35.26"/>
      <path class="cls-2" d="M259.56,223.54l-5.23,17.66,5.23-17.66Z"/>
      <path class="cls-4" d="M254.33,241.56s-.07,0-.1-.01c-.19-.06-.31-.26-.25-.46l5.22-17.66c.06-.19.26-.3.46-.25.19.06.3.26.25.46l-5.23,17.66c-.05.16-.19.26-.35.26"/>
      <path class="cls-2" d="M249.23,229.12l-5.23,17.66,5.23-17.66Z"/>
      <path class="cls-4" d="M244.01,247.15s-.07,0-.1-.01c-.19-.06-.31-.26-.25-.46l5.22-17.66c.06-.19.26-.31.46-.25.19.06.3.26.25.46l-5.23,17.66c-.05.16-.19.26-.35.26"/>
      <path class="cls-2" d="M238.91,234.71l-5.23,17.66,5.23-17.66Z"/>
      <path class="cls-4" d="M233.68,252.74s-.07,0-.1-.01c-.19-.06-.31-.26-.25-.46l5.22-17.66c.06-.19.26-.3.46-.25.19.06.3.26.25.46l-5.23,17.66c-.05.16-.19.26-.35.26"/>
      <path class="cls-7" d="M455.82,247.87c-1.79,5.27-3.72,12.3-4.11,18.95-2.22,37.16,18.99,137.46,25.76,168.27,1.29,5.88,4.59,11.12,9.34,14.83l13.39,10.46c2.09,1.63,5.11-.1,4.75-2.73l-13.79-100.1s20-74.37,15.93-93.05c-1.16-5.3-5.14-11.53-8.86-16.45-5.14,3.46-10.97,5.62-17.21,6.75-8.99,1.87-17.28-3.34-25.19-6.93"/>
      <path class="cls-4" d="M502,461.38c-.72,0-1.43-.24-2.04-.72l-13.38-10.46c-4.8-3.75-8.16-9.1-9.47-15.04-6.61-30.08-27.99-131.12-25.77-168.37.41-6.88,2.47-14.15,4.13-19.05.03-.1.11-.18.2-.22.09-.04.2-.04.3,0,1.29.59,2.62,1.23,3.91,1.85,6.71,3.24,13.65,6.6,21.06,5.05,6.49-1.18,12.23-3.43,17.08-6.7.16-.11.38-.07.5.08,4.95,6.56,7.95,12.14,8.92,16.59,4.02,18.43-14.86,89.21-15.92,93.15l13.78,100.03c.19,1.37-.44,2.64-1.63,3.33-.53.3-1.1.45-1.67.45M456.03,248.37c-1.62,4.84-3.57,11.85-3.96,18.47-2.22,37.15,19.15,138.11,25.75,168.17,1.27,5.78,4.54,10.98,9.21,14.62l13.39,10.46c.85.66,1.95.74,2.89.21.93-.54,1.42-1.53,1.27-2.6l-13.79-100.1s0-.1,0-.15c.2-.74,19.93-74.5,15.93-92.88-.92-4.23-3.89-9.76-8.58-16.03-4.87,3.22-10.61,5.44-17.06,6.61-7.64,1.59-14.69-1.82-21.52-5.11-1.16-.56-2.35-1.14-3.52-1.67"/>
      <path class="cls-2" d="M477.56,278.82l13.59,78.73-13.59-78.73Z"/>
      <path class="cls-4" d="M491.15,357.91c-.18,0-.33-.12-.36-.3l-13.59-78.73c-.03-.2.1-.39.3-.42.2-.03.39.1.42.3l13.59,78.73c.04.2-.1.39-.3.42-.02,0-.04,0-.06,0"/>
      <polygon class="cls-2" points="500.82 427.8 497.69 441.8 475.14 424.38 500.82 427.8"/>
      <path class="cls-4" d="M497.69,442.16c-.08,0-.16-.03-.22-.08l-22.55-17.42c-.16-.12-.19-.35-.07-.51.12-.16.35-.19.51-.07l22.1,17.06,3-13.43c.04-.2.24-.32.44-.28.2.04.32.24.28.44l-3.13,13.99c-.03.12-.12.22-.23.26-.04.02-.08.02-.12.02"/>
      <path class="cls-4" d="M485.26,189.75l.04-22.9c.01-5.26-4.48-9.53-10.04-9.54-5.55,0-10.06,4.25-10.07,9.5l-.04,22.9,20.11.04Z"/>
      <path class="cls-7" d="M515.42,234.39l12.98-16.75s-20.78-20.62-27.34-23.12c-5.07-1.93-14.94-4.25-14.94-4.25-2.37-.99-4.36-2.44-4.53-4.95l-.81-8.25-10.88-.02-.84,8.2c-.18,2.5-2.16,3.94-4.55,4.93,0,0-9.68,3.59-9.73,3.6-6.31,2.36-12.2,6.63-14.78,17.29l-7.18,38.45,18.67,3.09,5.55-31.48,2.05,18.28s-1.57,3.43-3.27,8.45c7.91,3.59,16.2,8.8,25.19,6.93,6.24-1.14,12.07-3.29,17.21-6.75-3.76-4.98-7.24-8.62-7.24-8.62l3.62-23.1,20.82,18.06Z"/>
      <path class="cls-4" d="M477.12,255.56c-6.15,0-11.93-2.8-17.56-5.52-1.28-.62-2.61-1.26-3.89-1.84-.17-.08-.26-.27-.2-.45,1.53-4.52,2.98-7.8,3.24-8.39l-1.76-15.66-5.11,28.97c-.03.2-.22.33-.42.3l-18.67-3.09c-.1-.02-.18-.07-.24-.15-.06-.08-.08-.18-.06-.28l7.18-38.45c2.82-11.65,9.5-15.51,15.01-17.57l9.74-3.6c2.79-1.17,4.17-2.64,4.31-4.62l.84-8.21c.02-.19.18-.33.36-.33h0l10.88.02c.19,0,.35.14.36.33l.81,8.25c.14,1.99,1.5,3.46,4.28,4.64.61.14,10.07,2.4,14.96,4.26,6.56,2.49,26.62,22.36,27.47,23.2.13.13.15.34.03.48l-12.98,16.75c-.06.08-.15.13-.25.14-.1.01-.2-.02-.28-.09l-20.32-17.63-3.49,22.27c.66.7,3.81,4.11,7.14,8.52.06.08.09.18.07.28-.02.1-.07.19-.16.24-4.93,3.32-10.77,5.61-17.35,6.81-1.33.28-2.65.4-3.95.4M456.27,247.67c1.2.55,2.42,1.14,3.6,1.71,6.71,3.24,13.65,6.59,21.06,5.05,6.34-1.15,11.98-3.33,16.76-6.48-3.61-4.75-6.94-8.25-6.97-8.28-.08-.08-.12-.2-.1-.31l3.62-23.1c.02-.13.11-.24.24-.29.12-.05.27-.02.37.07l20.53,17.81,12.54-16.19c-2.29-2.26-20.93-20.51-26.98-22.81-4.99-1.9-14.8-4.21-14.9-4.24-.02,0-.04-.01-.06-.02-3.04-1.28-4.6-3-4.76-5.26l-.78-7.91-10.21-.02-.8,7.87c-.22,2.99-2.83,4.42-4.77,5.23l-9.75,3.61c-5.34,2-11.82,5.74-14.55,17.04l-7.11,38.07,17.95,2.97,5.49-31.12c.03-.18.18-.3.36-.3h.01c.18,0,.33.14.35.33l2.05,18.28c0,.07,0,.13-.03.19-.02.03-1.52,3.33-3.15,8.1"/>
      <path class="cls-3" d="M488.34,224.62h-27.05c-4.61,0-8.36-3.74-8.36-8.35v-5.19h43.76v5.19c0,4.61-3.74,8.35-8.35,8.35"/>
      <path class="cls-3" d="M456.65,243.88l19.78,8.04,19.14-8.33,4.07,5.1s-13.45,7.38-22.18,26.39c-9.42-19.1-23.64-24.39-23.64-24.39l2.84-6.81Z"/>
      <path class="cls-7" d="M527.04,216.45c6.07,4.73,12.82,11.01,8.86,18.11-2.86,5.12-20.53,15.51-25.92,18.06-3.38,1.6-8.43,5.6-10.01,8.99-.41.88-.77,1.97-1.71,2.22-.89.24-1.81-.53-2.05-1.42-.24-.89,0-1.84.29-2.72.29-.88.62-1.78.54-2.7-1.02,1.7-2.03,3.4-3.05,5.11-.21.35-.44.73-.8.92-.86.46-1.95-.42-2.06-1.39-.12-.97.4-1.89.92-2.72.52-.83,1.08-1.7,1.07-2.68-1.31,2.05-2.62,4.1-3.93,6.14-.24.38-.51.78-.91.98-.86.41-1.9-.34-2.16-1.25-.26-.91.03-1.88.32-2.78-.57.81-1.24,1.21-1.99.94-.74-.27-.87-.96-.87-1.76,0-.79.33-1.54.68-2.25,3.84-7.62,11.87-13.33,18.59-18.57,2.19-1.71,8.16-7.33,13.72-12.4l10.46-8.81Z"/>
      <path class="cls-4" d="M494.56,244.59c-.1,0-.21-.04-.28-.13-.13-.15-.11-.38.04-.52,2.09-1.77,4.26-3.45,6.36-5.06.66-.51,1.31-1.01,1.95-1.51,1.52-1.19,4.85-4.25,8.7-7.8,1.63-1.5,3.33-3.06,4.99-4.58.15-.14.38-.12.52.02.14.15.12.38-.02.52-1.66,1.52-3.36,3.08-4.99,4.58-3.86,3.56-7.2,6.63-8.75,7.84-.64.5-1.29,1.01-1.95,1.52-2.09,1.61-4.25,3.28-6.33,5.04-.07.06-.15.09-.24.09"/>
      <path class="cls-4" d="M497.93,264.23c-.96,0-1.83-.83-2.07-1.74-.28-1.01,0-2.04.29-2.93l.07-.22c.07-.21.14-.42.2-.63l-2.12,3.56c-.21.36-.48.81-.95,1.05-.44.24-.96.23-1.45-.03-.62-.32-1.07-.97-1.15-1.64-.05-.45.01-.88.14-1.3l-1.41,2.2c-.25.38-.55.86-1.07,1.11-.43.21-.93.2-1.4-.02-.6-.27-1.09-.84-1.26-1.47-.13-.45-.15-.94-.06-1.5.03-.2.22-.34.42-.31.2.03.34.22.31.42-.07.46-.05.84.04,1.19.12.43.46.82.86,1,.2.09.49.16.78.02.3-.15.52-.45.77-.84l3.93-6.14c.09-.14.25-.2.41-.15.16.04.26.19.27.35.02,1.07-.58,2.02-1.1,2.85l-.02.03c-.5.79-.97,1.63-.87,2.48.05.43.36.87.76,1.08.19.1.48.19.76.03.28-.15.48-.49.66-.78l3.05-5.11c.08-.14.24-.2.4-.17.16.04.27.17.28.33.08.92-.2,1.79-.48,2.63l-.07.22c-.26.78-.51,1.69-.28,2.51.19.7.92,1.35,1.6,1.17.65-.17.98-.93,1.31-1.67.05-.12.1-.23.16-.35,1.69-3.63,7-7.65,10.19-9.16,5.33-2.53,22.96-12.91,25.75-17.91,3.7-6.63-2.36-12.64-8.77-17.64-.16-.12-.19-.35-.06-.51.12-.16.35-.19.51-.06,6.66,5.19,12.93,11.46,8.96,18.58-2.91,5.22-20.52,15.57-26.08,18.21-3.55,1.69-8.36,5.63-9.84,8.81-.05.11-.1.22-.15.34-.38.85-.81,1.81-1.79,2.08-.14.04-.29.06-.43.06"/>
      <path class="cls-4" d="M486.93,258.97c-.06,0-.11-.01-.17-.04-.18-.09-.25-.31-.16-.49.81-1.56,1.72-3.07,2.72-4.51.11-.17.34-.21.51-.09.17.11.21.34.09.51-.98,1.41-1.88,2.9-2.67,4.43-.07.13-.19.2-.33.2"/>
      <path class="cls-7" d="M457.41,313.6c-.34-.14-.66-.29-.99-.45-1.24.56-2.8.39-4.03-.26-1.48-.79-2.91-1.96-3.54-3.52-16.04-39.71-16.04-59.84-16.04-59.84,0,0,9.29-5.94,17.9,0,0,0,5.33,38.26,8.72,44.88.3.58.61,1.17.64,1.81.04.65-.28,1.36-.89,1.57-.49.17-1.04-.03-1.5-.26-1.01-.51-1.93-1.21-2.69-2.05l.86,6.9c.92,2.82,2.28,5.5,4.02,7.91.61.85,1.3,1.92.83,2.85-.56,1.08-2.16.93-3.29.47"/>
      <path class="cls-4" d="M459.06,314.32c-.59,0-1.22-.14-1.8-.38-.28-.11-.57-.24-.86-.39-1.26.5-2.84.37-4.19-.34-1.6-.85-2.75-2.31-3.67-3.64-2.16-3.13-6.21-13.94-9.63-25.7-4.11-14.16-6.47-26.68-6.47-34.35,0-.2.16-.37.37-.37s.37.16.37.37c0,17.53,11.98,53.84,15.97,59.63.86,1.25,1.94,2.63,3.41,3.41,1.21.64,2.63.74,3.71.25.1-.04.22-.04.32,0,.34.17.65.31.96.44,1.06.43,2.4.53,2.83-.3.36-.7-.17-1.6-.8-2.47-1.75-2.42-3.12-5.11-4.07-8.01,0-.02-.01-.05-.02-.07l-.86-6.9c-.02-.16.07-.31.21-.38.15-.07.32-.03.42.09.74.82,1.61,1.48,2.58,1.97.34.17.83.38,1.22.24.46-.15.67-.73.64-1.2-.03-.56-.32-1.11-.59-1.64-3.4-6.62-8.55-43.46-8.77-45.02-.03-.2.11-.39.31-.41.2-.03.39.11.41.31.05.38,5.36,38.28,8.68,44.76.32.63.64,1.25.68,1.96.04.76-.33,1.67-1.14,1.94-.65.22-1.33-.06-1.78-.28-.73-.37-1.41-.83-2.03-1.37l.73,5.81c.92,2.81,2.26,5.42,3.95,7.77.52.71,1.48,2.04.86,3.24-.38.73-1.12,1.02-1.96,1.02"/>
      <path class="cls-4" d="M455.89,312.75c-.12,0-.23-.05-.3-.16-1.54-2.25-2.86-4.66-3.91-7.17-.08-.19.01-.4.2-.48.19-.08.4,0,.48.2,1.03,2.47,2.32,4.83,3.84,7.04.11.17.07.39-.09.51-.06.04-.14.06-.21.06"/>
      <path class="cls-7" d="M483.96,169.07c-.69-.14-1.02.29-1.26.71-.62-3.84-3.77-3.45-7.44-8.07-3.01,5.45-6.94,4.3-7.49,8.24-.25-.53-.94-.84-1.29-.84-.93.02-1.33,1.25-1.24,2.74.09,1.5.88,2.77,1.8,2.66.34-.04.94-.34.94-.9.91,3.84,3.81,7.54,7.25,7.55,3.38,0,6.26-3.56,7.23-7.32.02.46.52.71.97.54.62-.23,1.73-1.46,1.85-2.95.14-1.76-.67-2.23-1.32-2.37"/>
      <path class="cls-4" d="M475.24,181.88h0c-1.72,0-3.4-.85-4.85-2.46-.14-.15-.12-.38.03-.52.15-.14.38-.12.52.03.91,1.01,2.4,2.21,4.31,2.22h0c1.87,0,3.34-1.16,4.24-2.13.14-.15.37-.16.52-.02.15.14.16.37.02.52-1.44,1.55-3.09,2.36-4.78,2.36"/>
      <path class="cls-2" d="M482.75,171.14s.07,1.45-.15,2.2l.15-2.2Z"/>
      <path class="cls-4" d="M482.6,173.71s-.07,0-.1-.01c-.19-.06-.31-.26-.25-.46.17-.57.15-1.69.13-2.08-.01-.2.15-.38.35-.38.19,0,.37.15.39.35,0,.06.08,1.52-.16,2.33-.05.16-.19.26-.35.26"/>
      <path class="cls-2" d="M467.76,171.02s-.08,1.45.14,2.2l-.14-2.2Z"/>
      <path class="cls-4" d="M467.9,173.59c-.16,0-.31-.1-.35-.26-.23-.81-.16-2.27-.15-2.33.01-.2.18-.35.39-.35.2.01.36.18.35.39-.02.39-.04,1.51.13,2.08.06.19-.05.4-.25.45-.03.01-.07.01-.1.01"/>
      <path class="cls-4" d="M154.27,323.16h-72.43c-.2,0-.37-.16-.37-.37v-76.8c0-.2.16-.37.37-.37h72.43c.2,0,.37.16.37.37v76.8c0,.2-.16.37-.37.37M82.2,322.42h71.7v-76.07h-71.7v76.07Z"/>
      <path class="cls-7" d="M160.31,418.3l-53.24-21.77c-7.13-2.91-9.1-12.07-3.81-17.67l61.55-65.08,55.19,22.57-61.38,64.9,5.22,13.59c.84,2.2-1.35,4.34-3.53,3.45"/>
      <path class="cls-4" d="M161.35,418.88c-.39,0-.79-.08-1.17-.23l-53.24-21.77c-3.46-1.41-5.99-4.44-6.78-8.09-.79-3.65.27-7.45,2.84-10.16l61.55-65.08c.1-.11.27-.14.41-.09l55.19,22.57c.11.05.19.14.22.26.02.12,0,.24-.09.33l-61.22,64.74,5.13,13.38c.44,1.16.17,2.41-.71,3.28-.59.58-1.34.88-2.12.88M160.45,417.97c.87.36,1.83.17,2.5-.49.67-.66.88-1.61.54-2.49l-5.22-13.59c-.05-.13-.02-.28.08-.38l61.02-64.52-54.47-22.27-61.38,64.9c-2.44,2.58-3.4,6.04-2.66,9.51.75,3.47,3.06,6.22,6.34,7.57l53.24,21.77Z"/>
      <path class="cls-7" d="M108.21,266.47l-.68,15.47c-.78,17.96,9.8,34.48,26.44,41.28l46.83,19.15,5.57,84.27c.33,4.94,3.44,9.27,8.03,11.14l55.92,22.86c1.58.65,3.07-1.11,2.17-2.56l-10.5-16.99-1.35-89.98c-.28-18.6-11.64-35.25-28.86-42.29l-103.57-42.35Z"/>
      <path class="cls-4" d="M251,461.15c-.27,0-.55-.05-.82-.16l-55.92-22.86c-4.68-1.92-7.92-6.41-8.26-11.46l-5.55-84.04-46.62-19.06c-16.74-6.84-27.45-23.58-26.67-41.64l.67-15.47c0-.12.07-.23.17-.29s.23-.08.34-.03l103.57,42.35c17.39,7.11,28.81,23.84,29.09,42.62l1.35,89.88,10.44,16.91c.49.8.42,1.78-.19,2.5-.42.5-1,.76-1.61.76M108.56,267.01l-.65,14.95c-.77,17.75,9.76,34.2,26.21,40.93l46.83,19.15c.13.05.22.18.23.31l5.57,84.27c.32,4.77,3.38,9.02,7.8,10.83l55.92,22.86c.69.28,1.28-.02,1.6-.39.32-.37.52-1,.12-1.64l-10.5-16.99c-.04-.06-.05-.12-.05-.19l-1.35-89.98c-.28-18.49-11.52-34.96-28.64-41.96l-103.09-42.15Z"/>
      <path class="cls-4" d="M241.99,441.45s-.09,0-.14-.03l-46.7-19.09c-.19-.08-.28-.29-.2-.48.08-.19.29-.28.48-.2l46.7,19.09c.19.08.28.29.2.48-.06.14-.2.23-.34.23"/>
      <path class="cls-4" d="M101.47,242.81c.5-5.7,4.33-10.5,8.26-14.66,8.51-9.02,18.28-16.81,28.61-23.68,3.01-2,6.15-3.96,9.67-4.8,3.52-.84,7.54-.37,10.24,2.03,3.19,2.85,3.81,7.6,3.54,11.86-.79,12.28-7.55,24.04-17.76,30.9-7.86,5.28-17.56,7.53-26.95,6.57-6.77-.69-16.56,2.69-15.6-8.21"/>
      <polygon class="cls-4" points="187 240.93 174.02 217.7 182.66 215.07 194.69 239.44 187 240.93"/>
      <path class="cls-7" d="M184.07,219.78h-10.02c-1.83,0-3.31-1.48-3.31-3.31v-8.81c0-1.83,1.48-3.31,3.31-3.31h10.02v15.43Z"/>
      <path class="cls-4" d="M184.07,220.15h-10.02c-2.03,0-3.67-1.65-3.67-3.67v-8.82c0-2.03,1.65-3.67,3.67-3.67h10.02c.2,0,.37.16.37.37v15.43c0,.2-.16.37-.37.37M174.04,204.72c-1.62,0-2.94,1.32-2.94,2.94v8.82c0,1.62,1.32,2.94,2.94,2.94h9.66v-14.7h-9.66Z"/>
      <path class="cls-7" d="M236.61,193.1s-1.26-7.08-6.6-6.51c-3.9.42-28.72,8.96-41.83,13.54-4.85,1.69-8.1,6.27-8.1,11.41,0,6.17,4.66,11.36,10.8,12.02l39.65,4.26s4.21-.52,6.21-6.97c2.01-6.45-.12-27.74-.12-27.74"/>
      <path class="cls-4" d="M230.52,228.18s-.03,0-.04,0l-39.65-4.26c-6.34-.68-11.12-6-11.12-12.38,0-5.29,3.35-10.01,8.35-11.75,13.99-4.88,38.03-13.14,41.91-13.55,5.61-.6,6.98,6.73,7,6.81,0,0,0,.02,0,.03.09.87,2.12,21.44.11,27.88-2.05,6.6-6.34,7.2-6.52,7.22-.01,0-.03,0-.05,0M230.61,186.93c-.18,0-.37.01-.56.03-3.95.42-30.51,9.59-41.75,13.52-4.7,1.64-7.85,6.09-7.85,11.06,0,6,4.5,11.01,10.47,11.65l39.6,4.25c.43-.07,4.04-.84,5.87-6.71,1.94-6.23-.07-26.92-.14-27.58-.08-.41-1.23-6.23-5.63-6.23"/>
      <path class="cls-7" d="M241.92,207.23c0,11.39-4.93,20.62-11,20.62s-11-9.23-11-20.62,4.93-20.62,11-20.62,11,9.23,11,20.62"/>
      <path class="cls-4" d="M230.92,228.21c-6.27,0-11.37-9.42-11.37-20.99s5.1-20.99,11.37-20.99,11.37,9.42,11.37,20.99-5.1,20.99-11.37,20.99M230.92,186.97c-5.87,0-10.64,9.09-10.64,20.26s4.77,20.26,10.64,20.26,10.64-9.09,10.64-20.26-4.77-20.26-10.64-20.26"/>
      <path class="cls-4" d="M223.75,215.95c-.19,0-.35-.15-.37-.34-.01-.2.14-.38.34-.39,2.83-.18,5.51-2.04,6.67-4.63,1.16-2.59.75-5.83-1.01-8.05-1.38-1.75-3.57-2.85-5.86-2.96-.2-.01-.36-.18-.35-.38,0-.2.18-.36.38-.35,2.5.12,4.89,1.33,6.4,3.24,1.92,2.43,2.36,5.97,1.1,8.81-1.27,2.83-4.2,4.86-7.29,5.06,0,0-.01,0-.02,0"/>
      <path class="cls-4" d="M234.27,223.46c-.07,0-.14-.02-.2-.06-.17-.11-.22-.33-.11-.5,2.3-3.64,3.81-7.79,4.37-12.01.75-5.69-.21-11.67-2.71-16.84-.35-.73-.73-1.39-1.11-1.97-.11-.17-.07-.4.1-.51.17-.11.4-.06.51.1.4.6.79,1.3,1.15,2.05,2.56,5.3,3.55,11.42,2.78,17.26-.57,4.32-2.12,8.58-4.48,12.3-.07.11-.19.17-.31.17"/>
      <path class="cls-3" d="M171.25,287.81l.34-21.4s10,6.04,19.7,6.23c14.78.3,15.37-17.34,11.11-26.25l-3.5-7.61s-13.01-6.57-19.89-.82l3.25,9.03-13.28-10.29c-3.38-2.62-7.47-4.16-11.74-4.42-8.3-.5-22.89-.9-35.74,1.26-4.46.75-8.26,3.65-10.13,7.76-3.43,7.51-9.22,20.44-13.13,30.68-2.62,6.87.8,14.65,7.72,17.13.43.15.85.28,1.25.36l-.75,11.13,64.8-12.78Z"/>
      <path class="cls-4" d="M115.93,272.45c-.17,0-.32-.12-.36-.29-.04-.2.09-.39.29-.43,2.93-.6,6.01-1.6,9.7-3.17.19-.08.4,0,.48.19.08.19,0,.4-.19.48-3.73,1.59-6.86,2.61-9.84,3.22-.02,0-.05,0-.07,0"/>
      <path class="cls-4" d="M114.3,290.79c-2.25,0-4.48-.27-6.62-.8-.2-.05-.32-.25-.27-.44.05-.2.25-.32.44-.27,6.21,1.56,13.14.77,19.5-2.23,1.35-.63,2.71-1.35,4.15-2.18.18-.1.4-.04.5.14.1.17.04.4-.14.5-1.46.84-2.84,1.57-4.21,2.21-4.33,2.04-8.92,3.07-13.38,3.07"/>
      <path class="cls-4" d="M118.92,271.75s-.06,0-.09-.01c-.2-.05-.31-.25-.26-.45l2.53-9.83c.05-.2.25-.31.45-.26.2.05.31.25.26.45l-2.53,9.83c-.04.17-.19.27-.35.27"/>
      <path class="cls-7" d="M161.42,264.17c-.5-.66-1.33-.97-2.11-1.24.86.03,1.5-.23,1.7-.89.2-.66-.21-1.11-.77-1.53-.55-.42-1.25-.59-1.93-.71-7.33-1.34-14.83,1.06-21.64,4.08-3.67,1.62-7.28,3.45-10.97,5.02,1.67,5.25,3.89,11.26,6.01,16.3,4.5-2.59,8.71-5.7,13.02-8.62,2.71-1.83,5.85-3.68,9.05-2.99.83.18,1.78.5,2.45-.02.64-.5.58-1.54.09-2.18-.49-.64-1.28-.97-2.05-1.23-.76-.27-1.57-.51-2.17-1.05,1.72.19,3.45.38,5.17.57.36.04.74.08,1.06-.08.78-.36.73-1.58.12-2.17s-1.53-.72-2.38-.79c-.85-.07-1.76-.14-2.43-.67,2.12.17,4.24.34,6.35.5.39.03.81.06,1.16-.12.74-.38.76-1.5.26-2.16"/>
      <path class="cls-4" d="M158.56,263.27s-.04,0-.06,0c-1.48-.25-2.99-.41-4.49-.47-.2,0-.36-.18-.35-.38,0-.2.18-.37.38-.35,1.53.06,3.07.22,4.58.48.2.03.33.22.3.42-.03.18-.19.3-.36.3"/>
      <path class="cls-4" d="M171.75,265.99c-.15,0-.29-.09-.34-.23-.52-1.35-.39-2.96.34-4.2.74-1.24,2.08-2.14,3.52-2.33.2-.02.38.11.41.31s-.11.38-.31.41c-1.22.16-2.36.92-2.98,1.98-.62,1.05-.74,2.42-.29,3.56.07.19-.02.4-.21.47-.04.02-.09.02-.13.02"/>
      <path class="cls-7" d="M181.4,244.6s12.09,2.16,18.89-2.8l-1.39-3.02s1.79-1.77-.02-2.42c0,0,1.69-3.37-1.25-3.57,0,0,1.95-4.4-2.56-3.56,0,0,2.71-4.96-2.35-3.76-4,.95-4.84,2.25-4.84,2.25,0,0,2.23-5.52-.57-4.95-.88.18-2.22.76-3.64,1.64-4.56,2.84-6.49,8.5-4.67,13.55l2.39,6.64Z"/>
      <path class="cls-4" d="M185.34,254.77c-.15,0-.29-.09-.34-.23l-6.33-16.45c-1.87-5.21.15-11.09,4.82-13.99,1.38-.86,2.79-1.49,3.76-1.69.81-.17,1.24.12,1.47.39.67.81.31,2.58-.05,3.8.75-.46,1.99-1.02,3.98-1.49,1.57-.37,2.64-.21,3.17.49.68.89.24,2.34-.12,3.18,1.07-.09,1.85.16,2.3.73.7.88.38,2.27.14,2.98.62.13,1.07.43,1.33.89.52.91.13,2.19-.11,2.79.45.25.61.58.67.84.16.72-.39,1.48-.69,1.84l1.1,2.41c.09.18,0,.4-.18.49-.18.08-.4,0-.49-.18l-1.21-2.63c-.06-.14-.03-.31.07-.41.21-.21.77-.89.67-1.35-.04-.2-.23-.35-.56-.47-.1-.04-.18-.11-.22-.21s-.04-.21.01-.3c.22-.44.7-1.73.28-2.45-.2-.35-.61-.55-1.23-.59-.12,0-.23-.07-.29-.18-.06-.1-.07-.23-.02-.34.22-.51.68-1.97.12-2.68-.36-.46-1.13-.58-2.28-.37-.14.02-.28-.03-.36-.15-.08-.11-.09-.27-.02-.39.32-.59,1.04-2.28.48-3.01-.42-.55-1.55-.42-2.42-.22-3.74.89-4.61,2.09-4.62,2.1-.11.15-.31.21-.48.12-.16-.09-.24-.28-.17-.46.53-1.31,1.16-3.64.6-4.31-.05-.06-.21-.25-.76-.14-.89.18-2.21.78-3.52,1.6-4.38,2.72-6.28,8.24-4.52,13.12l6.33,16.44c.07.19-.02.4-.21.47-.04.02-.09.02-.13.02"/>
      <path class="cls-4" d="M184.3,235.98l4.96,9.61c.85,1.64,2.81,2.36,4.52,1.65,1.84-.77,2.69-2.89,1.88-4.71l-.32-.73s-3.66.67-2.23-1.79c0,0-4.15.49-2.1-2.75,0,0-1.02.34-1.92-.07-1.32-.6-2.38-2.27.35-4.63-2.11.92-4.1.55-4.1.55,0,0-.53,1.85-1.04,2.88"/>
      <path class="cls-4" d="M187.76,233.84c-.13,0-.26-.07-.32-.19-.1-.18-.03-.4.15-.5,2.15-1.17,4.31-2.41,6.41-3.67.17-.11.4-.05.5.12.1.17.05.4-.12.5-2.11,1.27-4.28,2.51-6.44,3.69-.06.03-.12.04-.17.04"/>
      <path class="cls-4" d="M189.05,238.84c-.13,0-.26-.07-.32-.19-.1-.18-.03-.4.15-.5,2.85-1.5,5.64-3.18,8.3-5,.17-.11.39-.07.51.1.11.17.07.4-.1.51-2.68,1.83-5.5,3.53-8.37,5.04-.05.03-.11.04-.17.04"/>
      <path class="cls-4" d="M191.59,241.16c-.13,0-.25-.07-.32-.19-.1-.18-.03-.4.14-.5l6.21-3.42c.18-.1.4-.03.5.14.1.18.03.4-.14.5l-6.21,3.42c-.06.03-.12.04-.18.04"/>
      <path class="cls-4" d="M185.71,233.75h-.02c-.92-.05-1.52-.92-1.58-1.73-.12-1.71,1.09-3.26,3.6-4.62.18-.1.4-.03.5.15.1.18.03.4-.15.5-2.24,1.21-3.32,2.54-3.22,3.93.04.49.4,1.02.89,1.05.2.01.36.18.35.39-.01.19-.17.35-.37.35"/>
      <path class="cls-7" d="M144.58,216.36l-8.11,16.42s9.3,11.46,16.3,11c7.01-.45,5.7-8.38.48-10.84l-3.74-.57,4.76-12.81-9.69-3.2Z"/>
      <path class="cls-4" d="M149.22,233.81s-.08,0-.12-.02c-.19-.07-.29-.28-.22-.47l4.92-13.53-9.33-3.08c-.19-.06-.3-.27-.23-.46.06-.19.27-.3.46-.23l9.69,3.2c.09.03.17.1.22.19.04.09.05.19.01.29l-5.04,13.88c-.05.15-.19.24-.34.24"/>
      <path class="cls-7" d="M159.17,211.1c.35,1.92.36,3.95-.29,5.79-.65,1.84-2.02,3.49-3.85,4.19-1.58.61-3.4.46-4.96-.19-1.57-.65-2.9-1.78-3.99-3.08-1.67.59-3.71-.1-4.67-1.59-.55-.86-.75-2-.3-2.92.45-.92,1.65-1.46,2.57-1.03.53.25.9.76,1.44.98.6.25,1.31.1,1.85-.26.54-.36.93-.91,1.24-1.48.97-1.8,1.26-3.96.8-5.95.04.19,1.04.47,1.22.53.45.15.91.26,1.38.34.92.14,1.87.13,2.79-.03.47-.08.93-.2,1.38-.36.36-.12.82-.46,1.19-.47.79,0,1.03,1.43,1.22,1.99.4,1.16.75,2.33.97,3.54"/>
      <path class="cls-4" d="M152.88,221.83c-.98,0-1.99-.2-2.95-.6-1.43-.6-2.76-1.6-3.96-3-1.79.51-3.84-.24-4.86-1.81-.68-1.05-.8-2.31-.32-3.28.56-1.14,1.99-1.7,3.06-1.2.3.14.54.34.77.53.22.18.43.35.66.45.44.19,1.02.1,1.51-.23.41-.28.77-.71,1.12-1.35.93-1.72,1.21-3.79.77-5.7-.05-.2.08-.39.27-.44.16-.03.31.03.39.16.08.05.31.15.9.34l.12.04c.42.14.87.25,1.32.32.89.14,1.79.13,2.67-.02.45-.08.89-.19,1.32-.34.1-.04.23-.1.36-.17.29-.15.62-.32.95-.32h.01c.93,0,1.26,1.19,1.46,1.9.04.13.07.25.1.34.48,1.39.79,2.53.98,3.59.41,2.24.31,4.25-.3,5.98-.73,2.07-2.25,3.71-4.06,4.41-.71.27-1.49.41-2.29.41M146.08,217.44c.11,0,.21.05.28.13,1.17,1.4,2.47,2.4,3.85,2.98,1.57.66,3.28.73,4.69.19,1.62-.62,2.97-2.1,3.63-3.97.57-1.61.66-3.5.27-5.61-.19-1.02-.49-2.13-.96-3.48-.04-.1-.07-.23-.11-.38-.13-.48-.38-1.36-.75-1.36h0c-.16,0-.41.13-.63.24-.15.08-.3.15-.45.21-.46.16-.94.29-1.43.38-.97.17-1.94.18-2.91.03-.49-.08-.98-.19-1.44-.35l-.11-.03c-.19-.06-.36-.11-.5-.16.26,1.85-.08,3.8-.98,5.45-.41.75-.84,1.27-1.36,1.61-.69.46-1.53.58-2.2.29-.33-.14-.59-.35-.84-.56-.21-.17-.4-.33-.61-.43-.7-.33-1.7.08-2.09.86-.36.73-.25,1.74.28,2.56.87,1.34,2.73,1.98,4.24,1.44.04-.01.08-.02.12-.02"/>
      <path class="cls-2" d="M143.26,214.69c.93-.05,1.87.51,2.26,1.36l-2.26-1.36Z"/>
      <path class="cls-4" d="M145.53,216.41c-.14,0-.27-.08-.33-.21-.33-.7-1.14-1.19-1.91-1.15-.2,0-.37-.15-.38-.35,0-.2.15-.37.35-.38,1.08-.05,2.15.59,2.61,1.57.09.18,0,.4-.18.49-.05.02-.1.03-.15.03"/>
      <path class="cls-4" d="M154.27,323.16h-72.43c-.2,0-.37-.16-.37-.37v-37.6c0-.2.16-.37.37-.37h72.43c.2,0,.37.16.37.37v37.6c0,.2-.16.37-.37.37M82.2,322.42h71.7v-36.87h-71.7v36.87Z"/>
      <path class="cls-4" d="M159.82,441.45c-.12,0-.24-.06-.31-.16l-77.98-118.3c-.11-.17-.07-.4.1-.51.17-.11.4-.06.51.1l77.98,118.3c.11.17.07.4-.1.51-.06.04-.13.06-.2.06"/>
      <path class="cls-4" d="M81.36,441.45c-.07,0-.13-.02-.19-.05-.17-.11-.23-.33-.12-.5l72.9-118.3c.11-.17.33-.23.5-.12.17.11.23.33.12.5l-72.9,118.3c-.07.11-.19.17-.31.17"/>
      <path class="cls-2" d="M409.46,344.98l-74.76,50.42,74.76-50.42Z"/>
      <rect class="cls-4" x="327" y="369.82" width="90.18" height=".73" transform="translate(-143.47 271.74) rotate(-34.04)"/>
    </g>
  </g>
</svg>