<?xml version="1.0" encoding="UTF-8"?>
<svg id="_レイヤー_2" data-name="レイヤー 2" xmlns="http://www.w3.org/2000/svg" xmlns:xlink="http://www.w3.org/1999/xlink" viewBox="0 0 618.45 618.45">
  <defs>
    <style>
      .cls-1 {
        fill: none;
      }

      .cls-2 {
        fill: #9dd3db;
      }

      .cls-3 {
        fill: url(#_名称未設定グラデーション_7);
      }

      .cls-4 {
        clip-path: url(#clippath-1);
      }

      .cls-5 {
        fill: #fff;
      }

      .cls-6 {
        opacity: .1;
      }

      .cls-7 {
        fill: #fed6ce;
      }

      .cls-8 {
        clip-path: url(#clippath);
      }
    </style>
    <clipPath id="clippath">
      <rect class="cls-1" width="618.45" height="618.45"/>
    </clipPath>
    <clipPath id="clippath-1">
      <path class="cls-1" d="M618.45,309.23c0,170.78-138.45,309.23-309.23,309.23S0,480.01,0,309.23,138.44,0,309.23,0s309.23,138.45,309.23,309.23"/>
    </clipPath>
    <linearGradient id="_名称未設定グラデーション_7" data-name="名称未設定グラデーション 7" x1="-1009.45" y1="8335.53" x2="-1008.45" y2="8335.53" gradientTransform="translate(624300.53 5155470.76) scale(618.46 -618.46)" gradientUnits="userSpaceOnUse">
      <stop offset="0" stop-color="#a8b6ff"/>
      <stop offset=".48" stop-color="#70c0ff"/>
      <stop offset="1" stop-color="#47e5c5"/>
    </linearGradient>
  </defs>
  <g id="_レイヤー_1-2" data-name="レイヤー 1">
    <g>
      <g class="cls-6">
        <g class="cls-8">
          <g class="cls-4">
            <rect class="cls-3" x="0" y="0" width="618.46" height="618.46"/>
          </g>
        </g>
      </g>
      <path class="cls-2" d="M394.64,453.28c8.32-30.32,16.63-60.65,24.95-90.97,8.77-1.18,18.78-1.97,29.82-1.88,16.64.14,31.16,2.23,42.95,4.79,2.23,4.39,5.13,10.45,8.08,17.86,6.43,16.15,9.31,29.15,11.02,37.04,1.92,8.86,3.9,20.17,5.04,33.46-20.18-.09-40.37-.17-60.55-.26l-61.3-.05Z"/>
      <path d="M408.26,224.93c0-4.04.02-7.01-1.24-10.9-.96-2.98-2.67-5.6-3.13-8.76-.49-3.42.66-6.81,2.42-9.02,1.64-2.06,3.56-3.32,6.37-4.43,4.52-1.78,11.73-4.63,19.71-2.62,10.16,2.55,15.89,11.54,19.22,16.77,1.45,2.27,2.5,4.22,3.33,6.07,2.61,5.77,3.89,10.21,4.38,11.9,1.98,6.86,5.66,10.17,12.01,18.95,10.44,14.43,19.53,26.99,15.65,33.62-2.08,3.56-8.32,5.98-13.3,5.73-6.39-.32-6.92-4.58-12.68-5.52-9.58-1.57-24.4,15.38-37.5,10.85-4.28-1.48-6.61-5.08-9.21-9.09-1.56-2.41-4.26-7.32-5.29-24.25-.48-7.89-.73-20.6-.75-29.31"/>
      <polygon class="cls-5" points="438.75 228.6 454.01 253.28 434.92 261.14 419.68 232.39 438.75 228.6"/>
      <path d="M450.22,247.59c-.15,0-.3-.08-.39-.22l-9.93-16.03c-.13-.22-.07-.5.15-.63.21-.13.5-.07.63.15l9.93,16.03c.13.21.07.5-.15.63-.08.05-.16.07-.24.07"/>
      <path d="M432.56,256.27c-.16,0-.32-.08-.4-.24l-10.05-18.15c-.12-.22-.04-.5.18-.62.22-.12.5-.04.62.18l10.05,18.15c.12.22.04.5-.18.62-.07.04-.15.06-.22.06"/>
      <path class="cls-5" d="M435.46,222.86s1.35-2.09,3.63-1.35c2.24.73,3.52,3.46,3,5.77-.51,2.31-2.68,4.09-5.03,4.32-1.33.13-2.57.12-3.84-.79-1.85,2.35-4.21,4.36-6.98,5.48-2.77,1.12-5.98,1.3-8.75.16-4.63-1.9-7.21-7.12-7.45-12.13-.24-5,1.02-8.78,2.7-13.51,4.94,1.47,8.21.86,10.36-.09,2.29-1.01,4.34-2.88,5.28-2.18.66.48.34,1.87.24,2.54-.32,2.31.65,5.99,6.83,11.78"/>
      <path d="M421.55,237.68c-1.48,0-2.92-.27-4.23-.81-4.42-1.82-7.45-6.73-7.73-12.53-.25-5.28,1.19-9.36,2.72-13.68.08-.23.33-.35.56-.29,3.93,1.17,7.31,1.15,10.05-.07.76-.34,1.48-.76,2.18-1.18,1.51-.89,2.69-1.59,3.56-.96.8.59.6,1.87.47,2.72-.02.09-.03.17-.04.25-.41,2.92,1.72,6.63,6.33,11.04.71-.79,2.08-1.67,3.82-1.11,2.38.78,3.89,3.66,3.3,6.3-.55,2.46-2.83,4.42-5.43,4.68-1.14.11-2.45.16-3.79-.63-2,2.45-4.38,4.28-6.91,5.3-1.59.64-3.25.96-4.87.96M413.03,211.37c-1.68,4.77-2.75,8.31-2.53,12.93.22,4.46,2.52,9.81,7.17,11.73,2.52,1.04,5.58.98,8.4-.16,2.49-1.01,4.84-2.85,6.79-5.34.15-.19.42-.23.62-.09,1.08.77,2.15.84,3.53.7,2.22-.22,4.16-1.88,4.63-3.97.48-2.16-.78-4.61-2.7-5.23-1.91-.62-3.06,1.09-3.1,1.16-.07.11-.19.19-.33.2-.13.02-.27-.03-.37-.12-5.09-4.77-7.43-8.87-6.97-12.18.01-.08.03-.17.04-.27.08-.51.25-1.58-.1-1.84-.38-.28-1.53.41-2.55,1.01-.69.41-1.47.87-2.27,1.23-2.85,1.26-6.3,1.34-10.26.23"/>
      <path d="M434.87,228.43c-.1,0-.2-.03-.29-.1-.19-.16-.22-.45-.06-.64.97-1.18,2.39-1.99,3.9-2.23.25-.04.48.13.52.38.04.25-.13.48-.38.52-1.29.2-2.51.89-3.34,1.9-.09.11-.22.17-.35.17"/>
      <path class="cls-2" d="M439.64,232.14c0,1.96-1.59,3.54-3.54,3.54s-3.54-1.58-3.54-3.54,1.58-3.54,3.54-3.54,3.54,1.58,3.54,3.54"/>
      <path class="cls-5" d="M300.58,359.77l1.71-1.13c6.43-4.24,13.84-6.77,21.52-7.35l41.58-3.17.04-28.82-56.48,3.68c-3.91.25-7.78,1.83-11.49,3.08l-4.65,1.56-10.23,16.86,17.99,15.29Z"/>
      <path d="M300.58,360.23c-.11,0-.21-.04-.3-.11l-17.99-15.29c-.17-.15-.21-.39-.09-.58l10.23-16.86c.06-.09.14-.16.25-.2l4.65-1.56c.63-.21,1.27-.44,1.91-.66,3.14-1.09,6.39-2.23,9.69-2.44l56.48-3.68c.13,0,.25.04.34.12.09.09.14.21.14.33l-.04,28.82c0,.24-.18.44-.42.46l-41.58,3.17c-7.58.58-14.94,3.1-21.3,7.28l-1.71,1.13c-.08.05-.16.08-.25.08M283.18,344.38l17.43,14.82,1.43-.94c6.48-4.27,14-6.84,21.73-7.43l41.16-3.14.04-27.91-55.99,3.65c-3.18.21-6.37,1.32-9.45,2.39-.65.23-1.29.45-1.92.66l-4.49,1.51-9.94,16.39Z"/>
      <path class="cls-5" d="M446.78,241.59c-8.2-.15-20.52,9.37-25.38,16.04-6.59,9.06-11.32,20.2-14.22,28.53l-8.09,24.8-71.2,8.68,4.07,34.21c29.75-.5,51.6-1.29,57.81-1.73,5.22-.37,9.03-1.16,11.18-1.68,2.37-.57,4.32-1.17,5.67-1.62.23,2.01.66,4.85,1.53,8.17,1.03,3.91,1.76,6.69,3.02,8.59,2.98,4.51,11.13,4.95,27.33,5.66,11.82.52,17.73.78,17.91.78,9.68.07,22.89,0,38.96-.63-20.97-117.45-39.79-129.63-48.58-129.79"/>
      <path d="M493.84,371.89c-.25,0-.45-.19-.46-.44,0-.25.19-.46.44-.47l1-.04c-1.24-6.93-2.51-13.68-3.77-20.07-.05-.25.11-.49.36-.54.25-.05.49.11.54.36,1.29,6.56,2.59,13.49,3.86,20.6.02.13-.01.26-.09.37-.08.1-.21.16-.34.17l-1.52.06h-.02"/>
      <path d="M418.81,370.2s-.06,0-.09,0c-1.5-.3-2.91-.84-4.2-1.62-.83-.5-1.6-1.09-2.29-1.76-2.57-2.51-3.38-5.53-4.51-9.71-.37-1.36-.73-2.99-1.01-4.6-.18-1.02-.34-2.05-.46-3.08-1.7.55-3.43,1.04-5.17,1.46-3.53.84-7.32,1.41-11.26,1.69-5.5.39-26.07,1.2-57.84,1.73h0c-.23,0-.43-.17-.45-.4l-4.07-34.21c-.03-.25.15-.48.4-.51l70.91-8.64,8-24.52c.88-2.3,1.74-4.59,2.57-6.82.99-2.69,1.99-5.45,2.96-8.2.08-.24.34-.36.58-.28.24.08.36.35.28.58-.98,2.76-1.97,5.53-2.97,8.22-.82,2.23-1.69,4.52-2.56,6.81l-8.08,24.78c-.05.17-.2.29-.38.31l-70.75,8.62,3.97,33.35c31.51-.53,51.9-1.34,57.38-1.73,3.89-.27,7.63-.83,11.11-1.67,1.9-.45,3.79-.99,5.63-1.61.13-.04.28-.03.39.05.12.07.19.2.21.33.14,1.19.31,2.39.52,3.56.29,1.6.64,3.2,1,4.54,1.13,4.19,1.88,6.96,4.27,9.3.65.62,1.36,1.17,2.13,1.64,1.2.72,2.51,1.23,3.9,1.51.25.05.41.29.36.54-.04.22-.23.37-.45.37"/>
      <path d="M406.58,347.44c-.22,0-.42-.16-.45-.39-.78-5.31-1.44-10.71-1.98-16.05-.72-7.22-1.22-14.54-1.49-21.78,0-.25.19-.46.44-.47.26,0,.46.19.47.44.27,7.22.77,14.53,1.49,21.73.53,5.32,1.19,10.71,1.97,16.01.04.25-.14.48-.39.52-.02,0-.04,0-.07,0"/>
      <path class="cls-5" d="M378.06,290.07s-2.99-.86-1.59-3.78c1.26-2.63,17.35-8.08,43.35,7.65,2.65,1.6,5.04,3.08,7.2,4.43-2.46,6.77-7.62,20.07-16.32,28.23-5.84-7.61-12.62-15.15-20.7-16.87-14.26-3.04-1.85-5.29-1.85-5.29,0,0-10.75-.82-10.58-3.3.22-3.3,8.92-2.99,12.61-2.71,1,.1,1.62.15,1.62.15,0,0-.63-.07-1.62-.15-4.08-.41-14.51-1.7-15.34-4.29-1.03-3.23,3.21-4.06,3.21-4.06"/>
      <path d="M410.71,327.06s-.03,0-.04,0c-.13-.01-.25-.07-.33-.18-5.6-7.3-12.41-14.99-20.43-16.71-6.42-1.37-7.23-2.54-7.22-3.41.02-.97,1.4-1.68,2.81-2.14-3.52-.44-8.52-1.44-8.38-3.53.04-.63.33-1.18.85-1.63,1.04-.9,2.98-1.35,5.11-1.54-4.4-.79-8.13-1.96-8.67-3.66-.3-.95-.23-1.81.22-2.56.53-.89,1.47-1.43,2.22-1.73-.37-.27-.76-.65-.99-1.17-.35-.79-.29-1.7.2-2.7.42-.87,1.93-1.77,4.02-2.39,3.73-1.11,17.63-3.67,39.97,9.85,2.54,1.54,4.96,3.03,7.2,4.43.18.11.26.34.19.54-1.77,4.87-7.16,19.7-16.43,28.41-.09.08-.2.12-.31.12M386.1,298.72c-2.91,0-6.19.29-7.53,1.45-.34.29-.52.62-.54,1-.08,1.25,5.21,2.44,10.16,2.82.23.02.41.2.42.43.01.23-.15.43-.38.47-2.18.4-4.62,1.27-4.63,1.9,0,.11.17,1.15,6.49,2.5,8.16,1.74,15.01,9.33,20.65,16.64,8.69-8.4,13.86-22.28,15.71-27.36-2.15-1.34-4.46-2.76-6.88-4.23-22.02-13.33-35.6-10.84-39.24-9.76-2.05.61-3.21,1.4-3.46,1.91-.36.75-.43,1.4-.19,1.94.39.87,1.48,1.2,1.49,1.2.2.06.34.25.33.46,0,.21-.16.39-.37.43-.02,0-2,.41-2.73,1.65-.31.52-.35,1.12-.13,1.82.5,1.58,6.23,3.1,14.94,3.98.98.07,1.6.15,1.63.15.25.03.43.25.4.5-.02.25-.25.43-.49.41,0,0-.63-.05-1.64-.15-.98-.07-2.46-.16-4.04-.16"/>
      <path d="M393.84,292.05s-.08,0-.11-.01c-5.18-1.32-10.89-1.5-14.77-1.42-.26.01-.46-.2-.47-.45,0-.25.2-.46.45-.47,3.93-.08,9.73.1,15.01,1.45.24.06.39.31.33.56-.05.21-.24.34-.44.34"/>
      <path d="M427.82,250.7c-.13,0-.26-.06-.35-.17-.16-.2-.13-.48.06-.64.12-.1,3.05-2.5,4.8-3.55.22-.13.5-.06.63.16.13.22.06.5-.16.63-1.68,1.01-4.66,3.44-4.69,3.47-.08.07-.19.1-.29.1"/>
      <path class="cls-5" d="M446.53,312.37c-4.35-22.1-8.71-44.2-13.06-66.3,1.08-.77,2.42-1.59,4.05-2.31,3.11-1.37,5.95-1.78,7.94-1.9,0,0,3.2-.12,6.4.75,15.64,4.28,23.31,29.15,25.96,38.38,1.82,6.35,13.54,38.42,15.14,60.22.73,9.93-2.36,16.88-6.42,19.78-20.98,15.01-53.55-8.79-63.32-18.6-4.24-4.26-8.67-10.63-13.16-16.46,8.69-8.16,14.09-21.05,16.55-27.82l19.92,14.25"/>
      <path d="M446.36,312.05c-.2,0-.38-.13-.44-.33-1.58-5.54-3.24-11.13-4.93-16.63-.44-1.45-.89-2.89-1.34-4.33-.08-.24.06-.5.3-.57.24-.08.5.06.57.3.45,1.44.9,2.89,1.35,4.34,1.69,5.5,3.35,11.11,4.93,16.65.07.24-.07.5-.31.56-.04.01-.08.02-.13.02"/>
      <path d="M470.67,366.27c-6.1,0-12.88-1.61-20.19-4.85-12.65-5.59-23.3-14.39-27.59-18.7-3.23-3.25-6.49-7.6-9.95-12.21-1.06-1.42-2.16-2.88-3.24-4.3-.14-.19-.12-.45.05-.61,8.02-7.53,13.36-19.19,16.44-27.64.05-.13.15-.23.28-.28.13-.04.27-.03.39.04,17.88,11.2,19.98,14.27,20.06,14.39.14.21.08.5-.14.63-.21.14-.49.08-.63-.14-.08-.12-2.24-3.1-19.3-13.81-3.1,8.39-8.36,19.68-16.17,27.18,1.01,1.31,2.02,2.67,3,3.98,3.43,4.58,6.68,8.91,9.86,12.11,4.25,4.27,14.79,12.97,27.31,18.51,10,4.42,24.26,8.02,35.41.04,5.86-4.19,7.57-12.05,5.53-25.48-1.94-12.8-7.13-29.94-13.7-51.65l-.72-2.37c-.07-.24.06-.5.31-.57.24-.07.5.06.57.3l.72,2.37c6.58,21.74,11.78,38.91,13.73,51.77,2.1,13.81.27,21.94-5.9,26.36-4.56,3.26-10,4.9-16.12,4.9"/>
      <path d="M477.81,281.46c-.19,0-.36-.12-.43-.3-.51-1.41-1.02-3.23-1.61-5.34-3-10.66-8.01-28.5-24.03-32.75-2-.53-4.11-.78-6.27-.74-1.8.04-6.32.5-9.26,3.98-.66.78-1.16,1.7-1.46,2.34-2.1,4.42-1.66,9.33-.92,12.67.05.25-.1.49-.35.54-.25.05-.49-.1-.55-.35-.77-3.48-1.23-8.6.99-13.25.33-.69.87-1.69,1.59-2.54,3.18-3.77,8.01-4.27,9.94-4.31,2.24-.04,4.44.21,6.52.77,16.53,4.39,21.63,22.54,24.68,33.39.59,2.09,1.09,3.9,1.59,5.28.08.24-.04.5-.28.58-.05.02-.1.03-.15.03"/>
      <path d="M460.14,323.99c-.1,0-.2-.03-.29-.1-.5-.41-1.22-1.02-2.12-1.77-2.7-2.28-6.79-5.72-11.48-9.38-.2-.15-.23-.44-.08-.64.15-.2.44-.23.64-.08,4.71,3.67,8.8,7.12,11.51,9.4.89.75,1.61,1.35,2.11,1.77.2.16.22.45.06.64-.09.11-.22.17-.35.17"/>
      <path class="cls-5" d="M283.92,271.3c-9.62-2.46-14.71-7.03-17.39-10.99,1.02-3.25,2.03-6.49,3.15-9.69,4.3-12.33,10.83-24.85,22.29-31.08,2.04-1.11,4.33-2.02,6.63-1.74,2.31.27,4.56,2.07,4.66,4.4.2,5.2-8.83,6.18-9.81,11.29,3.17-2.71,8.95-.86,9.96,3.19,3.17.4,5.48,4.05,4.5,7.09,1.94,1.73,2.67,4.69,1.75,7.12-.92,2.43-3.42,4.18-6.01,4.19-.36,4.85-.91,9.69-1.65,14.5-4.19,1.98-10.52,3.65-18.08,1.71"/>
      <path d="M290.64,272.62c-2.12,0-4.41-.25-6.83-.88-10.08-2.58-15.17-7.5-17.65-11.18-.08-.12-.1-.26-.06-.39,1.01-3.21,2.04-6.51,3.15-9.7,5.53-15.85,12.89-26.1,22.5-31.33,1.69-.92,4.25-2.11,6.91-1.79,2.4.29,4.95,2.17,5.06,4.83.12,2.97-2.47,4.66-4.98,6.28-1.75,1.14-3.56,2.31-4.41,3.91,1.47-.72,3.27-.83,5.05-.26,2.18.7,3.8,2.24,4.4,4.16,1.52.29,2.91,1.26,3.83,2.71.93,1.46,1.22,3.13.83,4.64,1.93,1.88,2.62,4.89,1.66,7.43-.94,2.49-3.37,4.28-6.02,4.47-.35,4.69-.9,9.44-1.62,14.13-.02.15-.12.28-.26.34-2.8,1.32-6.77,2.62-11.56,2.62M284.03,270.86c7.47,1.92,13.64.23,17.55-1.58.72-4.72,1.26-9.5,1.61-14.22.02-.24.21-.42.45-.42,2.39-.02,4.74-1.65,5.59-3.9.84-2.24.16-5.03-1.63-6.62-.14-.12-.19-.31-.13-.48.43-1.32.19-2.83-.65-4.15-.84-1.32-2.1-2.17-3.47-2.34-.19-.02-.34-.16-.39-.34-.44-1.75-1.88-3.17-3.87-3.8-1.99-.63-3.98-.31-5.35.85-.15.13-.36.15-.53.05-.17-.1-.26-.29-.22-.48.5-2.64,2.91-4.2,5.24-5.71,2.4-1.56,4.66-3.02,4.56-5.48-.08-2.14-2.27-3.73-4.25-3.96-2.4-.29-4.78.83-6.36,1.69-9.41,5.11-16.63,15.2-22.08,30.83-1.09,3.12-2.1,6.34-3.08,9.46,2.44,3.52,7.36,8.16,17,10.63"/>
      <path d="M286.08,257.34c-.41,0-.82-.08-1.22-.24-.23-.1-.34-.37-.24-.6s.37-.34.6-.24c1.3.55,2.82-.27,3.66-1.35.79-1.03,1.2-2.34,1.59-3.61.07-.21.13-.43.2-.64.49-1.53,1.19-3.23,2.6-4.27.76-.56,1.64-.86,2.49-1.16.4-.14.82-.28,1.2-.45,1.02-.44,2.12-1.3,2.16-2.41.04-1.3-1.36-2.26-2.2-2.71-3-1.63-6.63-2.15-9.97-1.42-3.33.73-6.42,2.71-8.48,5.44-.15.2-.44.24-.64.09-.2-.15-.24-.44-.09-.64,2.18-2.9,5.47-5.01,9.01-5.78s7.41-.22,10.6,1.51c1.76.96,2.71,2.22,2.67,3.54-.04,1.3-1.05,2.51-2.71,3.22-.42.18-.85.33-1.26.47-.82.28-1.6.55-2.25,1.03-1.2.89-1.82,2.42-2.27,3.81-.07.21-.13.42-.2.64-.42,1.35-.85,2.74-1.74,3.89-.8,1.05-2.15,1.88-3.51,1.88"/>
      <path d="M295.29,250.14c-1.19,0-2.41-.42-3.2-1.43-.16-.2-.12-.49.08-.64.2-.16.48-.12.64.08.97,1.23,2.84,1.3,4.12.75,1.24-.53,2.35-1.62,3.38-3.33,1.48-2.45,2.37-5.26,2.57-8.13.02-.25.23-.44.49-.42.25.02.44.24.42.49-.21,3.01-1.14,5.96-2.7,8.54-1.13,1.87-2.37,3.08-3.8,3.69-.6.26-1.3.4-2,.4"/>
      <path d="M299.64,253.24c-2.15,0-4.18-1.33-4.77-3.19-.08-.24.06-.5.3-.57.24-.08.5.06.57.3.52,1.63,2.43,2.74,4.36,2.53,1.7-.18,3.4-1.28,4.66-3,1.11-1.52,1.79-3.25,2.55-5.36.09-.24.35-.36.59-.27.24.09.36.35.27.58-.62,1.71-1.39,3.85-2.67,5.59-1.41,1.93-3.35,3.16-5.3,3.37-.18.02-.37.03-.55.03"/>
      <path d="M303.12,255.36c-1.45,0-2.91-.75-3.7-1.98-.14-.21-.07-.49.14-.63.21-.14.49-.07.63.14.76,1.18,2.3,1.8,3.66,1.47.24-.06.49.09.55.34.06.25-.09.49-.34.55-.31.07-.62.11-.94.11"/>
      <path class="cls-5" d="M199.22,256.14c1.16-.67,5.87,2.83,7.03,3.47,5.02,2.79,10.04,5.58,15.06,8.38,11.39,6.34,22.79,12.67,34.19,19.01,5.22-8.14,8.13-17.42,11.03-26.69,2.68,3.96,7.77,8.53,17.39,10.99,7.56,1.94,13.89.27,18.08-1.71-2.25,14.66-6.27,29.05-11.94,42.75-2.65,6.41-5.88,12.92-11.42,17.08-5.54,4.16-12.89,5.44-19.75,4.51-6.86-.93-14.9-3.5-20.79-7.15-14.87-9.19-27.8-16.12-34.86-32.08-3.53-7.98-3.14-23.89-4.14-32.57-.14-1.19-1.15-5.26.13-5.99"/>
      <path d="M263.11,334.67c-1.41,0-2.85-.1-4.29-.29-7.35-.99-15.38-3.76-20.97-7.21-1.17-.72-2.33-1.43-3.47-2.13-13.42-8.22-25.01-15.32-31.57-30.15-2.54-5.73-3.06-15.27-3.52-23.68-.18-3.35-.36-6.51-.65-9.02-.02-.21-.08-.51-.14-.87-.42-2.44-.73-4.87.49-5.58.96-.55,2.95.53,6.29,2.72.51.33.95.62,1.19.75l48.87,27.18c5.05-8.02,7.95-17.27,10.75-26.22.05-.17.2-.29.37-.32.18-.03.35.05.44.2,2.4,3.54,7.32,8.3,17.12,10.81,7.62,1.95,13.87.16,17.77-1.69.15-.07.33-.05.47.05.14.1.21.27.18.44-2.26,14.73-6.29,29.15-11.97,42.86-2.68,6.48-5.94,13.05-11.57,17.27-4.24,3.18-9.84,4.89-15.79,4.89M199.45,256.53c-.77.44-.24,3.49-.05,4.63.07.38.12.69.15.92.29,2.54.47,5.72.65,9.08.46,8.33.98,17.78,3.45,23.36,6.45,14.57,17.93,21.6,31.21,29.74,1.14.7,2.3,1.41,3.47,2.13,5.49,3.39,13.38,6.11,20.61,7.08,7.28.98,14.35-.63,19.41-4.42,5.45-4.09,8.64-10.53,11.27-16.89,5.55-13.38,9.51-27.44,11.79-41.81-4.07,1.77-10.22,3.29-17.61,1.39-9.4-2.41-14.46-6.85-17.11-10.42-2.78,8.87-5.72,17.98-10.81,25.92-.13.2-.39.27-.61.15l-49.25-27.39c-.27-.15-.7-.43-1.24-.79-1.16-.76-4.67-3.07-5.33-2.69"/>
      <path d="M248.85,295.15c-.12,0-.24-.05-.33-.14-.17-.18-.17-.47.01-.65,1.85-1.77,3.53-3.73,5-5.83.14-.21.43-.26.64-.11.21.15.26.43.11.64-1.51,2.14-3.23,4.15-5.12,5.96-.09.08-.2.13-.32.13"/>
      <path class="cls-5" d="M202.59,248.34c1.94.51,3.45,2.02,3.98,3.96,7.66,28.44,22.46,74.54,29.01,103.31,1.14,5.01,1.92,10.3.47,15.22-1.32,4.49-4.42,8.28-8.05,11.22-3.63,2.94-7.81,5.11-11.96,7.26-5.74-13.01-7.4-47.41-11.99-60.87-4.46-13.04-8.92-26.12-11.73-39.61-1.97-9.45-33.2-8.61-32.92-18.27.08-2.74-9.73-17.52-7.9-19.77,4.38-5.37,47.34-3.44,51.12-2.45"/>
      <path d="M216.03,389.77c-.05,0-.1,0-.15-.03-.12-.04-.21-.13-.27-.25-3.16-7.17-5.08-20.65-6.93-33.7-1.55-10.87-3-21.14-5.08-27.21-4.39-12.84-8.93-26.13-11.75-39.67-.91-4.35-8.81-6.49-16.44-8.56-8.56-2.32-16.64-4.52-16.49-9.81.03-1.02-1.72-4.39-3.42-7.64-3.41-6.56-5.56-10.96-4.38-12.4,4.63-5.68,48.15-3.5,51.59-2.61,2.09.55,3.74,2.19,4.3,4.28,2.92,10.84,6.85,24.17,11.02,38.28,6.85,23.22,13.94,47.23,17.99,65.04,1.08,4.75,1.98,10.3.46,15.45-1.22,4.14-4.06,8.09-8.2,11.45-3.68,2.98-7.93,5.18-12.04,7.31-.07.03-.14.05-.21.05M178.75,247.64c-.49,0-.98,0-1.48,0-14.44.08-23.72,1.33-25.44,3.44-.88,1.08,2.35,7.29,4.48,11.4,2.2,4.24,3.55,6.9,3.52,8.09-.13,4.58,7.97,6.78,15.81,8.91,7.91,2.15,16.08,4.36,17.1,9.26,2.81,13.48,7.34,26.74,11.72,39.56,2.1,6.15,3.56,16.46,5.12,27.38,1.8,12.71,3.67,25.85,6.67,33.01,3.93-2.04,7.96-4.17,11.45-6.99,4-3.24,6.73-7.04,7.9-11,1.46-4.95.58-10.36-.47-14.99-4.05-17.79-11.13-41.78-17.98-64.99-4.17-14.12-8.1-27.46-11.02-38.31-.48-1.78-1.88-3.17-3.65-3.63-1.81-.47-12.6-1.15-23.73-1.15"/>
      <path class="cls-5" d="M102.42,453.21c17.87-47.77,34.44-89.8,43.01-105.05l73.85-2.24s6.41,46.81,6.07,107.38l-122.93-.08Z"/>
      <path d="M172.72,453.74s-.1,0-.14-.02c-.24-.08-.37-.34-.29-.58l19.68-60c1.2-3.65,4.26-6.45,8-7.32l5.5-1.27c.25-.06.49.1.55.34.06.25-.1.49-.34.55l-5.5,1.27c-3.43.79-6.24,3.36-7.34,6.71l-19.68,60c-.06.19-.24.31-.43.31"/>
      <path d="M102.42,453.66c-.05,0-.11,0-.16-.03-.24-.09-.36-.35-.27-.59,21.19-56.63,35.67-92,43.04-105.12.08-.14.22-.23.39-.23l73.85-2.24h.01c.23,0,.42.17.45.4.06.47,6.39,47.3,6.06,107.21,0,.25-.2.45-.46.45h0c-.25,0-.46-.21-.45-.46.32-56.87-5.37-101.94-5.99-106.67l-73.18,2.22c-7.39,13.26-21.81,48.5-42.86,104.76-.07.18-.24.3-.43.3"/>
      <path class="cls-7" d="M155.86,348.27h62.24c3.17,0,5.47-3.02,4.63-6.09-1.94-7.04-5.5-19.89-10.27-37.07-7.4-26.63-12.17-45.38-14.76-51.6s-3.04-9.59-13.57-10.06c-9.71-.43-21.37-1.92-22.52,9.06-.22,2.13-1.38,4.05-3.1,5.33l-6.89,5.12,4.25,85.31Z"/>
      <path class="cls-5" d="M178.65,274.06c-.13,0-.25-.05-.34-.15l-9.73-10.62c-.17-.19-.16-.48.03-.65.19-.17.48-.16.65.03l9.33,10.18,7.71-12.23c.07-.11.17-.18.29-.2.12-.02.25,0,.35.07l10.19,7.06,1.53-5.54c.07-.24.32-.39.56-.32.24.07.39.32.32.56l-1.71,6.16c-.04.14-.15.26-.29.31-.14.05-.29.03-.42-.05l-10.32-7.15-7.77,12.33c-.08.12-.2.2-.35.21-.01,0-.03,0-.04,0"/>
      <path class="cls-5" d="M238.27,319.48h32.17c9.64,0,19.16,2.12,27.9,6.2l-7.99,2.96,15.4,26.74c2.59,4.49-2.57,9.65-6.4,6.36-.09-.08-.17-.15-.26-.24.95,4.63-5.36,5.82-8.55,1.78.87,4.24-4.89,6.36-8.74,1.82,1.4,4.87-5.45,6.79-8.59,1.79-3.31-5.28-13.49-22.7-13.49-22.7h-22.03l.58-24.71Z"/>
      <path d="M278.09,370.29c-1.84,0-3.89-.95-5.27-3.16-3.07-4.9-12.15-20.42-13.36-22.48h-21.77c-.12,0-.24-.05-.33-.14-.09-.09-.13-.21-.13-.33l.58-24.71c0-.25.21-.45.46-.45h32.17c9.64,0,19.36,2.16,28.09,6.24.17.08.27.25.26.43,0,.19-.12.35-.3.41l-7.49,2.77,15.13,26.28c1.53,2.65.54,5.52-1.23,6.98-1.6,1.33-3.61,1.46-5.28.39-.04,1.44-.79,2.61-2.13,3.23-1.72.8-4.39.57-6.44-1.25-.12,1.35-.91,2.49-2.2,3.12-1.69.82-4.21.69-6.43-1.23-.02,1.53-.85,2.82-2.31,3.47-.61.27-1.31.42-2.03.42M238.16,343.73h21.56c.16,0,.31.09.39.23.1.17,10.21,17.47,13.48,22.69,1.65,2.64,4.35,3.2,6.16,2.39,1.5-.67,2.1-2.09,1.6-3.81-.06-.21.03-.43.22-.53.19-.1.43-.06.56.11,2.1,2.48,4.69,2.79,6.32,2,1.33-.64,1.93-1.93,1.63-3.43-.04-.21.06-.42.26-.51.19-.09.42-.04.55.13,1.81,2.29,4.56,2.7,6.22,1.93,1.28-.59,1.83-1.81,1.52-3.33-.04-.2.05-.4.23-.49.18-.1.39-.07.54.07.08.08.16.15.24.22,1.71,1.47,3.54.98,4.69.03,1.43-1.18,2.35-3.51,1.02-5.82l-15.4-26.75c-.07-.12-.08-.26-.03-.38.05-.13.15-.23.27-.27l6.95-2.57c-8.35-3.73-17.56-5.7-26.7-5.7h-31.72l-.55,23.8Z"/>
      <path class="cls-5" d="M270.22,346.77l-8.84,3.82c-1.78.77-3.85-.05-4.62-1.84-.77-1.78.05-3.86,1.83-4.63l8.84-3.82c1.78-.77,3.85.05,4.62,1.84.77,1.78-.05,3.85-1.83,4.63"/>
      <path d="M259.99,351.33c-.49,0-.99-.09-1.46-.28-.99-.39-1.76-1.15-2.18-2.12-.87-2.01.06-4.36,2.07-5.23l8.84-3.82c.97-.42,2.05-.44,3.04-.05.99.39,1.76,1.15,2.18,2.12.87,2.01-.06,4.36-2.07,5.23l-8.84,3.82c-.51.22-1.04.33-1.57.33M268.83,340.47c-.41,0-.82.08-1.21.25l-8.84,3.82c-1.55.67-2.26,2.48-1.59,4.03.32.75.92,1.33,1.68,1.63.76.3,1.59.29,2.34-.04l8.84-3.82c1.55-.67,2.26-2.48,1.59-4.03-.32-.75-.92-1.33-1.68-1.63-.36-.14-.75-.22-1.13-.22M270.22,346.77h0,0Z"/>
      <path class="cls-5" d="M273.74,352.75l-8.84,3.82c-1.78.77-3.85-.05-4.62-1.84-.77-1.79.05-3.86,1.83-4.63l8.84-3.82c1.78-.77,3.85.05,4.62,1.84.77,1.78-.05,3.85-1.83,4.63"/>
      <path d="M263.51,357.32c-.49,0-.99-.09-1.46-.28-.99-.39-1.76-1.15-2.18-2.12-.87-2.01.06-4.36,2.07-5.23l8.84-3.82c.97-.42,2.05-.44,3.04-.05.99.39,1.76,1.15,2.18,2.12.87,2.01-.06,4.36-2.07,5.23l-8.84,3.82c-.51.22-1.04.33-1.57.33M272.35,346.46c-.41,0-.82.08-1.21.25l-8.84,3.82c-1.55.67-2.26,2.48-1.59,4.03.32.75.92,1.33,1.68,1.63.76.3,1.59.29,2.34-.04l8.84-3.82c1.55-.67,2.26-2.48,1.59-4.03-.32-.75-.92-1.33-1.68-1.63-.36-.15-.75-.22-1.13-.22M273.74,352.75h0,0Z"/>
      <path class="cls-5" d="M277.77,358.74l-8.84,3.82c-1.78.77-3.85-.05-4.62-1.84-.77-1.78.05-3.86,1.83-4.63l8.84-3.82c1.78-.77,3.85.05,4.62,1.84.77,1.79-.05,3.86-1.83,4.63"/>
      <path d="M267.54,363.31c-.5,0-.99-.09-1.47-.28-.99-.39-1.76-1.15-2.18-2.12-.87-2.01.06-4.36,2.07-5.23l8.84-3.82c.97-.42,2.05-.44,3.04-.05.99.39,1.76,1.15,2.18,2.12.87,2.01-.06,4.36-2.07,5.23l-8.84,3.82c-.51.22-1.04.33-1.57.33M276.38,352.45c-.41,0-.82.08-1.21.25l-8.84,3.82c-1.55.67-2.26,2.48-1.6,4.03.32.75.92,1.33,1.68,1.63.76.3,1.59.29,2.34-.04l8.84-3.82c1.55-.67,2.26-2.48,1.6-4.03-.32-.75-.92-1.33-1.68-1.63-.36-.15-.75-.22-1.13-.22"/>
      <path class="cls-5" d="M281.09,363.64l-7.29,3.15c-1.47.63-3.17-.04-3.81-1.51s.04-3.18,1.51-3.81l7.29-3.15c1.47-.64,3.18.04,3.81,1.51.63,1.47-.04,3.18-1.51,3.81"/>
      <path d="M272.65,367.49c-.42,0-.84-.08-1.24-.24-.83-.33-1.49-.97-1.84-1.79-.73-1.7.05-3.68,1.75-4.41l7.29-3.15c.82-.36,1.73-.37,2.57-.04.83.33,1.49.97,1.84,1.79.73,1.7-.05,3.68-1.75,4.41l-7.29,3.15c-.43.18-.88.28-1.33.28M279.94,358.53c-.33,0-.66.07-.97.2l-7.29,3.15c-1.24.53-1.81,1.98-1.27,3.21.26.6.73,1.06,1.34,1.3.61.24,1.27.23,1.87-.03l7.29-3.15c1.24-.53,1.81-1.98,1.27-3.21-.26-.6-.73-1.06-1.34-1.3-.29-.12-.6-.17-.9-.17"/>
      <path class="cls-5" d="M295.33,326.78l-18.91,6.31s-.42,6.89,6.35,5.39c9.52-2.12,11.46,1.74,16.49,3.09,8.2,2.21,12.52-2.29,12.52-2.29l-16.44-12.49Z"/>
      <path d="M303.68,342.64c-1.36,0-2.87-.18-4.54-.63-1.52-.41-2.77-1.04-3.98-1.66-2.94-1.49-5.72-2.89-12.29-1.43-2.15.48-3.85.2-5.06-.83-2.02-1.73-1.85-4.89-1.85-5.03.01-.19.14-.35.31-.41l18.91-6.31c.24-.08.5.05.58.29.08.24-.05.5-.29.58l-18.61,6.21c.01.77.18,2.83,1.53,3.98.98.83,2.41,1.04,4.26.63,6.89-1.53,9.95.01,12.9,1.51,1.22.62,2.38,1.2,3.81,1.59,7.85,2.11,12.03-2.13,12.07-2.17.17-.18.46-.19.65-.01.18.17.19.46.01.65-.15.15-3.01,3.05-8.43,3.05"/>
      <path class="cls-5" d="M140.05,267.67c3.24-3.25,6.43-4.82,7.49-9.28.72-3,.86-7.32,3.93-7.59,0,0,6.18-.69,10.43,6.44,2.13,3.57,2.76,7.83,3.32,11.95,3.65,26.83,6.46,67.89,1.53,94.51-.71,3.82-3.55,19.9-12.08,23.99-5.45,2.61-12.32,2.05-18.36,2.05s-27.37,2.2-28.97-2.04c-.31-.83-1.32-1.38-1.22-3.46,2.8-12.59,12.82-52.9,19.99-77.56,5.07-17.44,8.88-33.94,13.92-38.99"/>
      <path d="M113.86,390.55h-1.68c-1.98,0-3.82-.88-5.06-2.42-1.24-1.54-1.71-3.54-1.29-5.47,4.85-22.29,26.09-103.13,32.74-114.07,1.03-1.69,2.55-3.04,4.01-4.34,2.02-1.79,3.93-3.49,4.52-5.95.13-.53.23-1.1.35-1.71.53-2.8,1.13-5.98,3.99-6.23.19-.02,4.88-.48,8.98,4.08.17.19.15.48-.04.65-.19.17-.48.15-.65-.03-3.79-4.22-8.17-3.79-8.21-3.79-2.18.19-2.69,2.89-3.18,5.5-.12.62-.23,1.2-.36,1.75-.65,2.74-2.76,4.61-4.8,6.42-1.42,1.26-2.88,2.56-3.84,4.13-6.61,10.87-27.79,91.54-32.63,113.79-.36,1.67.04,3.38,1.11,4.71,1.06,1.32,2.65,2.08,4.35,2.08,10.84,0,29.66-.03,33.9-.32,7.11-.49,12.66-3.46,14.84-7.95,1.47-3.01,9.18-27.61,9.08-31.15,0-.25.19-.46.44-.47.25-.01.46.19.47.44.11,3.76-7.65,28.43-9.17,31.57-3.36,6.9-12.03,8.22-15.6,8.47-4.05.28-21.26.33-32.28.33"/>
      <path class="cls-5" d="M161.73,270.98l32.43,47.27h57.12v37.66l-62.98,3.64c-.18.01-.36.02-.54.02-12.19-.09-23.58-6.09-30.56-16.12l-19.04-27.37c-11.5-16.53-4.98-39.47,13.5-47.45l.78-.33c3.34-1.45,7.24-.32,9.3,2.68"/>
      <path d="M171.23,356.07c-.07,0-.14-.02-.2-.05-5.67-2.84-10.58-7.09-14.2-12.3l-20.75-29.83c-.14-.21-.09-.49.11-.64.21-.14.49-.09.64.11l20.75,29.83c3.53,5.08,8.33,9.23,13.86,12,.23.11.32.39.2.61-.08.16-.24.25-.41.25"/>
      <path d="M188.05,360.03c-12.46,0-24.12-6.1-31.23-16.31-.14-.21-.09-.49.11-.64.21-.14.49-.09.64.11,6.93,9.97,18.32,15.92,30.45,15.92l62.79-3.63v-36.77h-33.9c-.25,0-.46-.2-.46-.46s.2-.46.46-.46h34.36c.25,0,.46.21.46.46v37.66c0,.24-.19.44-.43.46l-63.25,3.66h0Z"/>
      <path d="M160.33,206.97c.75-2.58,7.62-10.59,9.74-12.24,2.12-1.65,5.39-2.06,7.44-.32,4.86-3.34,11.36-4.4,16.84-2.21,5.47,2.19,9.56,7.81,9.4,13.71-.16,5.9-11.23,1.17-10.82,12.03-.94,5.12-5.73,9-10.87,9.79-4.64.72-12.78-1.24-15.48-5.88-2.98-5.13-8.13-8.43-6.25-14.89"/>
      <path class="cls-5" d="M190.52,236.51l-3.84,24.35s-17.67-11.01-17.8-11.18c-.13-.17,3.01-20.89,3.01-20.89,0,0,4.09-6.85,18.63,7.72"/>
      <path class="cls-5" d="M196.98,214.62s6.59,17.41,0,23.01c-3.91,3.33-16.28,5.07-24.19-6.9,0,0-5.48.27-6.72-5.34-1.25-5.61,1.55-7.72,6.07-3.78,0,0,5.48,2.79,3.68-4.98-.78-3.39,2.1-6.47,8.42-8.3,11.43-3.31,10.37-.42,12.74,6.28"/>
      <path d="M188.83,240.55c-.81,0-1.66-.06-2.53-.18-3.83-.54-9.31-2.58-13.75-9.18-1.16-.04-5.77-.51-6.92-5.69-.67-2.99-.24-5.18,1.16-6.01,1.37-.81,3.36-.19,5.61,1.75.53.25,1.91.71,2.66.12.53-.42,1.02-1.56.31-4.62-.87-3.76,2.32-6.98,8.74-8.84,9.84-2.84,10.84-1.28,12.49,4.08.23.74.49,1.59.81,2.48.3.79,6.62,17.78-.14,23.52-1.63,1.38-4.72,2.57-8.45,2.57M172.8,230.27c.15,0,.3.08.38.21,4.28,6.47,9.57,8.46,13.25,8.98,4.55.65,8.43-.63,10.26-2.18,6.28-5.33-.07-22.33-.13-22.5,0,0,0,0,0-.01-.32-.92-.59-1.77-.82-2.52-1.47-4.77-1.91-6.2-11.36-3.47-5.9,1.7-8.85,4.53-8.11,7.76.66,2.83.44,4.7-.64,5.55-1.4,1.09-3.59,0-3.69-.05-.03-.02-.06-.04-.09-.06-1.92-1.67-3.59-2.29-4.59-1.7-1.03.61-1.3,2.49-.74,5.03,1.15,5.17,6.05,4.99,6.26,4.98h.02"/>
      <path d="M172.91,227.5c-.16,0-.31-.08-.4-.23-.71-1.25-2.15-2.08-3.6-2.08h0c-.25,0-.46-.2-.46-.46,0-.25.2-.46.45-.46h.02c1.78,0,3.49,1,4.38,2.54.13.22.05.5-.17.62-.07.04-.15.06-.23.06"/>
      <path d="M170.21,243.2l-.9-.13s1.09-7.41,1.85-12.5c.04-.25.27-.42.52-.38.25.04.42.27.38.52-.77,5.08-1.85,12.49-1.85,12.49"/>
      <path d="M189.42,243.95s-.05,0-.07,0c-.25-.04-.42-.27-.38-.52l.54-3.41c.04-.25.27-.42.52-.38.25.04.42.27.38.52l-.54,3.41c-.04.23-.23.39-.45.39"/>
      <path class="cls-5" d="M316.51,187.96c0,12.59-10.19,22.79-22.76,22.79s-22.76-10.2-22.76-22.79,10.19-22.79,22.76-22.79,22.76,10.2,22.76,22.79"/>
      <path d="M293.76,211.21c-12.8,0-23.22-10.43-23.22-23.25s10.42-23.25,23.22-23.25,23.22,10.43,23.22,23.25-10.42,23.25-23.22,23.25M293.76,165.63c-12.3,0-22.3,10.02-22.3,22.33s10,22.33,22.3,22.33,22.3-10.02,22.3-22.33-10-22.33-22.3-22.33"/>
      <path class="cls-5" d="M322.44,187.96c0,12.59-10.19,22.79-22.76,22.79s-22.76-10.2-22.76-22.79,10.19-22.79,22.76-22.79,22.76,10.2,22.76,22.79"/>
      <path d="M299.68,211.21c-12.8,0-23.22-10.43-23.22-23.25s10.42-23.25,23.22-23.25,23.22,10.43,23.22,23.25-10.42,23.25-23.22,23.25M299.68,165.63c-12.3,0-22.3,10.02-22.3,22.33s10,22.33,22.3,22.33,22.3-10.02,22.3-22.33-10-22.33-22.3-22.33"/>
      <path class="cls-5" d="M328.17,187.96c0,12.59-10.19,22.79-22.76,22.79s-22.76-10.2-22.76-22.79,10.19-22.79,22.76-22.79,22.76,10.2,22.76,22.79"/>
      <path d="M305.41,211.21c-12.8,0-23.22-10.43-23.22-23.25s10.42-23.25,23.22-23.25,23.22,10.43,23.22,23.25-10.42,23.25-23.22,23.25M305.41,165.63c-12.3,0-22.3,10.02-22.3,22.33s10,22.33,22.3,22.33,22.3-10.02,22.3-22.33-10-22.33-22.3-22.33"/>
      <path class="cls-5" d="M323.3,187.96c0,9.9-8.01,17.92-17.89,17.92s-17.89-8.02-17.89-17.92,8.01-17.92,17.89-17.92,17.89,8.02,17.89,17.92"/>
      <path d="M305.41,206.33c-10.12,0-18.35-8.24-18.35-18.37s8.23-18.37,18.35-18.37,18.35,8.24,18.35,18.37-8.23,18.37-18.35,18.37M305.41,170.5c-9.61,0-17.44,7.83-17.44,17.46s7.82,17.46,17.44,17.46,17.44-7.83,17.44-17.46-7.82-17.46-17.44-17.46"/>
      <polygon points="305.46 188.48 311.13 178.66 312.33 178.66 306.65 188.48 310.06 188.48 310.06 189.53 306.04 189.53 305.93 189.74 305.93 190.92 310.06 190.92 310.06 191.97 305.93 191.97 305.93 197.26 304.88 197.26 304.88 191.97 300.76 191.97 300.76 190.92 304.88 190.92 304.88 189.74 304.76 189.53 300.76 189.53 300.76 188.48 304.16 188.48 298.49 178.66 299.68 178.66 305.34 188.48 305.46 188.48"/>
    </g>
  </g>
</svg>