<?xml version="1.0" encoding="UTF-8"?>
<svg id="_レイヤー_2" style="fill:white;" data-name="レイヤー 2" xmlns="http://www.w3.org/2000/svg" viewBox="0 0 291.46 82.52">
  <g id="_レイヤー_1-2" data-name="レイヤー 1">
    <g>
      <path d="M41.29,82.52C18.5,82.54.02,64.08,0,41.29S18.45.01,41.23,0c22.79-.02,41.27,18.44,41.29,41.23,0,.05,0,.11,0,.16-.03,22.74-18.49,41.16-41.23,41.13M59.84,69.78c.19-.08.38-.17.56-.28.43-.29.87-.57,1.27-.89,10.03-7.98,14.78-18.31,13.49-31.14-1.91-19.01-19.89-32.88-38.76-30.04C18.21,10.1,5.37,26.67,7.33,44.95c1.79,17.29,16.89,30.79,34.19,30.45,4.86-.09,8.56-2.42,10.86-6.69,2.25-3.9,2.1-8.74-.4-12.48-2.2-3.8-6.3-6.09-10.69-5.98-2.33-.02-4.67,0-6.98,0v-7.15c2.4,0,4.71.06,7.01-.01,5.34-.18,9.29-2.68,11.46-7.54,2.18-4.88,1.38-9.55-2.19-13.5-3.48-3.86-7.94-5.07-12.97-3.63-5.47,1.57-9,6.55-9.01,12.59-.02,10.63-.02,21.27,0,31.9v1.64h-7.05v-1.75c0-10.63,0-21.27,0-31.9,0-.99.07-1.97.18-2.95,1.39-10.8,11.26-18.43,22.06-17.04,10.8,1.39,18.42,11.27,17.04,22.06-.54,4.17-2.4,8.07-5.3,11.11-.87.9-1.84,1.71-2.79,2.59,7.48,6.09,9.85,13.73,7.09,23.12h0Z"/>
      <path d="M91.53,7.17c.14-.08.22-.16.3-.16,6.71.13,13.45-.08,20.13.49,6.08.52,9.42,6.57,6.88,11.78-.79,1.62-2.26,2.9-3.38,4.29,1.08.55,2.11,1.21,3.07,1.95,2.95,2.65,3.51,6.03,2.32,9.66-1.24,3.78-3.74,6.42-7.9,6.6-6.94.3-13.9.32-20.85.45-.2-.02-.39-.07-.58-.14V7.17ZM98.72,26.8v9.15c3.99,0,7.89.15,11.76-.06,2.06-.11,3.3-1.86,3.38-3.89.09-2.3-.95-4.17-3.06-4.42-3.98-.46-8-.54-12.07-.78h0ZM98.7,13.26v7.52c3.48,0,6.89.02,10.29-.02.56-.06,1.1-.23,1.59-.52,1.5-.74,2.12-2.06,1.9-3.87-.22-1.73-1.09-2.98-2.78-3.06-3.63-.17-7.28-.05-11.01-.05h0Z"/>
      <path d="M249.28,25.15c2.25-2.51,4.52-5,6.73-7.55.48-.63,1.25-.97,2.05-.91,2.3.06,4.6.02,7.22.02-.46.55-.75.92-1.08,1.26-2.26,2.39-4.51,4.79-6.81,7.14-.62.45-.77,1.32-.32,1.94.02.03.05.06.07.09,2.68,4.47,5.26,9,7.88,13.5.26.44.5.88.9,1.59-2.52,0-4.8.05-7.08-.05-.35-.01-.75-.63-.99-1.05-1.93-3.38-3.84-6.77-5.73-10.14-.96.92-1.93,1.73-2.75,2.67-.31.45-.46,1-.44,1.54-.05,2.29-.02,4.58-.02,6.95h-6.83V7.03h6.8v18l.4.11h0Z"/>
      <path d="M184.02,16.7c2.35,0,4.55-.05,6.74.05.34.01.78.68.94,1.13,1.75,5.06,3.44,10.13,5.16,15.2.15.43.33.85.61,1.6.6-1.78,1.11-3.25,1.6-4.73,1.33-4.01,2.67-8.02,3.95-12.05.28-.89.63-1.3,1.64-1.24,1.91.1,3.83.03,5.93.03-1.05,2.85-2.04,5.53-3.04,8.21-2.52,6.77-5.05,13.55-7.58,20.32-.05.13-.09.27-.14.4-2.44,5.98-6.36,8.05-12.76,6.68-.43-.14-.78-.47-.92-.9-.25-1.42-.35-2.87-.51-4.44,1.02.08,1.93.21,2.85.22,2.65-.03,4.86-2.02,5.17-4.65-.02-.51-.15-1.01-.38-1.47-2.92-7.63-5.85-15.25-8.78-22.88-.16-.43-.29-.87-.49-1.47h0Z"/>
      <path d="M148.47,42.24c-1.93,0-3.98.03-6.03-.04-.26-.01-.58-.51-.75-.85-.23-.58-.42-1.17-.58-1.77-1.96,1.75-4.06,2.99-6.65,3.19-2.6.2-5.08-.06-7.22-1.74-3.15-2.45-3.71-6.98-1.27-10.12.8-1.03,1.86-1.82,3.07-2.29,2.45-.99,5.16-1.36,7.75-2,.69-.13,1.37-.31,2.04-.52.66-.25,1.72,0,1.75-1.22.03-1.25-.23-2.33-1.46-2.96-2.88-1.49-6.13-.44-7.78,2.62l-6.08-1.12c.85-3.38,2.66-5.74,5.98-6.64,3.6-.99,7.41-.96,11.01.08,3.52,1,5.07,3.3,5.1,7.33.03,4-.11,8,.05,11.99.08,1.98.66,3.94,1.05,6.07h0ZM140.41,30.11c-2.35.61-4.76,1.04-7.02,1.88-2.39.89-2.59,3.76-.51,5.28,1.18.82,2.7.99,4.03.44,3.03-.99,4.21-3.5,3.5-7.6h0Z"/>
      <path d="M291.46,42.25c-2.19,0-4.12.04-6.04-.04-.45-.12-.83-.42-1.06-.82-.22-.46-.38-.94-.48-1.44-1.78.87-3.45,1.92-5.26,2.5-2.18.69-4.53.6-6.64-.26-3.02-1.18-4.68-3.42-4.79-6.66-.11-3.12,1.23-5.56,4.16-6.74,2.16-.86,4.49-1.3,6.76-1.9,1.14-.3,2.3-.49,3.42-.82.64-.19,1.62,0,1.68-1.1.07-1.17-.05-2.26-1.21-2.94-2.63-1.57-6.04-.71-7.62,1.92-.06.09-.11.19-.16.29-.07.1-.15.19-.24.27-.97-.16-1.98-.32-2.99-.51-1.01-.19-2.01-.4-3.07-.61.94-3.78,3.16-6.13,6.92-6.87,3.05-.63,6.2-.59,9.24.11,4.12.97,5.87,3.2,5.89,7.41.01,2.82,0,5.65-.04,8.47-.04,3.25.05,6.48,1.52,9.74h0ZM283.17,30.09c-2.41.61-4.71,1.08-6.93,1.8-1.68.54-2.25,1.61-2.09,3.09.21,1.49,1.36,2.67,2.85,2.92,2.81.55,5.54-1.28,6.09-4.09.04-.18.06-.36.08-.54.08-.98.01-1.97.01-3.17h0Z"/>
      <path d="M211.08,29.31c-.21-7.07,5.35-12.98,12.42-13.2,9.59-.41,14.3,6.48,14.32,13.17.02,7.57-5.41,13.42-12.72,13.54-8.7.15-13.85-4.82-14.02-13.5h0ZM217.98,29.34c.34,1.51.48,2.94,1,4.21.8,2.31,3.02,3.81,5.46,3.7,2.43.08,4.64-1.41,5.48-3.7,1.17-2.66,1.14-5.7-.08-8.34-.86-2.17-2.99-3.56-5.32-3.49-2.33-.15-4.5,1.2-5.38,3.37-.5,1.38-.89,2.81-1.16,4.25h0Z"/>
      <path d="M152.79,42.13v-25.34h6.36v3.05c3.85-4.1,6.75-4.74,10.33-2.37-.69,1.9-1.39,3.82-2.09,5.75-5.05-1.88-7.27-.44-7.54,4.99-.2,4.03-.18,8.08-.26,12.12,0,.56,0,1.12,0,1.8h-6.8Z"/>
      <path d="M244.29,75.91h-3.95v-1.46c-.02-2.87-.01-5.74-.05-8.61-.02-1.21-.38-2.26-1.79-2.49-1.27-.18-2.48.61-2.83,1.84-.3,1.28-.46,2.58-.48,3.89-.07,2.24-.02,4.49-.02,6.82h-4.14c0-2.69,0-5.32,0-7.94,0-.8-.02-1.6-.05-2.4-.04-1.07-.34-2-1.56-2.18-1.26-.18-2.44.11-2.93,1.39-.35.97-.54,1.99-.55,3.02-.07,2.67-.02,5.35-.02,8.11h-4.08v-15.28h3.65c.06.49.11.99.2,1.78,1.31-1.43,2.75-2.27,4.58-2.26,1.8-.07,3.51.81,4.49,2.32,1.29-1.64,3.34-2.51,5.41-2.29,2.28.2,3.96,1.43,4.08,3.72.2,3.97.06,7.96.06,12.02h0Z"/>
      <polygon points="106.36 66.63 95.9 66.63 95.9 72.27 107.54 72.27 107.54 75.9 91.57 75.9 91.57 54.69 107.22 54.69 107.22 58.25 95.88 58.25 95.88 62.86 106.36 62.86 106.36 66.63 106.36 66.63"/>
      <rect x="173.34" y="16.74" width="6.67" height="25.41"/>
      <path d="M178.48,64.58c.62-2.67,2.27-4.05,4.75-4.29,1.54-.15,3.09-.1,4.62.14,2.68.43,3.77,1.82,3.84,4.55.05,1.97-.05,3.95.03,5.92.07,1.67.31,3.33.49,5.1-1.32-.59-3.47,1.26-4.34-1.53-1.37,1.25-3.18,1.92-5.04,1.84-2.58-.14-4.43-1.58-4.73-3.78-.36-2.57.79-4.37,3.47-5.18,1.61-.49,3.3-.73,4.92-1.17.4-.11,1.03-.61,1-.86-.05-.62-.33-1.2-.81-1.61-1.3-.72-3.54-.57-4.26.92-.26.31-.66.48-1.07.46-.93-.08-1.84-.32-2.87-.51h0ZM187.43,68.69c-1.26.29-2.46.5-3.62.86-1.04.33-1.91.92-1.56,2.25.36,1.17,1.6,1.84,2.78,1.5,2.07-.5,2.72-1.69,2.4-4.6h0Z"/>
      <path d="M152.66,69.45h-10.17c.02,1.91.82,3.11,2.27,3.55,1.49.45,2.31.01,3.63-1.96,1.07.17,2.18.33,3.29.51.2.05.41.13.6.22-.48,1.91-1.88,3.45-3.74,4.09-4.87,1.86-9.43-.67-10.22-5.8-.23-1.62-.13-3.27.29-4.85.93-3.52,3.42-5.15,7.16-5.03,3.3.11,5.66,2.07,6.42,5.46.26,1.17.3,2.39.47,3.81h0ZM148.4,66.82c-.23-2.45-1.46-3.69-3.27-3.48-1.6.18-2.65,1.63-2.48,3.48h5.76Z"/>
      <path d="M261.84,69.47h-10.17c0,1.94.87,3.19,2.43,3.58,1.41.36,2.36-.18,3.4-2.02l4.11.67c-.31.68-.67,1.33-1.06,1.97-1.63,2.3-4.75,3.22-8.01,2.41-2.93-.73-4.78-2.87-5.13-6.17-.14-1.31-.09-2.63.15-3.92.74-3.81,3.3-5.88,6.99-5.83,3.75.04,6.2,2.12,6.91,5.94.19,1.04.24,2.11.37,3.38h0ZM257.47,66.85c.07-2.23-1.16-3.6-3.01-3.52-1.72.08-2.9,1.61-2.68,3.52h5.69Z"/>
      <path d="M203.81,75.91v-15.32h3.7c.04.57.08,1.08.14,1.78.35-.27.63-.46.88-.68,1.69-1.51,4.07-1.97,6.2-1.21,1.62.49,2.82,1.61,2.89,3.29.14,4.02.05,8.05.05,12.15h-3.95c0-.48,0-.97,0-1.46-.04-2.91-.06-5.82-.14-8.73.09-1.19-.78-2.24-1.96-2.37-1.35-.28-2.71.46-3.2,1.75-.32.98-.49,2-.5,3.03-.07,2.57-.02,5.14-.02,7.79h-4.06Z"/>
      <path d="M264.96,60.58h3.71c.06.61.11,1.14.18,1.88,1.45-1.51,3.03-2.36,5.05-2.31,2.97.08,4.82,1.51,4.97,4.44.19,3.74.05,7.5.05,11.32h-4.13c0-2.22,0-4.41,0-6.6,0-1.17,0-2.35-.06-3.52-.06-1.17-.52-2.15-1.79-2.38-1.3-.24-2.54.06-3.16,1.28-.43.88-.66,1.84-.69,2.82-.09,2.76-.03,5.53-.03,8.39h-4.09v-15.31h0Z"/>
      <path d="M111.13,60.56h3.72c.06.61.11,1.18.19,1.97,1.9-2.11,4.11-2.83,6.69-2.15,2.12.56,3.28,1.82,3.35,4,.11,3.8.03,7.6.03,11.5h-3.99c0-1.07.02-2.17,0-3.27-.05-2.25-.06-4.51-.19-6.76-.1-1.66-.8-2.4-2.1-2.52-1.41-.19-2.76.67-3.18,2.03-.26,1.05-.39,2.12-.39,3.2-.05,2.43-.02,4.86-.02,7.35h-4.1v-15.36h0Z"/>
      <path d="M129.58,63.88l-1.82-.14v-3.13l1.59-.18c.78-1.02-.55-2.59.92-3.43,1.06-.6,2.1-1.23,3.37-1.97v5.44h2.72v3.27l-2.53.13c0,2.75-.03,5.45.05,8.15,0,.29.64.71,1.04.81.53,0,1.05-.08,1.54-.25.12,1.05.22,2.05.37,3.44-1.6.07-3.09.32-4.53.14-1.78-.22-2.57-1.27-2.66-3.27-.1-2.39-.06-4.8-.07-7.19,0-.56,0-1.12,0-1.81h0Z"/>
      <path d="M281.56,60.56l1.78-.13c-1.16-3.59,1.91-3.96,4.03-5.38v5.42h2.81v3.3h-2.64c0,2.77-.15,5.45.05,8.09.13,1.69,1.53.8,2.46.73.07.07.17.13.18.2.52,3.08.49,3.16-1.55,3.44-3.16.43-4.99-.56-5.19-3-.19-2.43-.17-4.88-.23-7.32-.02-.65,0-1.3,0-2.04l-1.69-.14v-3.18h0Z"/>
      <path d="M173.43,55.04v5.46h2.73v3.23l-2.58.13c0,2.71-.04,5.37.06,8.03.01.34.75.76,1.23.92.33.12.79-.14,1.15-.22.09.08.16.12.15.15-.08,1.1,1.33,2.55-.5,3.23-2.68.99-5.46.16-5.96-1.73-.28-1.28-.42-2.59-.42-3.9-.06-2.11-.02-4.22-.02-6.42l-1.71-.19v-3.1l1.72-.23c0-.84-.23-1.76.07-2.47.26-.62,1.07-1.05,1.69-1.48.68-.47,1.43-.85,2.37-1.39h0Z"/>
      <path d="M155.75,60.58h3.64c.07.51.13,1.01.22,1.76,1.63-2.44,3.64-2.74,6.1-1.42-.41,1.16-.81,2.29-1.24,3.51-.41-.14-.75-.26-1.09-.37-1.46-.47-2.58-.03-3,1.44-.33,1.27-.51,2.57-.54,3.88-.09,2.06-.03,4.13-.04,6.2-.02.12-.06.23-.11.33h-3.95v-15.33h0Z"/>
      <rect x="195.62" y="60.6" width="3.91" height="15.31"/>
      <rect x="173.34" y="7.09" width="6.71" height="6.13"/>
      <rect x="195.63" y="54.68" width="3.94" height="3.72"/>
    </g>
  </g>
</svg>
