<?xml version="1.0" encoding="UTF-8"?>
<svg id="_レイヤー_2" data-name="レイヤー 2" xmlns="http://www.w3.org/2000/svg" viewBox="0 0 589.8 347">
  <defs>
    <style>
      .cls-1, .cls-2 {
        fill-rule: evenodd;
      }

      .cls-1, .cls-3 {
        fill: #fff;
      }

      .cls-2, .cls-4 {
        fill: #9bc9df;
      }
    </style>
  </defs>
  <g id="_レイヤー_1-2" data-name="レイヤー 1">
    <g>
      <path d="M123.06,198.98c6.2-12.72,9.38-27.54,9.54-44.45,0-1.4-.37-2.46-1.11-3.2-.74-.74-1.81-1.11-3.2-1.11h-20.44c-3.28,0-7.26.17-11.94.49l-2.96.25c-.82.08-1.46-.14-1.91-.68-.45-.53-.68-1.13-.68-1.79,0-.74.22-1.36.68-1.85.45-.49,1.09-.7,1.91-.62l2.96.25c5.17.33,9.15.49,11.94.49h26.72c1.4,0,2.46-.39,3.2-1.17.74-.78,1.11-1.82,1.11-3.14v-18.47c0-2.05.59-3.59,1.78-4.62,1.19-1.03,2.69-1.54,4.5-1.54,1.48,0,2.71.29,3.69.86.98.58,1.48,1.15,1.48,1.72,0,.66-.66,1.03-1.97,1.11-.49.08-.88.37-1.17.86-.29.49-.43,1.03-.43,1.6v18.47c0,1.32.39,2.36,1.17,3.14.78.78,1.83,1.17,3.14,1.17h24.87c1.64,0,3.02-.35,4.12-1.05,1.11-.7,2.28-1.66,3.51-2.89,1.8-1.8,3.65-2.71,5.54-2.71,1.07,0,2.13.33,3.2.99,1.23.82,2.38,1.81,3.45,2.95.9,1.07,1.35,2.09,1.35,3.08,0,.9-.37,1.64-1.11,2.22-.74.57-1.81.86-3.2.86l-16.87.12-31.28-.12c-1.4,0-2.46.37-3.2,1.11-.74.74-1.11,1.81-1.11,3.2-.08,2.63-.37,6.89-.86,12.8-.17,1.48.1,2.61.8,3.39.7.78,1.74,1.17,3.14,1.17h20.69c.74-.08,1.42-.31,2.03-.68.62-.37,1.29-.88,2.03-1.54,1.23-1.23,2.26-1.85,3.08-1.85,1.31-.08,2.69.23,4.12.92,1.44.7,2.65,1.56,3.63,2.58.98,1.03,1.52,1.87,1.6,2.53.08.57-.02,1.03-.31,1.35-.29.33-.68.7-1.17,1.11-.66.49-1.17,1.03-1.54,1.6-.37.58-.55,1.4-.55,2.46,0,12.64-1.11,23.09-3.33,31.34-2.22,8.25-5.87,13.93-10.96,17.05-2.38,1.48-4.35,2.22-5.91,2.22-.41,0-.86-.08-1.35-.25-1.07-.41-1.79-.86-2.15-1.36-.37-.49-.68-1.15-.92-1.97-.17-.74-.45-1.35-.86-1.85-.41-.49-1.15-.99-2.22-1.48-2.05-.9-4.35-1.72-6.89-2.46-2.55-.74-4.11-1.19-4.68-1.35-1.4-.49-2.09-1.27-2.09-2.34,0-.57.27-1.07.8-1.48.53-.41,1.17-.49,1.91-.25,8.13,2.46,13.75,3.69,16.87,3.69,1.48,0,2.91-.45,4.31-1.35,6.57-4.02,9.85-14.9,9.85-32.63l-.12-5.29c-.08-1.8-.62-3.16-1.6-4.06-.98-.9-2.34-1.36-4.06-1.36h-21.43c-2.63,0-4.19,1.27-4.68,3.82-5.66,25.28-20.44,42.4-44.33,51.35-.17.08-.41.12-.74.12-.41,0-.76-.12-1.05-.37-.29-.25-.43-.58-.43-.98s.16-.82.49-1.23c.33-.41.78-.74,1.35-.99,13.95-5.91,24.03-15.23,30.23-27.95"/>
      <path d="M216.64,142.28c-.45-.53-.68-1.13-.68-1.79,0-.74.22-1.36.68-1.85.45-.49,1.09-.7,1.91-.61l2.95.25c5.17.33,9.15.49,11.94.49h75.73c1.64,0,3.02-.35,4.12-1.05,1.11-.7,2.28-1.66,3.51-2.89,1.8-1.8,3.61-2.71,5.42-2.71,2.22,0,4.47,1.31,6.77,3.94.9,1.07,1.36,2.09,1.36,3.08,0,.9-.37,1.64-1.11,2.22-.74.58-1.81.86-3.2.86h-92.6c-3.28,0-7.26.17-11.94.49l-2.95.25c-.82.08-1.46-.14-1.91-.68M243.73,160.87c-.45-.53-.68-1.13-.68-1.79,0-.74.23-1.35.68-1.85.45-.49,1.09-.7,1.91-.62l2.95.25c5.17.33,9.15.49,11.94.49h21.55c1.64,0,3.02-.35,4.12-1.05,1.11-.7,2.28-1.66,3.51-2.89,1.8-1.8,3.61-2.71,5.42-2.71,2.22,0,4.47,1.32,6.77,3.94.9,1.07,1.36,2.09,1.36,3.08,0,.9-.37,1.64-1.11,2.22-.74.58-1.81.86-3.2.86l-16.87.12-21.55-.12c-3.28,0-7.26.17-11.94.49l-2.95.25c-.82.08-1.46-.14-1.91-.68M243.73,179.22c-.45-.53-.68-1.13-.68-1.79,0-.74.23-1.35.68-1.85.45-.49,1.09-.7,1.91-.62l2.95.25c5.17.33,9.15.49,11.94.49h21.55c1.64,0,3.02-.35,4.12-1.05,1.11-.7,2.28-1.66,3.51-2.89,1.8-1.8,3.61-2.71,5.42-2.71,2.22,0,4.47,1.32,6.77,3.94.9,1.07,1.36,2.09,1.36,3.08,0,.9-.37,1.64-1.11,2.22-.74.58-1.81.86-3.2.86l-16.87.12-21.55-.12c-3.28,0-7.26.17-11.94.49l-2.95.25c-.82.08-1.46-.14-1.91-.68M245.02,192.83c0-.9.62-1.36,1.85-1.36,1.48,0,2.69.21,3.63.62.94.41,1.91.95,2.89,1.6.99.66,1.68.99,2.09.99h30.04c.74,0,1.46-.18,2.15-.55.7-.37,1.33-.8,1.91-1.29.49-.41,1.03-.8,1.6-1.17.57-.37,1.15-.56,1.72-.56,1.31,0,2.65.41,4,1.23,1.35.82,2.5,1.77,3.45,2.83.94,1.07,1.42,1.93,1.42,2.59,0,.58-.12,1.01-.37,1.29-.25.29-.62.64-1.11,1.05-.66.49-1.17,1.03-1.54,1.6-.37.57-.55,1.44-.55,2.59v22.53c0,1.56-.58,2.79-1.72,3.69-1.15.9-2.42,1.36-3.82,1.36-1.15,0-1.89-.35-2.22-1.05-.33-.7-.49-1.62-.49-2.77,0-1.48-.37-2.65-1.11-3.51-.74-.86-1.81-1.29-3.2-1.29h-28.44c-1.4,0-2.46.31-3.2.92-.74.62-1.11,1.5-1.11,2.65,0,1.48-.58,2.69-1.72,3.63-1.15.94-2.38,1.42-3.69,1.42-1.64,0-2.46-.94-2.46-2.83v-36.2ZM248.65,125.16c-.45-.53-.68-1.13-.68-1.79,0-.74.23-1.36.68-1.85.45-.49,1.09-.7,1.91-.62l2.96.25c5.17.33,9.15.49,11.94.49h9.23c1.64,0,3.02-.35,4.12-1.05,1.11-.7,2.28-1.66,3.51-2.89,1.8-1.8,3.61-2.71,5.42-2.71,2.22,0,4.47,1.32,6.77,3.94.9,1.07,1.35,2.09,1.35,3.08,0,.9-.37,1.64-1.11,2.22-.74.57-1.81.86-3.2.86l-16.87.12-9.23-.12c-3.29,0-7.27.17-11.94.49l-2.96.25c-.82.08-1.46-.14-1.91-.68M252.9,215.48c0,1.31.39,2.36,1.17,3.14.78.78,1.83,1.17,3.14,1.17l28.81.12c1.39,0,2.46-.39,3.2-1.17.74-.78,1.11-1.83,1.11-3.14v-13.3c0-1.39-.37-2.46-1.11-3.2-.74-.74-1.81-1.11-3.2-1.11h-28.81c-1.31,0-2.36.37-3.14,1.11-.78.74-1.17,1.81-1.17,3.2v13.17Z"/>
      <path d="M402.26,196.52c.49-.66.74-1.27.74-1.85,0-.99-.62-1.77-1.85-2.34-3.61-1.72-7.55-3.12-11.82-4.19-.25-.08-.58-.12-.98-.12-1.23,0-2.22.7-2.96,2.09l-2.22,3.94c-.66,1.07-1.6,1.99-2.83,2.77-1.23.78-2.5,1.17-3.82,1.17-.98,0-1.83-.12-2.52-.37-.7-.25-1.05-.66-1.05-1.23,0-.41.16-.82.49-1.23,2.3-3.28,4.72-7.74,7.27-13.36,2.54-5.62,4.92-11.84,7.14-18.66.16-.66.25-1.06.25-1.23,0-.74-.25-1.31-.74-1.72-.49-.41-1.19-.62-2.09-.62h-20.32c-3.29,0-7.27.17-11.95.49l-2.95.25c-.82.08-1.46-.14-1.91-.68-.45-.53-.68-1.13-.68-1.79,0-.74.23-1.35.68-1.85.45-.49,1.09-.7,1.91-.62l2.95.25c5.17.33,9.15.49,11.95.49h22.41c1.8,0,2.96-.86,3.45-2.59,2.54-9.77,4.35-18.39,5.42-25.86.33-2.05,1.05-3.57,2.16-4.55,1.11-.99,2.44-1.48,4-1.48,1.48,0,2.73.29,3.76.86,1.02.58,1.54,1.15,1.54,1.72,0,.74-.66,1.11-1.97,1.11-.9.08-1.44.91-1.6,2.46-.98,6.65-2.71,14.94-5.17,24.87-.08.25-.12.62-.12,1.11,0,1.56.9,2.34,2.71,2.34h32.26c1.64,0,3.02-.35,4.12-1.05,1.11-.7,2.28-1.66,3.51-2.89,1.8-1.8,3.65-2.71,5.54-2.71,1.07,0,2.13.33,3.2.99,1.23.82,2.38,1.81,3.45,2.96.9,1.07,1.36,2.09,1.36,3.08,0,.9-.37,1.64-1.11,2.22-.74.58-1.81.86-3.2.86l-23.64.12c-2.54,0-4.02,1.35-4.43,4.06-1.07,8.62-3.78,16.95-8.13,25-.33.58-.49,1.15-.49,1.72,0,1.07.57,1.89,1.72,2.46,7.06,3.94,13.15,8.48,18.29,13.61,5.13,5.13,8.72,10.08,10.77,14.84.41.82.61,1.85.61,3.08,0,1.72-.45,3.26-1.35,4.62-.9,1.35-1.93,2.03-3.08,2.03-1.07,0-2.05-.74-2.96-2.22-7.47-12.89-16.21-22.94-26.23-30.17-.58-.49-1.19-.74-1.85-.74-.9,0-1.72.49-2.46,1.48-6.24,8.13-13.85,14.8-22.84,20.01s-18.82,8.44-29.49,9.67c-.41.08-.95.12-1.6.12-1.23,0-2.18-.17-2.83-.49-.66-.33-.98-.74-.98-1.23,0-.41.29-.82.86-1.23.57-.41,1.39-.7,2.46-.86,21.92-3.78,38.34-13.42,49.25-28.94M389.46,181.87c0,1.31.78,2.09,2.34,2.34,3.53.66,7.72,1.81,12.56,3.45.49.25.99.37,1.48.37,1.15,0,2.01-.66,2.59-1.97,3.36-7.14,5.54-14.45,6.53-21.92.25-1.4,0-2.48-.74-3.26-.74-.78-1.85-1.17-3.32-1.17l-11.21-.12c-1.81,0-3.08,1.15-3.82,3.45-1.97,6.65-4.02,12.44-6.16,17.36-.17.33-.25.82-.25,1.48"/>
      <path d="M478.73,177.31l-2.96.25c-.82.08-1.46-.14-1.91-.68-.45-.53-.68-1.13-.68-1.79,0-.74.22-1.35.68-1.85.45-.49,1.09-.7,1.91-.62l2.96.25c5.17.33,9.15.49,11.94.49h33.62c1.39,0,2.46-.39,3.2-1.17.74-.78,1.11-1.83,1.11-3.14v-16.25c0-.9.61-1.35,1.85-1.35.74,0,1.76.29,3.08.86.41.33.86.49,1.35.49.33,0,.74-.12,1.23-.37,3.61-2.54,7.28-5.46,11.02-8.74,3.73-3.28,6.88-6.57,9.42-9.85.66-.9.98-1.72.98-2.46,0-.9-.35-1.6-1.05-2.09-.7-.49-1.62-.74-2.77-.74l-42.11.12c-3.28,0-7.26.17-11.94.49l-2.96.25c-.82.08-1.46-.14-1.91-.68-.45-.53-.68-1.13-.68-1.79,0-.74.22-1.36.68-1.85.45-.49,1.09-.7,1.91-.61l2.96.25c5.17.33,9.15.49,11.94.49l43.47-.12c1.23,0,2.58-.74,4.06-2.22,1.23-1.23,2.26-1.85,3.08-1.85,1.72-.08,3.45.33,5.17,1.23,1.72.9,3.14,2.03,4.25,3.39,1.11,1.35,1.66,2.61,1.66,3.75,0,1.64-1.07,2.75-3.2,3.33-1.4.33-3.53,1.52-6.4,3.57-2.88,2.05-6.94,5.13-12.19,9.24-5.91,4.6-10.02,7.68-12.31,9.24-.9.66-1.58,1.4-2.03,2.22-.45.82-.68,1.81-.68,2.96v9.11c0,1.31.39,2.36,1.17,3.14.78.78,1.83,1.17,3.14,1.17h27.83c1.64,0,3.02-.35,4.12-1.05,1.11-.7,2.28-1.66,3.51-2.89,1.8-1.8,3.65-2.71,5.54-2.71,1.07,0,2.13.33,3.2.99,1.23.82,2.38,1.81,3.45,2.96.9,1.07,1.35,2.09,1.35,3.08,0,.9-.37,1.64-1.11,2.22-.74.58-1.81.86-3.2.86l-44.7.12c-1.31,0-2.36.37-3.14,1.11-.78.74-1.17,1.81-1.17,3.2v39.53c0,3.28-1.17,5.71-3.51,7.26-2.34,1.56-4.99,2.34-7.94,2.34-.9,0-1.48-.17-1.72-.49-.25-.33-.41-.82-.49-1.48-.08-.99-.35-1.89-.8-2.71-.45-.82-1.38-1.6-2.77-2.34l-6.4-3.57c-7.47-4.02-12.23-6.69-14.28-8-.98-.66-1.48-1.4-1.48-2.22,0-.49.25-.9.74-1.23.49-.33,1.11-.41,1.85-.25.33.08,2.63,1.23,6.9,3.45.65.33,2.2,1.13,4.62,2.4,2.42,1.27,4.45,2.26,6.09,2.96,1.64.7,2.83,1.09,3.57,1.17,2.3.25,4.16-.12,5.6-1.11,1.43-.98,2.16-2.54,2.16-4.68v-31.15c0-1.39-.37-2.46-1.11-3.2s-1.81-1.11-3.2-1.11h-33.62c-3.28,0-7.27.17-11.94.49"/>
      <path d="M6.91,188.82c.82-1.19,1.76-1.74,2.83-1.66,4.27.41,7.02.61,8.25.61,1.64,0,2.63-.9,2.96-2.71l.86-4.8,1.11-5.91c.25-2.13-.66-3.2-2.71-3.2-2.46,0-5.25.21-8.37.62h-.25c-.41,0-.74-.16-.99-.49-.25-.33-.37-.74-.37-1.23,0-1.23.41-2.42,1.23-3.57.82-1.15,1.76-1.68,2.83-1.6,2.96.33,5.46.49,7.51.49,1.64,0,2.67-.94,3.08-2.83l3.82-23.89c.25-2.13,1.15-3.2,2.71-3.2.74,0,1.42.27,2.03.8.62.53.92,1.29.92,2.28,0,.49-.04.86-.12,1.11l-4.56,22.53c-.16,1.07,0,1.91.49,2.52.49.62,1.27.92,2.34.92h10.59c1.8,0,2.91-.94,3.32-2.83l3.82-24.13c.25-2.13,1.15-3.2,2.71-3.2.74,0,1.42.27,2.03.8.62.53.92,1.29.92,2.28,0,.49-.04.86-.12,1.11l-4.43,22.41c-.17.98-.02,1.79.43,2.4.45.62,1.17.92,2.15.92,3.04,0,6.03-.16,8.99-.49h.25c.41,0,.72.17.92.49.21.33.31.74.31,1.23,0,1.15-.39,2.32-1.17,3.51-.78,1.19-1.71,1.75-2.77,1.66l-7.88-.49c-1.97-.16-3.12.74-3.45,2.71l-.99,5.42-.86,5.17c-.16,1.07-.02,1.89.43,2.46.45.58,1.17.86,2.15.86,1.97,0,4.8-.2,8.5-.61h.25c.41,0,.72.17.92.49.2.33.31.74.31,1.23,0,1.15-.39,2.32-1.17,3.51-.78,1.19-1.7,1.75-2.77,1.66l-7.26-.49c-1.89-.16-3.04.78-3.45,2.83-1.97,12.64-3.16,20.32-3.57,23.03-.08,1.07-.41,1.87-.99,2.4-.57.53-1.23.8-1.97.8-.9,0-1.62-.37-2.15-1.11-.53-.74-.68-1.76-.43-3.08l4.31-21.79c.16-1.07.02-1.89-.43-2.46-.45-.57-1.21-.9-2.28-.99-1.31-.08-3.33-.12-6.03-.12h-4.56c-1.81,0-2.91.94-3.32,2.83-1.72,10.26-2.96,18.1-3.69,23.52-.08,1.07-.41,1.87-.99,2.4-.58.53-1.23.8-1.97.8-.9,0-1.62-.37-2.15-1.11-.54-.74-.68-1.76-.43-3.08l4.31-21.79c.16-.99.02-1.79-.43-2.4-.45-.62-1.17-.92-2.15-.92-1.72,0-4.72.25-8.99.74h-.25c-.41,0-.74-.18-.99-.55-.25-.37-.37-.8-.37-1.29,0-1.15.41-2.32,1.23-3.51M25.75,184.7c-.17,1.07-.02,1.89.43,2.46.45.57,1.21.86,2.28.86l4.31.12h6.4c1.89-.08,2.99-1.02,3.32-2.83l.86-5.05,1.11-6.03c.16-.98,0-1.76-.49-2.34-.49-.57-1.27-.9-2.34-.98h-10.71c-1.89,0-3,.94-3.32,2.83l-.98,5.66-.86,5.29Z"/>
      <path d="M320.59,330.93c4.64-4.75,8.18-9.97,10.63-15.65,2.45-5.68,4.01-11.27,4.68-16.79.05-.96-.17-1.7-.68-2.24-.51-.53-1.24-.8-2.19-.8h-18.47c-2.25,0-4.98.11-8.18.34l-2.02.17c-.56.06-1-.1-1.31-.46-.31-.37-.46-.77-.46-1.22,0-.51.15-.93.46-1.27.31-.34.74-.48,1.31-.42l2.02.17c3.54.23,6.27.34,8.18.34h18.73c.96,0,1.69-.27,2.19-.8.51-.53.76-1.25.76-2.15v-17.97c0-1.4.41-2.46,1.22-3.16.82-.7,1.84-1.06,3.08-1.06,1.01,0,1.86.2,2.53.59.68.39,1.01.79,1.01,1.18,0,.45-.45.7-1.35.76-.34.06-.61.25-.8.59-.2.34-.29.7-.29,1.1v17.97c0,.9.27,1.62.8,2.15.53.54,1.25.8,2.15.8h17.55c1.12,0,2.07-.24,2.83-.72.76-.48,1.56-1.14,2.4-1.98,1.24-1.24,2.5-1.86,3.8-1.86.73,0,1.46.23,2.19.67.84.56,1.63,1.24,2.36,2.02.62.73.93,1.43.93,2.11,0,.62-.25,1.13-.76,1.52-.51.4-1.24.59-2.19.59l-28.51.08c-.84,0-1.51.2-1.98.59-.48.39-.72.96-.72,1.69,0,.39.03.7.09.93,1.29,5.06,3.44,10.14,6.45,15.23,3.01,5.09,7.09,9.81,12.23,14.17,5.14,4.36,11.29,7.69,18.43,10,.62.17.93.51.93,1.01,0,.34-.16.6-.46.8-.31.2-.72.27-1.22.21-1.18-.11-2.27,0-3.25.34-.98.34-1.65.87-1.98,1.6-.51,1.07-1.27,1.43-2.28,1.1-4.11-1.35-8.1-3.74-11.98-7.17s-7.35-7.51-10.42-12.23c-3.07-4.72-5.47-9.64-7.21-14.76-.34-1.12-.73-1.69-1.18-1.69s-.87.56-1.27,1.69c-2.92,8.21-7.54,15.42-13.83,21.64-6.3,6.22-13.58,10.42-21.85,12.61l-.42.08c-.28,0-.54-.1-.76-.3-.22-.2-.34-.43-.34-.72,0-.56.42-.99,1.26-1.27,6.8-2.02,12.53-5.41,17.17-10.17"/>
      <path d="M391.15,335.61c-.73,0-1.1-.28-1.1-.84,0-.28.13-.55.38-.8.25-.25.63-.41,1.14-.46,4.72-.84,9.59-2.84,14.59-5.99,5-3.15,9.25-7.37,12.74-12.65.17-.28.25-.53.25-.76s-.1-.41-.29-.55c-.2-.14-.46-.21-.8-.21h-12.99c-2.25,0-4.98.11-8.18.34l-2.02.17c-.56.06-1-.1-1.31-.46-.31-.37-.46-.77-.46-1.22,0-.51.16-.93.46-1.27.31-.34.74-.48,1.31-.42l2.02.17c3.54.23,6.27.34,8.18.34h15.18c.73,0,1.24-.31,1.52-.93l.93-2.02c.67-1.46,1.12-2.33,1.35-2.62.34-.34.51-.62.51-.84,0-.28-.34-.42-1.01-.42h-3.37c-.96,0-1.69.21-2.19.63-.51.42-.76,1.03-.76,1.81,0,1.01-.39,1.84-1.18,2.49-.79.65-1.63.97-2.53.97-1.12,0-1.69-.64-1.69-1.94v-23.96c0-.62.42-.93,1.27-.93,1.01,0,1.84.14,2.49.42.65.28,1.31.65,1.98,1.1.67.45,1.15.67,1.43.67h20.08c.51,0,1-.13,1.48-.38.48-.25.91-.55,1.31-.89.34-.28.7-.55,1.1-.8.39-.25.79-.38,1.18-.38.62,0,1.42.28,2.4.84.98.56,1.84,1.21,2.57,1.94.73.73,1.1,1.32,1.1,1.77,0,.39-.08.69-.25.89-.17.2-.42.44-.76.72-.45.34-.8.7-1.05,1.1-.25.4-.38.99-.38,1.77v14.59c0,1.07-.39,1.91-1.18,2.53-.79.62-1.66.93-2.62.93-.79,0-1.29-.24-1.52-.72-.22-.48-.34-1.11-.34-1.9,0-1.01-.25-1.81-.76-2.4-.51-.59-1.24-.89-2.19-.89h-6.5c-.56,0-.98.06-1.26.17-.28.11-.31.28-.08.51l.76.93c.22.28.34.59.34.93s-.11.59-.34.76c-.22.17-.54.2-.93.08-.56-.17-1.04-.13-1.43.13-.39.25-.79.77-1.18,1.56l-.17.25c-.11.34-.17.54-.17.59,0,.62.36.93,1.1.93h23.96c1.12,0,2.07-.24,2.83-.72.76-.48,1.56-1.14,2.4-1.98,1.24-1.24,2.5-1.86,3.8-1.86.73,0,1.46.23,2.19.67.84.56,1.63,1.24,2.36,2.03.62.73.93,1.43.93,2.11,0,.62-.25,1.13-.76,1.52s-1.24.59-2.19.59l-21.09.08c-.34,0-.6.07-.8.21-.2.14-.29.33-.29.55s.08.48.25.76c5.74,7.54,14.73,12.26,26.99,14.17.67.06,1.01.37,1.01.93,0,.39-.17.73-.51,1.01-.34.28-.76.39-1.27.34-1.18-.11-2.21,0-3.08.34-.87.34-1.48.87-1.81,1.6-.34.79-.87,1.18-1.6,1.18-.28,0-.51-.03-.67-.08-3.66-1.12-7.23-3.04-10.71-5.74-.23-.17-.45-.25-.67-.25-.17,0-.42.2-.76.59-.17.22-.42.51-.76.84-.34.34-.62.7-.84,1.1-.23.4-.37.9-.42,1.52,0,.17-.06.97-.17,2.4-.11,1.43-.51,3.04-1.18,4.81-.67,1.77-1.57,3.27-2.7,4.51-1.63,1.8-3.29,2.7-4.98,2.7-.73,0-1.39-.21-1.98-.63-.59-.42-1.03-1.03-1.31-1.81-.39-1.01-1.08-1.84-2.07-2.49-.98-.65-2.29-1.34-3.92-2.07-1.07-.45-1.77-.76-2.11-.93-.62-.34-.93-.81-.93-1.43,0-.39.13-.72.38-.97.25-.25.58-.38.97-.38.28,0,.59.08.93.25,1.18.73,2.52,1.38,4.01,1.94,1.49.56,2.85.84,4.09.84.84,0,1.6-.17,2.28-.51,1.12-.56,1.95-1.62,2.49-3.16.53-1.55.8-3.08.8-4.6,0-.9-.27-1.59-.8-2.07-.53-.48-1.25-.72-2.15-.72h-7.17c-.84,0-1.53.18-2.07.55-.53.37-1,.94-1.39,1.73-2.31,4.39-5.67,7.94-10.08,10.67-4.42,2.73-9.12,4.65-14.13,5.78-.22.05-.51.08-.84.08-.45,0-.82-.08-1.1-.25-.28-.17-.42-.4-.42-.67,0-.34.18-.65.55-.93.37-.28.86-.51,1.48-.67,3.43-.73,7.01-2.33,10.76-4.81,3.74-2.47,6.62-5.79,8.65-9.95.11-.34.17-.53.17-.59,0-.62-.39-.93-1.18-.93-2.64,0-6.13.17-10.46.51l-1.18-.08c-.45,0-.93.14-1.43.42-3.04,1.8-6.14,3.26-9.32,4.39-3.18,1.13-6.09,1.86-8.73,2.19h-.34ZM397.22,277.58l-2.03.17c-.56.06-1-.1-1.31-.46-.31-.37-.46-.77-.46-1.22,0-.51.15-.93.46-1.26.31-.34.74-.48,1.31-.42l2.03.17c3.54.22,6.27.34,8.18.34h10.46c.39,0,.7-.11.93-.34.22-.22.34-.53.34-.93v-.84c0-1.4.41-2.46,1.22-3.16.81-.7,1.84-1.05,3.08-1.05,1.01,0,1.86.2,2.53.59.67.4,1.01.79,1.01,1.18,0,.45-.45.7-1.35.76-.34.06-.6.25-.8.59-.2.34-.3.7-.3,1.1v.84c0,.39.11.7.34.93.22.22.53.34.93.34h12.15c.39,0,.7-.11.93-.34.22-.22.34-.53.34-.93v-.84c0-1.4.41-2.46,1.22-3.16.81-.7,1.84-1.05,3.08-1.05,1.01,0,1.85.2,2.53.59.68.4,1.01.79,1.01,1.18,0,.45-.45.7-1.35.76-.34.06-.6.25-.8.59-.2.34-.29.7-.29,1.1v.84c0,.39.11.7.34.93.22.22.53.34.93.34h8.01c1.12,0,2.07-.24,2.83-.72.76-.48,1.56-1.14,2.4-1.98,1.24-1.24,2.5-1.85,3.8-1.85.73,0,1.46.22,2.19.67.84.56,1.63,1.24,2.36,2.02.62.73.93,1.43.93,2.11,0,.62-.25,1.13-.76,1.52-.51.39-1.24.59-2.19.59l-19.57.08c-.39,0-.7.11-.93.34-.22.22-.34.54-.34.93l.08,1.52c.06,1.01-.31,1.84-1.1,2.49-.79.65-1.63.97-2.53.97-.56,0-1.04-.18-1.43-.55-.39-.37-.59-.88-.59-1.56l.08-2.87c0-.84-.39-1.27-1.18-1.27l-12.15-.08c-.39,0-.7.11-.93.34-.23.22-.34.54-.34.93l.08,1.6c.05,1.01-.31,1.84-1.1,2.49-.79.65-1.63.97-2.53.97-.56,0-1.04-.18-1.43-.55-.39-.37-.59-.88-.59-1.56l.08-2.95c0-.84-.39-1.27-1.18-1.27h-10.46c-2.25,0-4.98.11-8.18.34M416.03,324.98c0,.34.34.56,1.01.68,2.47.11,4.27.17,5.4.17,1.86,0,2.95-.84,3.29-2.53.11-.73.22-1.83.34-3.29.11-1.41.58-2.46,1.39-3.16.81-.7,1.78-1.05,2.91-1.05,1.01,0,1.86.2,2.53.59.67.39,1.01.79,1.01,1.18,0,.45-.45.7-1.35.76-.34.06-.6.25-.8.59-.2.34-.3.7-.3,1.1,0,.9-.08,1.77-.25,2.62-.28,2.14.59,3.21,2.61,3.21h5.23c.51,0,1-.13,1.48-.38.48-.25.91-.55,1.31-.89.96-.73,1.71-1.1,2.28-1.1.17,0,.34-.06.51-.17.17-.11.25-.28.25-.51s-.11-.45-.34-.67c-2.19-2.7-3.94-5.29-5.23-7.76-.28-.62-.79-.93-1.52-.93l-10.71-.08c-.67,0-1.21.31-1.6.93-2.64,3.77-5.62,7.06-8.94,9.87-.34.34-.51.62-.51.84M420.08,293.35l19.4.08c1.91,0,2.87-.93,2.87-2.78,0-.95-.25-1.69-.76-2.19-.51-.51-1.24-.76-2.19-.76h-19.23c-.9,0-1.62.25-2.15.76-.54.51-.8,1.24-.8,2.19,0,1.8.96,2.7,2.87,2.7M417.97,301.11c.51.45,1.24.68,2.19.68l19.23.08c1.97,0,2.95-.93,2.95-2.78,0-.96-.23-1.69-.68-2.19-.45-.51-1.07-.76-1.85-.76l-19.74.08c-.9,0-1.6.25-2.11.76-.51.51-.76,1.24-.76,2.19,0,.84.25,1.49.76,1.94"/>
      <path d="M498.02,336.41c5.68-2.89,10.18-6.59,13.5-11.09.22-.22.34-.48.34-.76,0-.23-.1-.41-.3-.55-.2-.14-.46-.21-.8-.21l-17.12-.08c-2.25,0-4.98.11-8.18.34l-2.02.17c-.56.06-1-.1-1.31-.46-.31-.37-.46-.77-.46-1.22,0-.51.16-.93.46-1.26.31-.34.74-.48,1.31-.42l2.02.17c3.54.22,6.27.34,8.18.34h18.39c.96,0,1.69-.27,2.19-.8.51-.53.76-1.25.76-2.15v-1.6c0-1.41.41-2.46,1.22-3.16.81-.7,1.84-1.06,3.08-1.06,1.01,0,1.86.2,2.53.59.67.39,1.01.79,1.01,1.18,0,.45-.45.7-1.35.76-.34.06-.6.25-.8.59-.2.34-.3.7-.3,1.1v1.6c0,.9.27,1.62.8,2.15.53.53,1.25.8,2.15.8h16.79c1.12,0,2.07-.24,2.83-.72.76-.48,1.56-1.14,2.4-1.98,1.24-1.24,2.5-1.85,3.8-1.85.73,0,1.46.23,2.19.67.84.56,1.63,1.24,2.36,2.02.62.73.93,1.44.93,2.11,0,.62-.25,1.12-.76,1.52-.51.4-1.24.59-2.19.59l-28,.08c-.34,0-.61.07-.8.21-.2.14-.29.32-.29.55,0,.28.14.56.42.84,4.05,3.77,8.74,6.8,14.09,9.11,5.34,2.31,11.02,3.8,17.04,4.47.73.06,1.1.34,1.1.84,0,.22-.13.44-.38.63-.25.2-.6.29-1.05.29-1.74,0-3.11.31-4.09.93-.98.62-1.56,1.29-1.73,2.02-.17.79-.62,1.18-1.35,1.18-.45,0-.93-.08-1.43-.25-4.16-1.46-8.28-3.5-12.36-6.12-4.08-2.62-7.72-5.67-10.92-9.15-.23-.34-.51-.51-.84-.51-.45,0-.67.37-.67,1.1v12.99c0,1.01-.38,1.84-1.14,2.49-.76.64-1.56.97-2.4.97-.56,0-1.03-.18-1.39-.55-.37-.37-.52-.89-.46-1.56v-13.33c0-.73-.23-1.1-.67-1.1-.17,0-.45.14-.84.42-4.1,3.6-8.96,6.72-14.55,9.36-5.6,2.64-11.04,4.27-16.32,4.89h-.34c-.51,0-.9-.11-1.18-.34-.28-.23-.42-.48-.42-.76,0-.22.11-.45.34-.67.22-.22.56-.37,1.01-.42,5-1.07,10.35-3.05,16.03-5.95M493.93,287.49c2.39-5.82,4.12-10.92,5.19-15.31.34-1.46.97-2.54,1.9-3.25.93-.7,2.04-1.05,3.33-1.05,1.63,0,3.35.56,5.15,1.69.51.34.76.7.76,1.1,0,.28-.11.51-.34.67-.23.17-.54.28-.93.34-.62.06-1.1.27-1.43.63-.34.37-.58.72-.72,1.05-.14.34-.24.56-.3.67l-3.71,7.34c-.23.39-.34.79-.34,1.18,0,.9.62,1.35,1.86,1.35h12.57c1.24,0,2.05-.56,2.45-1.69.84-2.25,1.71-4.92,2.61-8.01l.59-2.02c.51-1.46,1.25-2.54,2.23-3.25.98-.7,2.1-1.05,3.33-1.05,1.63,0,3.35.56,5.15,1.69.51.34.76.7.76,1.1,0,.28-.11.51-.34.67-.23.17-.53.28-.93.34-1.12.06-2.22.84-3.29,2.36-1.8,2.87-3.51,5.32-5.15,7.34-.45.56-.67,1.04-.67,1.43,0,.34.15.6.46.8.31.2.74.29,1.31.29h8.69c1.12,0,2.07-.24,2.83-.72.76-.48,1.56-1.14,2.4-1.98,1.24-1.24,2.5-1.85,3.8-1.85.73,0,1.46.22,2.19.67.84.56,1.63,1.24,2.36,2.02.62.73.93,1.43.93,2.11,0,.62-.25,1.13-.76,1.52-.51.39-1.24.59-2.19.59l-19.23.08c-1.41,0-2.11.7-2.11,2.11v1.6c0,1.41.7,2.11,2.11,2.11h5.06c2.19,0,3.94-.64,5.23-1.94,1.24-1.24,2.39-1.86,3.46-1.86.67,0,1.32.23,1.94.67.62.45,1.32,1.13,2.11,2.02.62.73.93,1.38.93,1.94,0,1.01-.98,1.52-2.95,1.52l-15.77.08c-1.41,0-2.11.7-2.11,2.11v1.43c0,1.41.7,2.11,2.11,2.11h5.06c2.25,0,3.99-.62,5.23-1.86,1.24-1.24,2.39-1.85,3.46-1.85.67,0,1.32.22,1.94.67.62.45,1.32,1.12,2.11,2.02.62.73.93,1.35.93,1.86,0,1.01-.98,1.52-2.95,1.52l-15.77.08c-1.41,0-2.11.7-2.11,2.11v1.52c0,1.41.7,2.11,2.11,2.11h7.68c2.25,0,3.99-.62,5.23-1.85,1.24-1.24,2.47-1.86,3.71-1.86,1.52,0,3.06.9,4.64,2.7.62.73.93,1.35.93,1.86,0,1.01-.98,1.52-2.95,1.52h-41.59c-1.41,0-2.11.48-2.11,1.43s-.39,1.76-1.18,2.41c-.79.65-1.6.97-2.45.97-1.35,0-2.02-.64-2.02-1.94l.08-3.46c.05-.56.09-1.38.09-2.45v-15.1c-3.26,5.51-5.79,9.22-7.59,11.13-.45.51-.93.76-1.43.76-.28,0-.54-.11-.76-.34-.23-.22-.34-.51-.34-.84,0-.39.14-.82.42-1.27,2.36-3.93,4.74-8.81,7.13-14.64M504.01,286.27c-1.41,0-2.11.7-2.11,2.11v1.69c0,1.41.7,2.11,2.11,2.11h12.74c1.41,0,2.11-.7,2.11-2.11v-1.6c0-1.4-.67-2.11-2.02-2.11l-12.82-.08ZM501.9,298.16c0,1.41.7,2.11,2.11,2.11h12.65c1.41,0,2.11-.7,2.11-2.11v-1.43c0-1.41-.67-2.11-2.03-2.11l-12.74-.08c-1.41,0-2.11.7-2.11,2.11v1.52ZM501.9,306.34c0,1.41.7,2.11,2.11,2.11h12.57c1.41,0,2.11-.7,2.11-2.11v-1.52c0-1.41-.67-2.11-2.02-2.11l-12.65-.08c-1.41,0-2.11.7-2.11,2.11v1.6Z"/>
      <path d="M585.92,342.11c-1.07,0-1.98-.38-2.74-1.14-.76-.76-1.14-1.67-1.14-2.74s.38-1.98,1.14-2.74c.76-.76,1.67-1.14,2.74-1.14s1.98.38,2.74,1.14c.76.76,1.14,1.67,1.14,2.74s-.38,1.98-1.14,2.74c-.76.76-1.67,1.14-2.74,1.14M585.83,328.69c-.39,0-.75-.27-1.06-.8-.31-.53-.46-1.45-.46-2.74,0-7.81-.13-14.32-.38-19.53-.25-5.2-.61-10.36-1.05-15.48-.45-5.23-.67-9.73-.67-13.5,0-1.69.31-2.98.93-3.88.62-.9,1.52-1.35,2.7-1.35s2.09.45,2.74,1.35c.65.9.97,2.19.97,3.88,0,2.36-.17,6.24-.51,11.64l-.17,2.02c-.45,5.46-.82,10.7-1.1,15.73-.28,5.03-.42,11.4-.42,19.1,0,1.13-.14,2-.42,2.62-.28.62-.65.93-1.1.93"/>
      <path d="M7.22,321.63c.49-3.98,3.19-6.13,6.82-6.13,3.98,0,6.62,2.15,6.62,5.98,0,2.47-1.07,4.33-4.47,7.49-3.05,2.73-4.5,4.35-5.4,6.16h9.96v2.9H7.02v-2.58c1.31-2.73,3.16-5.17,6.33-8.22,2.9-2.79,3.54-3.95,3.54-5.78,0-1.94-1.13-3.08-2.9-3.08s-2.96,1.37-3.14,4.01l-3.63-.76Z"/>
      <path d="M39.07,326.89c0,8.22-2.5,11.56-7.03,11.56s-6.94-3.28-6.94-11.5,2.53-11.44,7-11.44,6.97,3.19,6.97,11.38M28.85,326.92c0,6.53.9,8.65,3.19,8.65s3.28-2.15,3.28-8.65-.9-8.54-3.22-8.54-3.25,1.97-3.25,8.54"/>
      <path d="M43.39,321.63c.49-3.98,3.19-6.13,6.82-6.13,3.98,0,6.62,2.15,6.62,5.98,0,2.47-1.07,4.33-4.47,7.49-3.05,2.73-4.5,4.35-5.4,6.16h9.96v2.9h-13.73v-2.58c1.31-2.73,3.16-5.17,6.33-8.22,2.9-2.79,3.54-3.95,3.54-5.78,0-1.94-1.13-3.08-2.9-3.08s-2.96,1.37-3.14,4.01l-3.63-.76Z"/>
      <path d="M74.17,318.79h-8.77l-.17,4.47c-.03.67-.09,1.45-.17,2.09.78-1.16,2.15-1.92,3.8-1.92,3.66,0,6.24,2.88,6.24,7.26,0,4.67-2.9,7.75-7.08,7.75-3.49,0-5.95-1.57-6.74-4.82l3.54-1.07c.41,2.15,1.54,3.08,3.16,3.08,2.09,0,3.4-1.8,3.4-4.88,0-2.88-1.19-4.5-3.22-4.5-1.48,0-2.64.9-3.14,2.5l-3.02-.44.44-12.43h11.73v2.9Z"/>
      <path d="M83.46,333.8c-2.56,0-3.46.06-3.63.06-.29,0-.32-.03-.32-.32v-2.29c0-.26.03-.29.32-.29.17,0,1.07.06,3.63.06h.7v-4.07c0-1.66-.06-2.44-.06-2.61,0-.29.03-.32.35-.32.17,0,1.16.06,3.98.06h3.72v-3.86h-5.95c-.96,1.45-2.09,2.85-3.4,4.15-.29.32-.46.46-.61.46s-.29-.17-.58-.55c-.55-.75-1.08-1.22-1.63-1.57,2.41-2.09,4.18-4.5,5.37-7.03.35-.73.61-1.42.76-2.12,1.04.2,2,.41,2.79.64.35.12.52.26.52.49s-.14.35-.35.55c-.23.2-.44.44-.73,1.04l-.58,1.25h11.99c2.82,0,3.8-.06,3.98-.06.29,0,.32.03.32.32v2.15c0,.29-.03.32-.32.32-.18,0-1.16-.06-3.98-.06h-4.47v3.86h3.11c2.85,0,3.8-.06,3.98-.06.26,0,.29.03.29.32v2.18c0,.29-.03.32-.29.32-.17,0-1.13-.06-3.98-.06h-3.11v4.24h6.16c2.56,0,3.46-.06,3.63-.06.29,0,.32.03.32.29v2.29c0,.29-.03.32-.32.32-.17,0-1.07-.06-3.63-.06h-6.16v1.42c0,3.05.06,4.59.06,4.73,0,.29-.03.32-.32.32h-2.58c-.32,0-.35-.03-.35-.32,0-.17.06-1.68.06-4.73v-1.42h-8.68ZM92.14,326.77h-4.91v4.24h4.91v-4.24Z"/>
      <path d="M110.52,314.77c1.19-4.43,4.72-6.77,9.47-6.77,5.7,0,9.39,3.32,9.39,7.88,0,3.69-2.21,6.4-5.99,7.05v.29c4.22.9,6.6,3.73,6.6,7.88,0,5.54-4.02,9.31-10.01,9.31-5.17,0-8.57-2.09-9.97-6.93l5.04-1.48c.7,3.16,2.17,4.43,4.88,4.43,2.95,0,4.8-1.97,4.8-5.29,0-3.57-1.68-5.66-6.07-5.66h-2.38v-4.18h2.17c4.1,0,5.74-1.76,5.74-4.92,0-2.87-1.68-4.39-4.31-4.39-2.17,0-3.94,1.35-4.35,4.31l-5.04-1.52Z"/>
      <path d="M157.03,330.67c0,2,.09,4.21.09,5.81,0,1.25-.2,2-.93,2.7-.75.7-1.74.84-4.82.84-.9,0-.96.03-1.07-.9-.12-.84-.44-1.86-.76-2.44,1.25.12,2.18.15,3.31.15.7,0,1.02-.38,1.02-1.02v-5.08h-10.37c-.55,4.04-1.8,6.3-4.18,9-.29.32-.44.49-.61.49s-.35-.14-.67-.46c-.61-.61-1.39-1.07-2.09-1.37,3.83-3.57,4.79-6.04,4.79-14.87v-4.27c0-2.47-.06-3.77-.06-3.95,0-.32.03-.35.32-.35.2,0,1.16.06,3.86.06h8.07c2.7,0,3.63-.06,3.83-.06.29,0,.32.03.32.35,0,.17-.06,1.48-.06,3.95v11.41ZM153.86,327.91v-3.69h-9.96c-.03,1.36-.06,2.58-.12,3.69h10.08ZM143.9,321.4h9.96v-3.51h-9.96v3.51Z"/>
      <path d="M166.72,316.65c.7-5.62,4.51-8.65,9.64-8.65,5.62,0,9.35,3.04,9.35,8.45,0,3.49-1.52,6.11-6.32,10.58-4.31,3.85-6.36,6.15-7.63,8.69h14.07v4.1h-19.4v-3.65c1.85-3.85,4.47-7.3,8.94-11.61,4.1-3.94,5-5.58,5-8.16,0-2.75-1.6-4.35-4.1-4.35s-4.18,1.93-4.43,5.66l-5.13-1.07Z"/>
      <path d="M195.64,339.81c-.29,0-.32-.03-.32-.32,0-.2.06-1.92.06-10.34v-5.6c0-5.63-.06-7.4-.06-7.58,0-.32.03-.35.32-.35.2,0,1.19.06,4.01.06h9.96c2.82,0,3.83-.06,4.01-.06.29,0,.32.03.32.35,0,.17-.06,1.95-.06,6.71v6.45c0,8.33.06,10.05.06,10.22,0,.29-.03.32-.32.32h-2.58c-.29,0-.32-.03-.32-.32v-1.42h-12.17v1.57c0,.29-.03.32-.32.32h-2.58ZM198.55,325.18h12.17v-6.62h-12.17v6.62ZM210.71,328.02h-12.17v7.03h12.17v-7.03Z"/>
      <path d="M231.67,313.39c-3.8,4.33-5.14,8.48-5.14,13.56s1.34,9.23,5.14,13.56l-.87.81c-4.82-4.27-6.91-8.74-6.91-14.37s2.12-10.08,6.91-14.37l.87.81Z"/>
      <path d="M239.25,339.81c-.29,0-.32-.03-.32-.32,0-.2.06-1.92.06-10.34v-5.6c0-5.63-.06-7.4-.06-7.58,0-.32.03-.35.32-.35.2,0,1.19.06,4.01.06h9.96c2.82,0,3.83-.06,4.01-.06.29,0,.32.03.32.35,0,.17-.06,1.95-.06,6.71v6.45c0,8.33.06,10.05.06,10.22,0,.29-.03.32-.32.32h-2.59c-.29,0-.32-.03-.32-.32v-1.42h-12.17v1.57c0,.29-.03.32-.32.32h-2.58ZM242.15,325.18h12.17v-6.62h-12.17v6.62ZM254.32,328.02h-12.17v7.03h12.17v-7.03Z"/>
      <path d="M265.66,312.57c4.76,4.3,6.88,8.8,6.88,14.37s-2.09,10.11-6.88,14.37l-.9-.81c3.8-4.33,5.14-8.45,5.14-13.56s-1.31-9.23-5.14-13.56l.9-.81Z"/>
      <path class="cls-1" d="M208.03,80.7c-.56,0-.56.38-1.12.38s-.56,1.08-1.12,1.08-.56-.63-1.12-.63-.56-.08-1.12-.08-.56.69-1.12.69-.56-1.43-1.12-1.43-.56,1.04-1.12,1.04-.56-.12-1.12-.12-.56-.59-1.12-.59-.56.33-1.12.33-.56,1.15-1.12,1.15-.56-2.26-1.12-2.26-.56.58-1.12.58-.56.25-1.12.25-.56.76-1.12.76-.56-1.33-1.12-1.33-.56.03-1.12.03-.56.5-1.12.5-.56-.75-1.12-.75-.56,1.44-1.12,1.44-.56-1.26-1.12-1.26-.56,1.44-1.12,1.44-.56-1.37-1.12-1.37-.56-.01-1.12-.01-.56.6-1.12.6-.56-.88-1.12-.88-.56,1.39-1.12,1.39-.56-.07-1.13-.07-.56-.82-1.13-.82-.56,1.18-1.13,1.18-.56-.87-1.13-.87-.56,1.44-1.13,1.44-.56.12-1.13.12-.56-2.03-1.13-2.03-.56.88-1.13.88-.56-1.13-1.13-1.13-.56-.12-1.13-.12-.56.8-1.13.8-.56-.24-1.13-.24-.56.48-1.12.48-.56-.57-1.13-.57-.56.14-1.12.14-.56,1-1.12,1-.56.1-1.12.1-.56-1.64-1.12-1.64-.56.36-1.12.36-.56-.05-1.12-.05-.56.36-1.12.36-.56,1.18-1.12,1.18-.56-1.63-1.12-1.63-.56,1.1-1.12,1.1-.56-.41-1.12-.41-.56.86-1.13.86-.56-1.26-1.13-1.26-.56,1.33-1.13,1.33-.56.07-1.13.07-.56-1.34-1.13-1.34-.56,1.73-1.13,1.73-.56-1.31-1.13-1.31-.56-.99-1.13-.99-.56.67-1.13.67-.56-.03-1.13-.03-.56-.65-1.13-.65-.56.34-1.13.34-.56.48-1.13.48-.56-.66-1.13-.66-.56.18-1.13.18-.56,1.17-1.13,1.17-.56-.23-1.13-.23-.56.96-1.13.96-.56-1.62-1.13-1.62-.56.93-1.13.93-.56-.36-1.13-.36-.56-.66-1.13-.66-.56.86-1.13.86-.56-.64-1.13-.64-.57-.52-1.13-.52-.56.28-1.13.28-.57.85-1.13.85-.56-.74-1.13-.74-.57.67-1.13.67-.56.01-1.13.01-.56.51-1.13.51-.56,0-1.13,0-.56-.18-1.13-.18-.56-1.74-1.13-1.74-.56.12-1.13.12-.56.04-1.13.04-.56,1.07-1.13,1.07-.56-.87-1.13-.87-.57.64-1.13.64-.57-.43-1.13-.43-.57.07-1.13.07-.56.82-1.13.82-.57-.71-1.13-.71-.56,1.54-1.13,1.54-.57-1.33-1.13-1.33-.56-.32-1.13-.32-.57.43-1.13.43-.56-.08-1.13-.08-.57.61-1.13.61-.57-.16-1.13-.16-.57-.92-1.13-.92-.56.31-1.13.31-.56.25-1.13.25-.56-.55-1.13-.55-.56,1.31-1.13,1.31-.57-.03-1.13-.03-.57-1.43-1.13-1.43-.56,1.65-1.13,1.65-.56-.61-1.13-.61-.56-.38-1.13-.38-.56-.74-1.13-.74-.56,1.61-1.13,1.61-.56.45-1.13.45-.56-1.34-1.13-1.34-.56-.55-1.13-.55-.57,0-1.13,0-.57,1.97-1.13,1.97-.57-.57-1.13-.57-.56-.75-1.13-.75-.56-.54-1.13-.54-.56.28-1.13.28-.56,1.56-1.13,1.56-.57-1.97-1.13-1.97-.57-.36-1.13-.36-.57,2.13-1.13,2.13-.57-.13-1.13-.13-.57-.98-1.13-.98-.57-.65-1.13-.65-.57,1.98-1.13,1.98-.56-1.02-1.13-1.02-.57-.09-1.13-.09-.57-.87-1.13-.87-.57,1.27-1.13,1.27-.56-1.42-1.13-1.42-.56,1.2-1.13,1.2-.57.42-1.13.42-.57.18-1.13.18-.57-.16-1.13-.16-.57-.18-1.14-.18-.57-.39-1.13-.39-.57,1.06-1.13,1.06-.57-.83-1.14-.83-.57-.11-1.13-.11-.57.28-1.14.28-.57-1.32-1.14-1.32-.57-.06-1.14-.06c-.38,0-.75.78-1.12.77-.38-.01-.75-.05-1.12-.07-.38-.02-.85,1.13-1.22,1.1-.37-.03-.63-1.38-1-1.43-.37-.04-.62-.93-.99-.98-.37-.05-1.03,1.79-1.4,1.72-.37-.06-.81.08-1.17,0-.37-.07-.42-1.69-.78-1.77-.37-.08-.68-.32-1.04-.42-.36-.09-.9.48-1.26.38-.36-.1-.98.6-1.34.48-.36-.12-.23-1.68-.59-1.81-.35-.12-.9.3-1.25.17-.35-.14-.55-.62-.9-.77-.35-.14-.66-.34-1-.49-.34-.15-.98.33-1.32.17-.34-.16-.57-.54-.9-.72-.33-.17-.18-1.22-.51-1.4-.33-.18-1.42.99-1.75.8-.32-.19-.2-1.12-.52-1.32s-.41-.72-.72-.93c-.31-.21-1,.15-1.31-.07-.3-.22-.55-.51-.85-.74-.3-.22-.8-.19-1.1-.42-.29-.23-.41-.69-.7-.93-.29-.24-.64-.41-.92-.66-.28-.25.33-1.44.06-1.7-.27-.26-1.61.6-1.88.33-.26-.26-.71-.37-.97-.65-.26-.27.23-1.23-.02-1.51-.25-.28-.51-.54-.75-.82s.13-1.05-.11-1.34c-.23-.29-2.11.69-2.33.39s-.48-.61-.7-.92c-.22-.3.26-1.1.05-1.42-.21-.31.29-1.07.09-1.39-.2-.32-1.65.13-1.84-.2-.19-.32.3-1.04.12-1.37-.18-.33-.6-.53-.77-.87-.17-.33.19-.93.03-1.27-.16-.34-.86-.42-1.01-.77-.15-.34.37-.97.23-1.32-.14-.35-.74-.5-.87-.86-.13-.35.72-1.04.6-1.4-.12-.35-2.28-.03-2.39-.39-.11-.36,1.92-1.36,1.82-1.72-.1-.36-1.64-.32-1.73-.68-.09-.36,1.29-1.07,1.21-1.44-.08-.37-2.11-.31-2.19-.68s1.76-1.08,1.69-1.45c-.06-.37-1.31-.54-1.36-.91-.05-.37.99-.87.95-1.24-.04-.37-2.28-.53-2.31-.91-.03-.37.34-.8.32-1.18-.02-.37-.2-.76-.21-1.14-.01-.38,1.21-.78,1.21-1.15h.6c0-.38-.14-.73-.13-1.1,0-.38.34-.71.36-1.09.02-.38-1.35-.84-1.32-1.21.03-.38-.08-.78-.04-1.15.04-.37.89-.65.94-1.02.05-.37.94-.59,1.01-.96.06-.37-.13-.76-.06-1.12.07-.37-1.12-1-1.04-1.36.08-.37-.28-.86-.18-1.22.09-.36.71-.6.81-.96.1-.36-.48-.95-.37-1.31.11-.36,1.04-.46,1.16-.82.12-.35.43-.64.57-.99.13-.35.32-.68.46-1.03.14-.35.47-.61.62-.95.15-.34.29-.69.45-1.02s1.21-.21,1.38-.55c.17-.33-.41-1.05-.23-1.37s-.84-1.36-.65-1.68c.19-.32.68-.5.88-.81.2-.32.93-.3,1.14-.61.21-.31,1.54.17,1.75-.14.22-.31-.75-1.46-.52-1.76.23-.3-.09-1.04.15-1.33s1.75.46,1.99.18-.38-1.32-.13-1.6c.25-.28.07-.98.32-1.26.26-.27,1.88.78,2.14.51.26-.26.59-.44.86-.69.27-.26.32-.73.6-.98.28-.25.02-1.1.31-1.35.29-.24.79-.22,1.08-.45.29-.23.52-.54.82-.77.3-.23-.06-1.38.24-1.59.31-.22,1.05.17,1.36-.04.31-.21,1.08.29,1.4.1.32-.2.23-1.05.55-1.24.32-.19.52-.63.85-.81.33-.18.55-.61.88-.78.33-.17,1.32.95,1.65.79.34-.16.63-.39.97-.54.34-.15.51-.69.85-.84.35-.14.98.48,1.33.34.35-.13.77,0,1.12-.12.35-.12.45-.94.81-1.05.36-.11.44-1.13.8-1.24.36-.1,1.15,1.41,1.51,1.31.36-.09.69-.18,1.06-.26.36-.08.31-2.12.68-2.19.37-.07.94.92,1.31.86.37-.06.82.51,1.19.46.37-.05.58-1.29.96-1.33.37-.04.87,1.27,1.24,1.24.37-.03.7-.45,1.07-.47.37-.02.73.05,1.11.04.37-.01.73.44,1.11.44.56,0,.56-.31,1.12-.31s.56-2.02,1.12-2.02.56,1.91,1.12,1.91.56-.81,1.12-.81.56-.33,1.12-.33.56.59,1.12.59.56-.69,1.12-.69.56,1.47,1.12,1.47.56-1.32,1.12-1.32.56.07,1.12.07.56.95,1.12.95.56-1.43,1.12-1.43.56.4,1.12.4.56.09,1.12.09.56.08,1.12.08.56-1.05,1.12-1.05.56,1.44,1.12,1.44.56-.06,1.12-.06.56-1.17,1.12-1.17.56,2.02,1.12,2.02.56.03,1.12.03.56-2.16,1.12-2.16.56.41,1.12.41.56.34,1.12.34.56,1.09,1.12,1.09.56-1.28,1.12-1.28.56.28,1.12.28.56.38,1.12.38.56-.56,1.13-.56.56-.65,1.13-.65.56.09,1.13.09.56.6,1.13.6.56-.41,1.13-.41.56.79,1.13.79.56-.9,1.13-.9.56,1.19,1.13,1.19.56-.55,1.13-.55.56,1.34,1.13,1.34.56-.98,1.13-.98.56-1.14,1.13-1.14.56,1.38,1.12,1.38.56-.02,1.12-.02.56-.68,1.12-.68.56,1.54,1.12,1.54S91.17,0,91.73,0s.56.82,1.12.82.56-.77,1.12-.77.56,1.58,1.12,1.58.56-1.48,1.12-1.48.56,1.48,1.12,1.48.56.6,1.12.6.56-.8,1.13-.8.56-1.32,1.12-1.32.56.32,1.13.32.56.82,1.13.82.56-.25,1.13-.25.56,1.38,1.13,1.38.56-1.86,1.13-1.86.57-.37,1.13-.37.56.14,1.13.14.56,1.33,1.13,1.33.56-.38,1.13-.38.56-1,1.13-1,.56,1.62,1.13,1.62.56-.97,1.13-.97.56-.14,1.13-.14.56.24,1.13.24.56-.05,1.13-.05.56,1.33,1.13,1.33.56-1.44,1.13-1.44.56-.25,1.13-.25.56.04,1.13.04.56-.11,1.13-.11.56-.1,1.13-.1.56-.05,1.13-.05.56,1.24,1.13,1.24.57.61,1.13.61.56-1.39,1.13-1.39.57-.38,1.13-.38.56.29,1.13.29.56-.5,1.13-.5.56,1.85,1.13,1.85.56.11,1.13.11.56.08,1.13.08.56-2.15,1.13-2.15.56.78,1.13.78.56,1.39,1.13,1.39.56-.28,1.13-.28.56-1.07,1.13-1.07.57.81,1.13.81.57-.14,1.13-.14.57.84,1.13.84.56-2.3,1.13-2.3.56,2.21,1.13,2.21.56-1.21,1.13-1.21.57.77,1.13.77.56-.3,1.13-.3.57.41,1.13.41.56-1.15,1.13-1.15.57.16,1.13.16.57,1.33,1.13,1.33.57-.95,1.13-.95.56-.44,1.13-.44.56.5,1.13.5.57-.02,1.13-.02.56-1.05,1.13-1.05.56,1.07,1.13,1.07.57-.61,1.13-.61.57.79,1.13.79.57.35,1.13.35.56.31,1.13.31.56-1.34,1.13-1.34.56-.57,1.13-.57.56,1.5,1.13,1.5.56.29,1.13.29.56-1.58,1.13-1.58.56,1.76,1.13,1.76.56-1.23,1.13-1.23.57-.29,1.13-.29.57-.39,1.13-.39.56.3,1.13.3.56,1.06,1.13,1.06.56-1.26,1.13-1.26.57.64,1.13.64.57.56,1.13.56.57-.65,1.13-.65.57.52,1.13.52.57.57,1.13.57.57-.11,1.13-.11.57-1.89,1.13-1.89.57-.12,1.13-.12.57,1.92,1.13,1.92.57-.53,1.13-.53.57.08,1.13.08.57.49,1.13.49.56-1.51,1.13-1.51.56,1.57,1.13,1.57.57-.94,1.13-.94.57,0,1.13,0,.57.46,1.13.46.57-1.41,1.14-1.41.57.9,1.13.9.57-.6,1.14-.6.57.6,1.14.6.57-.15,1.13-.15.57,1.18,1.14,1.18.57-1.75,1.14-1.75.57.61,1.14.61c.38,0,.72,1.33,1.09,1.34.38,0,.77-.85,1.14-.83.38.02.76-.12,1.13-.08.38.03.85-.86,1.22-.82.37.04.6,1.32.97,1.37.37.05.98-1.38,1.35-1.31.37.06.67.65,1.04.73.37.07.65.62,1.01.7.37.08.43,1.35.79,1.44.36.09,1.14-1.36,1.5-1.26.36.1.93-.39,1.28-.27.36.11.3,1.53.65,1.65.35.12.9-.27,1.25-.13.35.13.22,1.46.56,1.6.35.14.68.25,1.02.4.34.16,1.44-1.33,1.78-1.16.34.16.79.17,1.12.34.33.17-.11,1.81.22,1.99.33.18,1.28-.72,1.6-.53.32.19.65.41.97.61.32.2,0,1.4.3,1.61.31.21.62.39.93.61.31.22.27.86.57,1.09.3.23.97-.06,1.26.18.29.23,1.57-.71,1.86-.47.29.24.36.77.64,1.02.28.25-.47,1.62-.19,1.88.27.26.23.8.5,1.07.26.27,1.31-.25,1.57.02.26.27.89.21,1.14.49.25.28.51.57.75.86s-.31,1.23-.08,1.52,1.35-.09,1.57.21c.23.3.84.34,1.06.65.22.31.47.62.68.94.21.31-.01.93.19,1.25.2.32-.9,1.42-.71,1.74.19.32,2.15-.36,2.33-.04.18.33-.64,1.21-.47,1.55.17.33,1.15.28,1.31.62.16.34.4.67.56,1.01.15.34-1.59,1.5-1.45,1.84.14.35.76.48.89.83s1.32.32,1.44.67c.12.35.49.65.6,1,.11.36-.98,1.08-.87,1.45.1.36.47.64.57,1,.09.36.6.63.68.99.08.37-.33.84-.26,1.21.07.37.97.59,1.03.96.06.37.66.68.71,1.05.05.37-1.37.94-1.32,1.31.04.37.73.68.76,1.06.03.37.78.72.8,1.09.02.37-.57.79-.56,1.17.01.37-1.18.76-1.18,1.14h1.06c0,.38.88.78.87,1.16,0,.38-.46.76-.48,1.13-.02.38-.23.76-.26,1.13-.03.37-1.25.63-1.29,1-.04.37-.36.69-.41,1.06-.05.37,1.58,1,1.51,1.37-.06.37-1.86.42-1.93.79s1.48,1.08,1.39,1.44c-.08.37-.63.63-.73,1-.09.36-.06.77-.16,1.13-.1.36.44.94.32,1.3-.11.36-.19.76-.31,1.11-.12.36-2.26-.02-2.4.32-.13.35,1.53,1.42,1.39,1.76-.14.35-.8.49-.95.84-.15.34-1.19.27-1.35.61s.95,1.32.78,1.65c-.17.33-1.76-.09-1.94.24-.18.33.49,1.14.3,1.46-.19.32-1.45-.02-1.65.3-.2.32-.02.85-.23,1.17-.21.31.53,1.28.31,1.58-.22.3-.16.84-.39,1.14-.23.3-1.49-.19-1.72.1-.23.29-.96.15-1.21.44-.24.29-.06.92-.31,1.2-.25.28-.2.82-.46,1.09-.26.27-.95.11-1.22.37-.27.27-.4.65-.67.91-.27.26-.32.75-.6,1-.28.25.08,1.25-.21,1.49-.29.24-.68.38-.98.62-.29.23-.83.18-1.13.41-.3.23-1.41-.68-1.72-.46-.3.22-.46.6-.77.81-.31.21.42,2.03.1,2.23-.32.2-.8.18-1.12.37-.32.19-.57.56-.9.75-.33.18-.8.14-1.14.32-.33.17-.76.19-1.1.35-.34.16-.81.07-1.15.22-.34.15-.99-.41-1.34-.27-.35.14-.14,1.69-.49,1.82-.35.13-1.34-1.48-1.7-1.35-.35.12-.45,1-.8,1.11-.36.11-.76.08-1.12.18-.36.1-.53.93-.89,1.03-.36.09-.8-.09-1.17,0-.36.08-.96-.94-1.33-.87-.37.07-.4,1.97-.77,2.03-.37.06-.85-.44-1.22-.39-.37.05-.87-.91-1.24-.87-.37.04-.77-.42-1.15-.39-.37.03-.64,1.46-1.02,1.48-.37.02-.75.32-1.13.33-.37.01-.77-1.36-1.14-1.36"/>
      <path class="cls-4" d="M80.7,21.82c5.57,7.2,12.14,11.27,20.53,14.3-.91,1.1-1.58,2.35-2.06,3.65-.34.86-.48,1.25-.86,1.25-.24,0-.58-.19-1.15-.43-2.3-1.01-4.51-2.16-6.57-3.41v3.5c0,.48-.05.53-.48.53-.29,0-1.82-.09-6.24-.09h-3.41v5.37h5.47c4.65,0,6.24-.1,6.52-.1.53,0,.58.05.58.53v3.65c0,.48-.05.53-.58.53-.29,0-1.87-.09-6.52-.09h-5.47v5.85h11.42c4.37,0,5.9-.1,6.19-.1.48,0,.53.05.53.53v3.74c0,.48-.05.53-.53.53-.29,0-1.82-.09-6.19-.09h-27.39c-4.41,0-5.95.09-6.24.09-.48,0-.53-.05-.53-.53v-3.74c0-.48.05-.53.53-.53.29,0,1.82.1,6.24.1h10.84v-5.85h-4.85c-4.65,0-6.24.09-6.52.09-.48,0-.53-.05-.53-.53v-3.65c0-.48.05-.53.53-.53.29,0,1.87.1,6.52.1h4.85v-5.37h-3.07c-4.41,0-5.9.09-6.19.09-.48,0-.53-.05-.53-.53v-3.12c-1.87,1.2-3.79,2.3-5.85,3.31-.58.24-.91.43-1.2.43-.34,0-.53-.34-.91-1.2-.57-1.3-1.39-2.4-2.21-3.17,8.97-4.08,14.49-8.49,18.57-14.49.82-1.2,1.44-2.35,1.82-3.45,1.82.24,3.6.58,5.04,1.01.62.14.86.38.86.72,0,.29-.14.48-.48.72l-.48.38ZM83.86,36.6c3.31,0,4.94-.05,5.71-.05-4.56-2.97-8.49-6.52-11.51-10.79-3.07,4.27-6.76,7.82-11.03,10.79.86.05,2.45.05,5.23.05h11.61Z"/>
      <path class="cls-4" d="M106.69,63.65c-.48,0-.53-.05-.53-.53,0-.33.1-3.55.1-18.42v-9.55c0-9.5-.1-12.86-.1-13.14,0-.48.05-.53.53-.53.33,0,1.92.09,6.38.09h26.05c4.46,0,6.04-.09,6.38-.09.48,0,.53.05.53.53,0,.29-.1,3.65-.1,11.51v11.13c0,14.87.1,18.13.1,18.42,0,.48-.05.53-.53.53h-4.12c-.48,0-.53-.05-.53-.53v-2.25h-29.55v2.3c0,.48-.05.53-.53.53h-4.08ZM111.3,56.36h29.55v-30.27h-29.55v30.27ZM130.68,38.47c3.84,0,5.18-.1,5.47-.1.48,0,.53.05.53.53v3.17c0,.48-.05.53-.53.53-.29,0-1.63-.1-5.47-.1h-2.49v6.38h3.93c4.46,0,5.9-.1,6.19-.1.53,0,.57.05.57.53v3.31c0,.48-.05.53-.57.53-.29,0-1.73-.1-6.19-.1h-12.09c-4.46,0-5.9.1-6.19.1-.53,0-.58-.05-.58-.53v-3.31c0-.48.05-.53.58-.53.29,0,1.73.1,6.19.1h3.31v-6.38h-1.87c-3.93,0-5.28.1-5.57.1-.48,0-.53-.05-.53-.53v-3.17c0-.48.05-.53.53-.53.29,0,1.63.1,5.57.1h1.87v-5.04h-2.78c-4.32,0-5.8.1-6.09.1-.43,0-.48-.05-.48-.53v-3.21c0-.48.05-.53.48-.53.29,0,1.78.1,6.09.1h11.13c4.37,0,5.85-.1,6.14-.1.43,0,.48.05.48.53v3.21c0,.48-.05.53-.48.53-.29,0-1.77-.1-6.14-.1h-3.5v5.04h2.49ZM133.56,42.88c.48-.24.58-.14.96.29.86,1.01,1.54,1.97,2.35,3.45.19.38.19.48-.38.77l-2.06,1.1c-.62.34-.72.19-.96-.34-.48-1.1-1.39-2.64-2.21-3.55-.34-.38-.14-.43.38-.72l1.92-1.01Z"/>
      <path class="cls-4" d="M177.16,30.36c-1.1,8.16-3.12,15.64-6,20.68-2.06,3.6-4.56,5.52-8.16,5.52-4.22,0-8.49-4.51-8.49-12.33,0-4.61,1.97-9.02,5.42-12.47,4.03-4.03,9.11-6.14,15.59-6.14,11.51,0,18.28,7.1,18.28,16.65,0,8.92-5.04,14.54-14.78,17.46-1.01.29-1.44.1-2.06-.86-.53-.82-1.54-1.92-3.36-3.02,8.11-1.92,14.49-5.28,14.49-14.34,0-5.71-4.32-11.13-10.75-11.13h-.19ZM163.39,35.01c-2.3,2.59-3.74,5.81-3.74,8.88,0,4.41,1.77,6.86,3.26,6.86,1.25,0,2.3-.62,3.6-2.92,2.11-3.89,4.27-10.79,5.08-17.17-3.36.67-6.04,2.01-8.2,4.36"/>
      <path class="cls-1" d="M42.8,80.65h19.24s-7.95,10.3,4.72,17.69c-16.72,0-21.82-7.31-23.96-17.69"/>
      <path class="cls-2" d="M256.62,297.45H21.61c-8.79,0-15.92-7.13-15.92-15.92s7.13-15.92,15.92-15.92h235.01c8.79,0,15.92,7.13,15.92,15.92s-7.13,15.92-15.92,15.92"/>
      <path class="cls-3" d="M85.41,286.23c-.78.45-1.62.84-2.5,1.19-.21.1-.35.16-.45.16-.18,0-.25-.14-.45-.49-.25-.43-.53-.76-.82-.99,2.01-.58,3.45-1.19,4.56-1.95h-1.5c-1.74,0-2.32.04-2.44.04-.18,0-.19-.02-.19-.21v-1.15c0-.19.02-.21.19-.21.12,0,.7.04,2.44.04h3.18c.31-.35.53-.68.7-1.01h-.99c-1.89,0-2.56.04-2.69.04-.19,0-.21-.02-.21-.23,0-.12.04-.51.04-1.48v-1.66c0-1-.04-1.38-.04-1.5,0-.2.02-.21.21-.21.14,0,.8.04,2.69.04h6.3c1.87,0,2.54-.04,2.67-.04.2,0,.21.02.21.21,0,.12-.04.51-.04,1.5v1.66c0,.97.04,1.37.04,1.48,0,.21-.02.23-.21.23-.14,0-.8-.04-2.67-.04h-4.21l.68.16c.21.06.31.12.31.25,0,.12-.08.21-.23.29-.12.06-.25.16-.39.31h6.71c1.75,0,2.32-.04,2.46-.04.19,0,.21.02.21.21v1.15c0,.2-.02.21-.21.21-.14,0-.7-.04-2.46-.04h-1.37c1.15.7,2.56,1.15,4.54,1.58-.27.33-.51.7-.72,1.17-.18.37-.24.51-.39.51-.1,0-.23-.06-.45-.12-.84-.25-1.58-.57-2.28-.92-.04.41-.08.8-.14,1.19-.1.74-.27,1.37-.57,1.91-.37.62-1.01.94-2.14.94-.47,0-.7,0-1.11-.04q-.45-.04-.6-.55c-.14-.49-.31-.84-.55-1.21.8.12,1.39.16,1.99.16.49,0,.72-.1.84-.39.14-.33.21-.76.29-1.31h-3.24c-.41.82-.98,1.46-1.7,1.95-1.05.74-2.44,1.21-4.23,1.5-.19.04-.37.06-.45.06-.2,0-.27-.12-.41-.49-.16-.43-.39-.78-.62-1.09,2.15-.17,3.67-.53,4.64-1.23.27-.19.53-.43.74-.7h-.23c-1.81,0-2.42.04-2.54.04-.19,0-.21-.02-.21-.23v-.64ZM86.5,273.85c-.02-.45-.04-.86-.1-1.21.62.02,1.33.06,1.85.12.18.02.27.08.27.18,0,.12-.06.2-.1.29-.04.1-.1.29-.1.62h3.82c-.02-.45-.04-.86-.1-1.21.62.02,1.33.06,1.85.12.18.02.27.08.27.18,0,.12-.06.2-.1.29-.04.1-.1.29-.1.62h2.28c1.74,0,2.34-.04,2.46-.04.19,0,.21.02.21.21v1.17c0,.21-.02.23-.21.23-.12,0-.72-.04-2.46-.04h-2.28c.02.33.04.55.04.62,0,.2-.02.21-.23.21h-1.44c-.22,0-.23-.02-.23-.21,0-.08.02-.29.02-.62h-3.8c.02.33.04.55.04.62,0,.2-.02.21-.23.21h-1.44c-.21,0-.23-.02-.23-.21,0-.08.02-.29.02-.62h-2.14c-1.74,0-2.34.04-2.46.04-.2,0-.22-.02-.22-.23v-1.17c0-.19.02-.21.22-.21.12,0,.72.04,2.46.04h2.16ZM86.23,278.58h8.11v-.76h-8.11v.76ZM94.34,279.68h-8.11v.78h8.11v-.78ZM94.42,285.64c-.62-.43-1.21-.92-1.78-1.5h-4.33c-.55.53-1.19,1.03-1.91,1.5h2.67c.1-.45.16-.84.14-1.27.64.04,1.21.1,1.74.14.21.04.35.1.35.21,0,.1-.08.2-.14.29-.1.12-.14.25-.23.62h3.49Z"/>
      <path class="cls-3" d="M111.81,285.88c-1.76,0-2.36.04-2.48.04-.19,0-.21-.02-.21-.21v-1.25c0-.18.02-.2.21-.2.12,0,.72.04,2.48.04h4.74v-.1c0-.31,0-.66-.02-.99h-2.42c-1.91,0-2.61.04-2.73.04-.2,0-.21-.02-.21-.23,0-.12.04-.76.04-2.2v-3.1c-.37.37-.76.74-1.15,1.09-.19.17-.31.25-.41.25-.12,0-.2-.14-.33-.41-.23-.47-.51-.84-.8-1.13,1.7-1.13,2.91-2.65,3.57-3.8.29-.53.41-.82.53-1.21.62.12,1.21.25,1.83.45.17.06.25.16.25.27s-.04.19-.18.29c-.14.12-.33.33-.53.62l-.33.49h3.59c.22-.37.39-.7.53-1.03.14-.33.23-.64.31-1.01.68.12,1.29.25,1.85.41.18.06.23.18.23.27,0,.12-.1.21-.2.29-.12.1-.29.33-.37.49-.12.21-.21.41-.33.58h2.96c1.89,0,2.52-.04,2.65-.04.2,0,.21.02.21.2v1.15c0,.21-.02.23-.21.23-.14,0-.76-.04-2.65-.04h-3.37v.98h2.46c1.87,0,2.52-.04,2.63-.04.21,0,.24.02.24.21v.98c0,.19-.02.21-.24.21-.12,0-.76-.04-2.63-.04h-2.46v.98h2.46c1.87,0,2.52-.04,2.63-.04.21,0,.24.02.24.21v.96c0,.2-.02.21-.24.21-.12,0-.76-.04-2.63-.04h-2.46v1.03h3.55c1.91,0,2.57-.04,2.69-.04.2,0,.21.02.21.21v1.09c0,.21-.02.23-.21.23-.12,0-.78-.04-2.69-.04h-3.76l-.06.12c-.06.12-.06.35-.06.86v.12h4.93c1.76,0,2.36-.04,2.48-.04.19,0,.21.02.21.2v1.25c0,.19-.02.21-.21.21-.12,0-.72-.04-2.48-.04h-3.67c1.81,1.21,4,1.97,6.75,2.46-.35.39-.58.84-.76,1.31-.15.39-.21.53-.39.53-.12,0-.23-.04-.45-.1-2.65-.8-4.86-1.95-6.45-3.45,0,2.17.08,3.3.08,3.71,0,.2-.02.21-.2.21h-1.68c-.17,0-.2-.02-.2-.21,0-.41.06-1.5.08-3.65-1.54,1.54-3.88,2.63-6.32,3.35-.21.06-.35.12-.47.12-.18,0-.25-.14-.39-.51-.16-.43-.39-.84-.7-1.19,2.61-.58,4.72-1.33,6.47-2.58h-3.37ZM117.06,276.13h-3.94v.97h3.94v-.97ZM117.06,278.43h-3.94v.98h3.94v-.98ZM117.06,280.71h-3.94v1.03h3.94v-1.03Z"/>
      <path class="cls-3" d="M136.62,284.92c.04-.43.06-.74.04-1.21.6.08,1.11.16,1.5.23.23.04.33.16.33.23,0,.12-.04.22-.1.29-.06.1-.12.39-.16.72-.12,1.15-.37,2.63-.66,3.63-.1.31-.14.47-.27.47-.08,0-.21-.1-.43-.23-.25-.17-.66-.39-1.05-.58.43-1.03.7-2.22.8-3.55M141.87,279.01c.18-.06.23-.04.31.14.41.94.76,2.22.99,3.43.04.21,0,.29-.25.35l-.84.19c-.27.08-.31.08-.33-.16l-.14-.74-.96.12v5.36c0,1.79.04,2.46.04,2.56,0,.19-.02.21-.21.21h-1.48c-.2,0-.22-.02-.22-.21,0-.12.04-.76.04-2.56v-5.19l-1.33.1c-.33.02-.61.08-.72.16-.1.06-.2.08-.31.08-.14,0-.21-.12-.25-.31-.1-.51-.16-1.01-.22-1.66.49.04.88.06,1.31.06.41-.53.8-1.05,1.17-1.6-.7-.94-1.52-1.83-2.38-2.65-.14-.18-.1-.24.04-.43l.74-.96c.16-.19.21-.21.35-.06.1.12.21.21.31.31.39-.62.78-1.35,1.09-2.05.18-.39.25-.64.35-1.03.57.21,1.13.47,1.62.7.17.1.25.19.25.31s-.08.2-.18.25c-.16.1-.29.31-.43.57-.51.92-.94,1.66-1.54,2.51.27.31.55.62.8.94.41-.66.8-1.33,1.17-1.99.21-.41.39-.78.55-1.23.53.21,1.15.45,1.62.72.18.1.24.16.24.27,0,.14-.06.21-.21.31-.2.14-.31.31-.61.76-.99,1.6-2.03,3.08-2.94,4.29.62-.04,1.27-.08,1.95-.14-.12-.41-.25-.8-.41-1.21-.08-.18-.04-.23.21-.31l.8-.23ZM142.16,283.67c.23-.08.27-.06.33.14.33,1.07.58,2.2.8,3.53.04.2.04.25-.23.35l-.98.33c-.27.1-.31.08-.33-.14-.16-1.4-.41-2.67-.68-3.65-.06-.2-.04-.21.2-.29l.9-.27ZM146.29,276.23c.23-.08.29-.02.37.12.21.35.49.96.66,1.52.06.2.04.29-.23.39l-1.13.37h3.24c.21-.45.37-.93.51-1.42.1-.29.16-.61.2-.94.62.1,1.25.25,1.72.41.16.04.27.1.27.21s-.08.19-.15.25c-.12.1-.18.19-.23.37l-.51,1.11c1.76,0,2.38-.04,2.5-.04.2,0,.21.02.21.21,0,.12-.04.41-.04.78v.43c0,1.21.04,1.46.04,1.58,0,.2-.02.21-.21.21h-1.4c-.2,0-.21-.02-.21-.21v-1.34h-6.94v1.37c0,.19-.02.21-.23.21h-1.36c-.2,0-.21-.02-.21-.21,0-.12.04-.37.04-1.6v-.29c0-.51-.04-.8-.04-.92,0-.19.02-.21.21-.21.12,0,.74.04,2.42.04-.06-.04-.1-.1-.12-.2-.14-.51-.33-1.09-.55-1.46-.12-.21-.12-.29.18-.39l1.03-.35ZM146.22,276.13c-1.76,0-2.38.04-2.48.04-.2,0-.21-.02-.21-.21v-1.33c0-.19.02-.21.21-.21.1,0,.72.04,2.48.04h1.11v-.16c0-.72-.04-1.23-.14-1.7.7.02,1.31.06,2.01.12.19.02.31.1.31.2,0,.14-.06.23-.12.37-.08.17-.1.41-.1,1.01v.16h1.44c1.77,0,2.4-.04,2.52-.04.2,0,.2.02.2.21v1.33c0,.2,0,.21-.2.21-.12,0-.74-.04-2.52-.04h-4.52ZM152.81,285.1c0,.99.04,1.6.04,2.11,0,.55-.08.9-.47,1.25-.23.23-.74.33-1.62.37q-.62.02-.72-.58c-.08-.41-.21-1-.43-1.27.35.02.64.04.98.04.29,0,.45-.12.45-.49v-2.59h-1.81v6.42c0,.2-.02.22-.21.22h-1.39c-.21,0-.23-.02-.23-.22,0-.14.04-.92.04-2.87v-3.55h-1.72v2.94c0,1.23.02,1.75.02,1.87,0,.21,0,.23-.19.23h-1.4c-.2,0-.21-.02-.21-.23,0-.12.04-.62.04-1.93v-2.54c0-1.19-.04-1.7-.04-1.81,0-.19.02-.21.21-.21.14,0,.72.04,2.42.04h.88c-.02-.7-.04-1.19-.12-1.71.66.02,1.31.06,1.81.12.2.04.29.12.29.21,0,.17-.08.31-.12.49-.04.19-.08.47-.08.9h.99c1.68,0,2.28-.04,2.42-.04.2,0,.21.02.21.21,0,.1-.04.72-.04,1.95v.68Z"/>
      <path class="cls-3" d="M167.35,283.65c0,.39.04.55.17.64.14.1.41.14.7.14.41,0,.68-.08.84-.23.31-.27.39-.68.43-2.61.37.25.86.51,1.31.66.51.17.51.19.47.7-.12,1.87-.47,2.48-1.09,2.89-.51.35-1.29.49-2.2.49-.82,0-1.48-.06-1.91-.29-.49-.25-.72-.64-.72-1.68v-4.47l-1.89.39c-.2.04-.21.02-.23-.18l-.2-1.6c-.02-.21,0-.21.18-.25.2-.04.7-.12,2.15-.39v-2.18c0-1.37-.02-2.03-.12-2.57.76.02,1.36.06,2.01.14.25.04.37.12.37.23,0,.18-.06.29-.12.41-.1.2-.14.57-.14,1.79v1.81l1.44-.27c1.52-.29,2.03-.45,2.2-.47.19-.04.19-.02.21.17l.16,1.56c.02.2,0,.22-.21.25-.18.04-.7.12-2.24.41l-1.56.33v4.17ZM175.54,276.03c-.02,3.12-.18,6.01-1.03,8.41-.92,2.44-2.38,4.19-5.09,5.66-.27.13-.41.23-.53.23s-.21-.12-.43-.35c-.37-.43-.8-.78-1.31-1.09,2.96-1.27,4.54-2.79,5.42-5.07.8-2.14.9-4.45.92-7.78h-.31c-1.8,0-2.38.04-2.5.04-.2,0-.21-.02-.21-.21v-1.52c0-.2.02-.21.21-.21.12,0,.7.04,2.5.04h4.62c1.79,0,2.4-.04,2.52-.04.17,0,.21.04.21.23-.04.64-.04,1.21-.04,1.74-.04,4.76-.21,8.56-.7,11.21-.35,2.01-1.25,2.79-3.14,2.79-.37,0-.74-.02-1.25-.06-.51-.04-.53-.04-.59-.57-.08-.68-.23-1.21-.43-1.6.9.14,1.36.19,2.03.19.78,0,1.17-.37,1.39-1.58.35-2.1.6-5.62.64-10.45h-2.91Z"/>
    </g>
  </g>
</svg>