<?xml version="1.0" encoding="UTF-8"?>
<svg id="_レイヤー_2" data-name="レイヤー 2" xmlns="http://www.w3.org/2000/svg" viewBox="0 0 98.12 98.12">
  <defs>
    <style>
      .cls-1 {
        fill: #fff;
      }

      .cls-2 {
        fill: red;
      }
    </style>
  </defs>
  <g id="_レイヤー_1-2" data-name="レイヤー 1">
    <g>
      <path d="M98.12,49.06c0,27.09-21.96,49.06-49.06,49.06S0,76.15,0,49.06,21.96,0,49.06,0s49.06,21.96,49.06,49.06"/>
      <path class="cls-2" d="M73.26,36.9c-.58-2.17-2.29-3.88-4.47-4.46-3.94-1.06-19.73-1.06-19.73-1.06,0,0-15.79,0-19.73,1.06-2.17.58-3.88,2.29-4.46,4.46-1.06,3.94-1.06,12.16-1.06,12.16,0,0,0,8.22,1.06,12.16.58,2.17,2.29,3.88,4.46,4.46,3.94,1.06,19.73,1.06,19.73,1.06,0,0,15.79,0,19.73-1.06,2.17-.58,3.88-2.29,4.47-4.46,1.05-3.94,1.05-12.16,1.05-12.16,0,0,0-8.22-1.05-12.16"/>
      <polygon class="cls-1" points="44.01 56.63 57.13 49.06 44.01 41.48 44.01 56.63"/>
    </g>
  </g>
</svg>