<?xml version="1.0" encoding="UTF-8"?>
<svg id="_レイヤー_2" data-name="レイヤー 2" xmlns="http://www.w3.org/2000/svg" viewBox="0 0 98.12 98.12">
  <defs>
    <style>
      .cls-1 {
        fill: #fff;
      }
    </style>
  </defs>
  <g id="_レイヤー_1-2" data-name="レイヤー 1">
    <g>
      <path d="M98.12,49.06c0,27.09-21.96,49.06-49.06,49.06S0,76.15,0,49.06,21.96,0,49.06,0s49.06,21.96,49.06,49.06"/>
      <path class="cls-1" d="M49.06,30.02c6.2,0,6.94.02,9.38.13,2.27.1,3.49.48,4.31.8,1.08.42,1.86.93,2.67,1.74.81.81,1.32,1.59,1.74,2.67.32.82.7,2.05.8,4.31.11,2.45.14,3.18.14,9.38s-.02,6.93-.14,9.38c-.1,2.26-.48,3.5-.8,4.31-.42,1.08-.92,1.86-1.74,2.67-.81.81-1.59,1.31-2.67,1.74-.82.32-2.05.7-4.31.8-2.45.11-3.18.14-9.38.14s-6.94-.02-9.38-.14c-2.27-.1-3.49-.48-4.31-.8-1.08-.42-1.86-.92-2.67-1.74-.81-.81-1.32-1.59-1.74-2.67-.32-.82-.7-2.05-.8-4.31-.11-2.45-.14-3.18-.14-9.38s.02-6.94.14-9.38c.1-2.26.48-3.49.8-4.31.42-1.08.92-1.86,1.74-2.67.81-.81,1.59-1.32,2.67-1.74.82-.32,2.05-.7,4.31-.8,2.45-.11,3.18-.13,9.38-.13M49.06,25.83c-6.31,0-7.1.03-9.58.14-2.47.11-4.16.5-5.64,1.08-1.53.59-2.82,1.39-4.11,2.68s-2.08,2.59-2.68,4.11c-.57,1.48-.97,3.17-1.08,5.64-.11,2.48-.14,3.27-.14,9.58s.03,7.1.14,9.58c.11,2.47.51,4.16,1.08,5.64.59,1.53,1.39,2.82,2.68,4.11,1.29,1.29,2.59,2.08,4.11,2.68,1.48.57,3.17.97,5.64,1.08,2.48.11,3.27.14,9.58.14s7.1-.03,9.57-.14c2.47-.11,4.16-.51,5.64-1.08,1.53-.59,2.82-1.39,4.11-2.68,1.29-1.29,2.08-2.59,2.68-4.11.57-1.48.97-3.17,1.08-5.64.11-2.48.14-3.27.14-9.58s-.03-7.1-.14-9.58c-.11-2.47-.51-4.16-1.08-5.64-.59-1.53-1.39-2.82-2.68-4.11s-2.59-2.08-4.11-2.68c-1.48-.57-3.17-.97-5.64-1.08-2.48-.11-3.27-.14-9.57-.14"/>
      <path class="cls-1" d="M49.06,37.13c-6.59,0-11.93,5.34-11.93,11.93s5.34,11.93,11.93,11.93,11.93-5.34,11.93-11.93-5.34-11.93-11.93-11.93M49.06,56.8c-4.28,0-7.74-3.47-7.74-7.74s3.47-7.74,7.74-7.74,7.74,3.46,7.74,7.74-3.47,7.74-7.74,7.74"/>
      <path class="cls-1" d="M64.24,36.66c0,1.54-1.25,2.79-2.79,2.79s-2.79-1.25-2.79-2.79,1.25-2.79,2.79-2.79,2.79,1.25,2.79,2.79"/>
    </g>
  </g>
</svg>