<?xml version="1.0" encoding="UTF-8"?>
<svg id="_レイヤー_2" data-name="レイヤー 2" xmlns="http://www.w3.org/2000/svg" viewBox="0 0 98.12 98.12">
  <defs>
    <style>
      .cls-1 {
        fill: #fe2c55;
      }

      .cls-2 {
        fill: #fff;
      }

      .cls-3 {
        fill: #25f4ee;
      }
    </style>
  </defs>
  <g id="_レイヤー_1-2" data-name="レイヤー 1">
    <g>
      <path d="M98.12,49.06c0,27.09-21.96,49.06-49.06,49.06S0,76.15,0,49.06,21.96,0,49.06,0s49.06,21.96,49.06,49.06"/>
      <path class="cls-3" d="M43.67,43.26v-2.2c-.74-.1-1.49-.16-2.25-.16-9.21,0-16.7,7.49-16.7,16.7,0,5.65,2.82,10.65,7.13,13.67-2.78-2.99-4.43-6.98-4.43-11.37,0-9.08,7.22-16.43,16.25-16.64"/>
      <path class="cls-3" d="M44.07,67.57c4.11,0,7.51-3.31,7.66-7.39l.04-36.31h6.58s-.01-.05-.01-.05c-.14-.75-.21-1.52-.21-2.3h-9.07l-.02,36.36c-.15,4.07-3.5,7.34-7.61,7.34-1.28,0-2.48-.32-3.54-.88,1.39,1.92,3.64,3.23,6.18,3.23"/>
      <path class="cls-3" d="M70.75,36.27v-2.13c-2.53,0-4.89-.75-6.87-2.04,1.76,2.03,4.16,3.59,6.87,4.17"/>
      <path class="cls-1" d="M63.87,32.1c-1.93-2.22-3.1-5.11-3.1-8.27h-2.47c.64,3.46,2.73,6.42,5.58,8.27"/>
      <path class="cls-1" d="M41.42,49.9c-4.21,0-7.68,3.49-7.68,7.7,0,2.93,1.71,5.47,4.14,6.75-.9-1.25-1.44-2.79-1.44-4.45,0-4.2,3.42-7.63,7.63-7.63.79,0,1.54.13,2.25.35v-9.26c-.74-.1-1.49-.16-2.25-.16-.13,0-.26,0-.39,0h-.04s-.02,7.01-.02,7.01c-.71-.22-1.41-.32-2.19-.32"/>
      <path class="cls-1" d="M70.75,36.16h-.04s0,7,0,7c-4.7,0-9.08-1.55-12.63-4.1v18.54c0,9.21-7.44,16.65-16.64,16.65-3.56,0-6.86-1.07-9.57-2.98,3.05,3.27,7.4,5.33,12.22,5.33,9.21,0,16.7-7.49,16.7-16.7v-18.44c3.56,2.55,7.92,4.06,12.62,4.06v-9.07c-.91,0-1.79-.1-2.64-.28"/>
      <path class="cls-2" d="M58.12,57.59v-18.44c3.56,2.55,7.92,4.06,12.62,4.06v-7.05c-2.72-.58-5.11-2.04-6.87-4.06-2.84-1.85-4.9-4.82-5.53-8.28h-6.64l-.02,36.36c-.15,4.07-3.5,7.34-7.61,7.34-2.54,0-4.8-1.26-6.18-3.18-2.43-1.28-4.09-3.82-4.09-6.75,0-4.21,3.42-7.63,7.63-7.63.79,0,1.54.13,2.25.35v-7.11c-9.03.21-16.3,7.61-16.3,16.69,0,4.39,1.7,8.39,4.48,11.37,2.71,1.9,6.01,3.03,9.57,3.03,9.21,0,16.7-7.49,16.7-16.7"/>
    </g>
  </g>
</svg>