<?xml version="1.0" encoding="UTF-8"?>
<svg id="_レイヤー_2" data-name="レイヤー 2" xmlns="http://www.w3.org/2000/svg" viewBox="0 0 268.34 62.7">
  <defs>
    <style>
      .cls-1 {
        fill: none;
        stroke: #000;
        stroke-linecap: round;
        stroke-linejoin: round;
      }
    </style>
  </defs>
  <g id="_レイヤー_1-2" data-name="レイヤー 1">
    <g>
      <polyline class="cls-1" points="176.1 56 267.84 56 260.19 48.34"/>
      <path d="M0,13.28C0,6.01,4.63,0,12.5,0s12.54,6,12.54,13.28-4.66,13.32-12.54,13.32S0,20.59,0,13.28M19.85,13.28c0-6.43-3.15-9.64-7.35-9.64s-7.35,3.21-7.35,9.64,3.14,9.68,7.35,9.68,7.35-3.21,7.35-9.68"/>
      <path d="M42.39,25.93l.03-3.18-.03-11.51h-7.28v11.51l.04,3.18h-4.45l.04-3.18-.04-11.51h-3.25v-3.15h3.25v-1.48c-.04-5.26,2.3-6.32,5.76-6.32,1.38,0,2.16.18,2.72.32v3.07c-.46-.14-1.2-.28-1.87-.28-1.91,0-2.22,1.1-2.19,3.18v1.52h7.28v-1.48c-.04-5.26,2.3-6.32,5.76-6.32,1.38,0,2.19.18,2.72.32v3.07c-.46-.14-1.17-.28-1.87-.28-1.87,0-2.22,1.1-2.19,3.18v1.52h4.06v3.15h-4.06v11.51l.04,3.18h-4.45Z"/>
      <path d="M54.01,25.93l.04-3.18v-11.48l-.04-3.18h4.45l-.04,3.18v11.48l.04,3.18h-4.45ZM54.04.67h4.38v4.42h-4.38V.67Z"/>
      <path d="M79.69,21.19c-.46,1.31-2.72,5.26-8.12,5.26-4.81,0-9.15-3.18-9.15-9.29,0-5.55,3.64-9.64,9.18-9.64,5.12,0,7.52,3.6,7.84,5.23l-3.81,1.06c-.39-1.34-1.73-3.11-4.13-3.11s-4.49,2.08-4.49,6.15c0,4.28,2.08,6.43,4.66,6.43s4.03-1.98,4.42-3.25l3.6,1.17Z"/>
      <path d="M83.18,25.93l.04-3.18v-11.48l-.04-3.18h4.45l-.04,3.18v11.48l.04,3.18h-4.45ZM83.22.67h4.38v4.42h-4.38V.67Z"/>
      <path d="M92.19,11.52c1.31-2.54,4.06-3.99,8.05-3.99,4.42,0,7.84,1.77,7.84,6.68v7.67c0,1.8.18,3.15.32,4.06h-4.1c-.18-.99-.25-2.08-.32-2.97h-.07c-.99,1.62-3.25,3.5-6.64,3.5-3.14,0-5.9-1.66-5.9-5.09,0-5.69,7.63-6.5,12.51-6.53v-.74c0-2.44-1.34-3.6-3.92-3.6-1.98,0-3.14.67-4.52,2.37l-3.25-1.34ZM103.88,17.87v-.74c-3.6.04-7.95.81-7.95,3.92,0,1.41.92,2.37,2.65,2.37,2.33,0,5.3-1.73,5.3-5.55"/>
      <path d="M117.41,22.75s.03,3.18.03,3.18h-4.45s.03-3.14.03-3.18V3.85l-.03-3.18h4.45l-.03,3.18v18.9Z"/>
      <path d="M153.62,18.97c-.81,2.76-4.17,7.63-11.27,7.63-6.64,0-12.22-4.35-12.22-13.07,0-7.88,4.88-13.53,12.43-13.53,6.25,0,9.43,3.74,10.85,7.56l-4.31,1.06c-.74-2.22-2.79-4.98-6.61-4.98-4.17,0-7.31,3.46-7.31,9.71,0,7.35,3.92,9.61,7.35,9.61,3.96,0,6.36-2.97,6.92-5.19l4.17,1.2Z"/>
      <path d="M161.35,10.99h.07c1.48-1.94,3.57-3.43,6.5-3.43,3.67,0,6.01,2.23,6.01,6.71v8.48l.04,3.18h-4.45l.04-3.18v-7.74c0-2.65-.99-3.99-3-3.99s-4.03,1.34-5.19,3.25v8.48l.03,3.18h-4.45l.04-3.18V3.85l-.04-3.18h4.45l-.03,3.18v7.13Z"/>
      <path d="M178.38,11.52c1.31-2.54,4.06-3.99,8.05-3.99,4.42,0,7.84,1.77,7.84,6.68v7.67c0,1.8.18,3.15.32,4.06h-4.1c-.18-.99-.25-2.08-.32-2.97h-.07c-.99,1.62-3.25,3.5-6.64,3.5-3.14,0-5.9-1.66-5.9-5.09,0-5.69,7.63-6.5,12.5-6.53v-.74c0-2.44-1.34-3.6-3.92-3.6-1.98,0-3.14.67-4.52,2.37l-3.25-1.34ZM190.07,17.87v-.74c-3.6.04-7.95.81-7.95,3.92,0,1.41.92,2.37,2.65,2.37,2.33,0,5.3-1.73,5.3-5.55"/>
      <path d="M211.76,25.93l.03-3.18v-7.74c0-2.65-.99-3.99-3-3.99s-4.03,1.34-5.19,3.25v8.48l.04,3.18h-4.45l.04-3.18v-11.48l-.04-3.18h4.27v3.07h.07c1.48-1.98,3.64-3.6,6.64-3.6,3.67,0,6.01,2.22,6.01,6.71v8.48l.04,3.18h-4.45Z"/>
      <path d="M233.62,25.93l.03-3.18v-7.74c0-2.65-.99-3.99-3-3.99s-4.03,1.34-5.19,3.25v8.48l.04,3.18h-4.45l.04-3.18v-11.48l-.04-3.18h4.28v3.07h.07c1.48-1.98,3.64-3.6,6.64-3.6,3.67,0,6.01,2.22,6.01,6.71v8.48l.04,3.18h-4.45Z"/>
      <path d="M259.65,22.54c-.78,1.24-3.46,3.92-8.34,3.92-5.47,0-9.4-3.25-9.4-9.11s3.96-9.82,9.11-9.82c6.57,0,9.08,5.02,8.9,10.25h-13.74c.11,3.6,2.19,5.51,5.3,5.51,2.47,0,4.42-1.52,5.09-2.37l3.07,1.62ZM246.33,15.08h9.08c0-2.65-1.59-4.52-4.31-4.52-2.47,0-4.24,1.38-4.77,4.52"/>
      <path d="M268.31,22.75s.03,3.18.03,3.18h-4.45s.03-3.14.03-3.18V3.85l-.03-3.18h4.45l-.03,3.18v18.9Z"/>
      <path d="M10.42,59.53c-.28.79-1.64,3.17-4.89,3.17C2.63,62.7.01,60.79.01,57.11c0-3.34,2.19-5.81,5.53-5.81,3.08,0,4.53,2.17,4.72,3.15l-2.3.64c-.23-.81-1.04-1.87-2.49-1.87s-2.7,1.25-2.7,3.7c0,2.57,1.26,3.87,2.81,3.87s2.43-1.19,2.66-1.96l2.17.7Z"/>
      <path d="M19.43,53.39h.04c.89-1.17,2.15-2.06,3.91-2.06,2.21,0,3.62,1.34,3.62,4.04v5.1l.02,1.91h-2.68l.02-1.91v-4.66c0-1.6-.59-2.4-1.81-2.4s-2.43.81-3.13,1.96v5.1l.02,1.91h-2.68l.02-1.91v-11.38l-.02-1.91h2.68l-.02,1.91v4.3Z"/>
      <path d="M44.27,60.34c-.47.75-2.08,2.36-5.02,2.36-3.3,0-5.66-1.96-5.66-5.49s2.38-5.91,5.49-5.91c3.96,0,5.47,3.02,5.36,6.17h-8.27c.06,2.17,1.32,3.32,3.19,3.32,1.49,0,2.66-.92,3.06-1.43l1.85.98ZM36.25,55.85h5.47c0-1.59-.96-2.72-2.59-2.72-1.49,0-2.55.83-2.87,2.72"/>
      <path d="M60.86,59.53c-.28.79-1.64,3.17-4.89,3.17-2.89,0-5.51-1.91-5.51-5.6,0-3.34,2.19-5.81,5.53-5.81,3.08,0,4.53,2.17,4.72,3.15l-2.3.64c-.23-.81-1.04-1.87-2.49-1.87s-2.7,1.25-2.7,3.7c0,2.57,1.26,3.87,2.81,3.87s2.42-1.19,2.66-1.96l2.17.7Z"/>
      <polygon points="75.1 62.38 71.85 57.3 69.87 59.17 69.87 60.41 69.89 62.38 67.21 62.38 67.23 60.41 67.23 49.15 67.21 47.18 69.89 47.18 69.87 49.15 69.87 56.56 69.92 56.56 74.81 51.64 77.83 51.64 77.83 51.68 73.62 55.62 78.08 62.34 78.08 62.38 75.1 62.38"/>
      <path d="M95.92,53.39h.04c.89-1.17,2.15-2.06,3.91-2.06,2.21,0,3.62,1.34,3.62,4.04v5.1l.02,1.91h-2.68l.02-1.91v-4.66c0-1.6-.6-2.4-1.81-2.4s-2.43.81-3.13,1.96v5.1l.02,1.91h-2.68l.02-1.91v-11.38l-.02-1.91h2.68l-.02,1.91v4.3Z"/>
      <path d="M120.76,60.34c-.47.75-2.08,2.36-5.02,2.36-3.3,0-5.66-1.96-5.66-5.49s2.38-5.91,5.49-5.91c3.96,0,5.47,3.02,5.36,6.17h-8.27c.06,2.17,1.32,3.32,3.19,3.32,1.49,0,2.66-.92,3.06-1.43l1.85.98ZM112.74,55.85h5.47c0-1.59-.96-2.72-2.59-2.72-1.49,0-2.55.83-2.87,2.72"/>
      <path d="M127.59,60.47v-6.91l-.02-1.91h2.47v3.19h.04c.87-2.47,2.38-3.51,3.87-3.51.17,0,.34.02.45.04v2.4c-.19-.04-.4-.07-.62-.07-2,0-3.38,2.47-3.55,4.34v2.42l.02,1.91h-2.68l.02-1.91Z"/>
      <path d="M150.6,60.34c-.47.75-2.08,2.36-5.02,2.36-3.3,0-5.66-1.96-5.66-5.49s2.38-5.91,5.49-5.91c3.96,0,5.47,3.02,5.36,6.17h-8.27c.06,2.17,1.32,3.32,3.19,3.32,1.49,0,2.66-.92,3.06-1.43l1.85.98ZM142.58,55.85h5.47c0-1.59-.96-2.72-2.59-2.72-1.49,0-2.55.83-2.87,2.72"/>
      <path d="M160.04,57.68h-1.68l-.83-10.51h3.32l-.81,10.51ZM157.64,59.49h3.06v2.89h-3.06v-2.89Z"/>
    </g>
  </g>
</svg>